<?xml version="1.0" standalone="no"?>
<!DOCTYPE svg PUBLIC "-//W3C//DTD SVG 20010904//EN"
        "http://www.w3.org/TR/2001/REC-SVG-20010904/DTD/svg10.dtd">
<svg version="1.0" xmlns="http://www.w3.org/2000/svg"
     width="500.000000pt" height="500.000000pt" viewBox="0 0 500.000000 500.000000"
     preserveAspectRatio="xMidYMid meet">
    <metadata>
        Created by potrace 1.14, written by Peter Selinger 2001-2017
    </metadata>
    <g transform="translate(0.000000,500.000000) scale(0.100000,-0.100000)"
       fill="#000000" stroke="none">
        <path d="M2425 4331 c-3 -6 -14 -8 -25 -6 -11 2 -22 -1 -26 -6 -4 -6 -11 -6
-20 2 -11 9 -14 8 -14 -2 0 -9 -3 -10 -8 -3 -4 6 -21 10 -39 10 -21 -1 -28 -4
-23 -12 6 -7 -1 -9 -23 -8 -17 1 -40 -2 -50 -8 -14 -7 -17 -7 -13 1 11 17 -10
13 -24 -4 -11 -14 -15 -14 -33 2 -11 10 -18 14 -15 8 3 -5 0 -15 -7 -22 -11
-10 -15 -10 -19 0 -3 9 -7 8 -15 -3 -6 -8 -11 -11 -11 -5 0 5 -5 4 -12 -3 -8
-8 -17 -8 -31 -1 -12 7 -17 7 -13 1 7 -11 -21 -25 -35 -16 -5 3 -9 1 -9 -4 0
-6 -10 -8 -22 -4 -17 4 -20 2 -15 -11 4 -12 0 -14 -19 -11 -15 3 -32 -3 -46
-16 -12 -11 -24 -17 -27 -14 -3 4 0 9 7 11 6 3 12 10 12 16 -1 7 -8 3 -18 -9
-10 -11 -27 -20 -39 -19 -12 1 -21 -3 -20 -9 1 -6 -6 -10 -15 -10 -10 1 -18
-2 -18 -7 0 -5 -7 -5 -17 -2 -11 4 -14 3 -9 -5 4 -7 2 -13 -3 -13 -21 -3 -26
-4 -38 -12 -7 -5 -17 -5 -23 -2 -5 3 -7 0 -4 -8 3 -10 -5 -16 -25 -20 -17 -4
-31 -11 -31 -17 0 -6 5 -8 12 -4 7 4 8 3 4 -5 -6 -9 -11 -9 -21 -1 -9 8 -14 8
-17 0 -2 -6 -13 -12 -25 -13 -12 0 -21 -4 -21 -7 2 -26 -3 -32 -17 -20 -13 10
-15 9 -15 -11 0 -19 -2 -21 -10 -9 -8 13 -10 12 -10 -2 0 -10 -6 -17 -12 -15
-7 1 -12 -3 -11 -9 1 -5 -8 -16 -20 -24 -20 -12 -21 -12 -8 3 20 25 8 20 -23
-8 -15 -14 -24 -30 -21 -35 3 -6 -1 -7 -10 -4 -9 4 -15 3 -14 -2 4 -21 -2 -26
-17 -14 -12 11 -15 11 -12 -1 2 -8 -2 -13 -9 -12 -8 2 -10 -4 -6 -14 5 -13 2
-15 -11 -10 -11 4 -15 3 -11 -4 4 -6 -3 -13 -15 -16 -13 -4 -19 -11 -16 -20 4
-9 -1 -17 -14 -20 -11 -3 -20 -9 -20 -14 0 -5 -7 -9 -16 -9 -14 0 -15 -2 -3
-17 10 -12 10 -15 1 -9 -7 4 -24 -5 -45 -25 -17 -18 -26 -29 -18 -24 10 5 12
4 7 -3 -4 -7 -15 -12 -24 -12 -15 0 -15 -2 -2 -10 13 -9 13 -10 0 -11 -8 -1
-18 -1 -22 0 -4 0 -5 -8 -3 -19 2 -12 -3 -21 -16 -25 -11 -4 -17 -10 -14 -14
2 -5 -2 -17 -10 -27 -15 -18 -15 -18 -9 1 5 19 5 19 -6 2 -6 -10 -9 -24 -6
-32 3 -9 0 -12 -9 -9 -10 4 -13 -2 -11 -20 3 -23 1 -24 -12 -14 -13 11 -15 10
-10 -10 4 -14 2 -20 -5 -15 -6 4 -8 -1 -5 -15 4 -14 2 -19 -7 -16 -7 3 -16 1
-20 -5 -3 -6 0 -11 7 -11 7 0 2 -10 -12 -21 -14 -11 -19 -18 -13 -14 9 4 11 1
7 -10 -4 -9 -13 -14 -22 -10 -12 4 -13 3 -2 -10 10 -12 10 -15 0 -15 -7 0 -10
-7 -6 -15 5 -13 -4 -19 -25 -17 -3 1 -4 -11 -1 -25 3 -18 1 -24 -6 -19 -8 5
-10 1 -5 -10 5 -12 3 -15 -6 -9 -10 6 -11 3 -1 -15 7 -13 8 -20 2 -16 -6 3
-13 2 -17 -4 -3 -5 0 -10 7 -11 7 0 3 -4 -9 -9 -15 -6 -21 -15 -18 -30 2 -11
0 -20 -5 -20 -5 0 -7 -9 -5 -20 3 -13 0 -18 -7 -14 -7 5 -9 1 -5 -9 4 -12 1
-17 -11 -17 -14 0 -15 -2 -2 -10 13 -8 12 -11 -5 -25 -20 -15 -20 -15 0 -9 20
6 20 5 1 -10 -11 -9 -16 -16 -11 -16 4 0 0 -9 -10 -20 -14 -16 -15 -19 -4 -15
10 4 16 0 16 -9 0 -8 -6 -12 -15 -8 -10 3 -13 1 -8 -6 3 -6 2 -13 -4 -17 -5
-3 -8 -28 -7 -54 1 -27 -1 -47 -4 -45 -10 6 -18 -21 -15 -50 2 -14 0 -23 -4
-21 -14 8 -19 -22 -7 -35 9 -9 9 -11 1 -7 -7 4 -14 1 -16 -6 -7 -18 2 -38 15
-31 7 3 4 -1 -5 -9 -10 -8 -15 -17 -12 -20 3 -3 0 -15 -6 -27 -8 -15 -8 -20
-1 -16 15 10 14 -6 -3 -29 -11 -16 -11 -24 0 -51 12 -28 11 -33 -2 -38 -13 -5
-14 -9 -4 -21 7 -8 9 -15 5 -15 -4 0 -1 -8 6 -17 8 -10 9 -14 2 -10 -6 4 -14
3 -18 -3 -3 -5 -2 -10 3 -10 5 0 7 -24 6 -52 -3 -40 -1 -49 7 -38 9 12 10 11
4 -5 -10 -30 -13 -65 -6 -65 4 0 7 -10 8 -22 2 -58 8 -88 18 -88 5 0 3 -5 -5
-10 -10 -6 -11 -10 -3 -10 8 0 11 -11 9 -30 -2 -17 1 -33 7 -37 6 -4 7 -1 2 7
-5 9 -4 11 3 6 9 -5 9 -13 1 -28 -10 -18 -9 -20 4 -15 14 5 15 2 7 -19 -6 -14
-6 -23 -1 -20 10 7 27 -31 27 -59 -1 -24 15 -45 28 -37 5 3 6 0 2 -7 -4 -6
-12 -9 -17 -6 -5 4 -9 -2 -9 -12 0 -15 -2 -16 -10 -3 -8 13 -11 13 -22 1 -11
-11 -11 -13 1 -6 10 6 12 4 6 -5 -6 -10 -11 -9 -22 5 -7 11 -13 14 -13 9 0 -5
-14 -11 -31 -12 -17 -1 -28 1 -26 5 3 5 -32 9 -76 9 -102 2 -137 6 -137 16 0
4 -9 8 -19 8 -10 0 -22 7 -25 16 -3 8 -10 13 -15 10 -11 -7 -25 23 -22 48 2
13 -1 16 -11 10 -11 -6 -11 -5 0 9 8 9 10 22 6 28 -5 9 -2 10 11 5 16 -6 16
-4 4 11 -11 14 -11 15 0 9 10 -7 12 -3 6 15 -5 19 -4 21 4 9 10 -15 12 -14 15
13 1 6 7 11 14 9 7 -1 11 1 10 5 -4 15 13 53 21 48 5 -2 19 4 31 15 13 11 20
20 16 20 -4 0 -1 6 6 14 7 8 16 12 21 9 4 -2 7 3 7 11 0 9 5 15 12 14 7 -2 12
2 13 9 0 6 4 15 9 20 5 5 6 3 2 -4 -4 -7 -2 -13 3 -13 6 0 11 7 11 16 0 9 5
12 12 8 8 -5 9 -2 5 9 -3 10 -2 17 4 17 6 0 7 5 3 12 -11 17 -13 68 -3 68 5 0
6 7 3 15 -4 8 -11 12 -18 8 -6 -3 -6 -1 2 8 14 16 16 33 2 24 -5 -3 -10 -1
-10 4 0 17 -27 13 -34 -5 -3 -8 -10 -12 -16 -9 -5 3 -10 -1 -10 -9 0 -10 -6
-13 -17 -9 -9 4 -14 2 -10 -3 3 -6 -3 -16 -15 -23 -15 -9 -18 -10 -13 0 6 8 4
10 -4 5 -7 -5 -10 -14 -7 -21 3 -9 -2 -12 -15 -10 -11 2 -17 0 -14 -5 7 -11
-24 -42 -36 -35 -5 4 -9 -2 -9 -12 0 -15 -2 -16 -10 -3 -9 13 -10 13 -11 0 -1
-8 -1 -18 0 -22 0 -4 -6 -5 -15 -1 -9 3 -14 0 -12 -8 2 -8 -3 -13 -9 -11 -7 1
-13 -3 -13 -9 0 -5 -6 -7 -13 -3 -7 5 -6 0 3 -11 9 -11 10 -16 2 -11 -11 7
-44 -16 -42 -29 1 -4 -2 -10 -6 -13 -4 -4 -4 -1 0 6 4 6 3 12 -2 12 -6 0 -13
-11 -16 -25 -4 -14 -11 -23 -16 -20 -6 3 -10 1 -10 -5 0 -6 -4 -8 -10 -5 -5 3
-10 0 -10 -7 0 -17 -36 -48 -46 -40 -4 4 -5 -1 -1 -10 3 -9 0 -19 -9 -22 -8
-3 -19 -17 -24 -31 -6 -17 -14 -24 -22 -19 -7 4 -10 4 -6 0 9 -11 -32 -87 -43
-80 -5 3 -6 -3 -2 -12 5 -13 3 -15 -7 -9 -8 5 -11 4 -6 -3 3 -5 0 -13 -6 -16
-7 -3 -2 -3 12 0 l25 6 -24 -21 c-18 -15 -21 -24 -13 -34 6 -7 7 -18 2 -26 -9
-16 8 -61 23 -61 6 0 7 -3 4 -6 -10 -10 12 -44 28 -44 8 0 15 -7 15 -16 0 -8
4 -12 10 -9 5 3 10 1 10 -5 0 -6 4 -9 9 -6 4 3 19 -3 31 -14 25 -21 35 -26 26
-11 -4 5 3 7 14 4 11 -3 20 -10 20 -15 0 -6 8 -4 17 3 9 8 14 9 11 4 -4 -6 5
-15 18 -22 15 -7 26 -7 30 -2 3 6 11 5 20 -2 8 -6 14 -8 14 -4 0 4 7 2 15 -5
12 -10 15 -9 15 6 0 16 2 16 16 -4 12 -18 19 -20 35 -12 10 6 19 7 19 2 0 -10
30 -9 47 1 6 4 14 3 18 -3 3 -5 11 -10 16 -10 6 0 7 4 4 10 -4 6 2 7 17 2 13
-4 57 -7 98 -6 103 3 102 2 95 17 -4 6 1 3 10 -8 9 -12 19 -16 23 -10 10 14
46 19 37 5 -5 -7 0 -7 13 1 12 7 18 17 15 23 -3 5 -1 6 6 2 8 -5 9 -12 2 -20
-7 -8 -5 -12 9 -12 10 0 16 5 13 10 -4 5 1 7 10 3 11 -4 17 -1 17 9 0 8 5 12
10 9 6 -4 8 -10 5 -15 -3 -5 0 -12 6 -16 8 -4 9 -3 5 5 -9 13 29 12 51 -2 9
-5 11 -3 7 7 -4 12 1 13 30 6 20 -4 34 -4 31 0 -3 5 -1 11 5 15 5 3 10 2 10
-3 0 -5 7 -9 15 -9 8 0 15 5 15 11 0 6 5 4 10 -4 5 -8 10 -10 10 -4 0 6 15 10
35 9 23 -1 35 3 35 12 0 7 5 13 11 13 6 0 8 -8 5 -17 -6 -17 -5 -17 8 0 10 14
15 15 19 5 4 -11 6 -11 6 0 1 7 6 10 11 7 6 -3 10 0 10 7 0 9 3 9 10 -2 7 -11
10 -11 10 -2 0 7 4 11 9 7 5 -3 12 -1 16 5 3 5 12 10 18 10 7 0 6 -4 -3 -10
-10 -7 -11 -10 -2 -10 7 0 15 7 19 16 5 13 7 13 14 2 5 -7 9 -8 9 -2 0 6 6 11
13 12 58 6 79 11 92 22 8 7 15 9 15 4 0 -4 7 1 16 12 14 17 15 17 10 1 -6 -20
4 -16 38 12 11 9 17 11 13 5 -10 -18 24 -12 35 6 7 11 19 15 34 12 15 -3 24 0
24 9 0 7 3 9 7 6 3 -4 12 1 20 11 9 10 11 11 7 2 -7 -13 -5 -13 9 -1 9 7 17
10 17 5 0 -5 4 -3 8 4 5 7 19 14 31 17 13 2 30 10 39 17 13 11 14 11 7 -2 -8
-13 -6 -13 8 -2 9 8 22 10 29 6 9 -6 9 -3 -1 9 -12 15 -12 17 3 11 9 -4 16 -1
16 6 0 10 3 10 15 0 12 -10 14 -8 10 9 -3 15 0 18 12 14 12 -5 14 -3 8 6 -5
10 -2 11 14 6 17 -5 20 -3 14 11 -4 11 -3 15 4 11 6 -4 18 5 27 18 9 14 21 23
27 20 5 -4 9 -3 8 2 -3 20 2 34 11 28 6 -3 10 1 10 10 0 10 -5 13 -12 9 -8 -4
-10 -3 -5 2 5 5 14 9 20 9 7 0 11 8 11 18 -1 9 2 17 7 17 4 0 6 9 4 19 -2 11
3 22 11 25 9 4 13 15 10 30 -5 26 15 51 29 38 4 -4 0 5 -10 21 -15 23 -15 26
-2 21 12 -4 15 1 13 20 -3 21 -1 24 11 15 11 -9 12 -8 7 5 -3 9 -1 16 6 16 6
0 8 5 4 12 -5 8 -2 9 11 4 16 -6 16 -4 4 11 -8 9 -9 14 -3 10 7 -4 15 1 18 10
6 15 8 15 16 3 8 -13 10 -12 10 2 0 9 5 20 12 24 7 5 8 3 3 -6 -6 -10 -1 -12
19 -8 14 3 29 2 31 -2 3 -4 18 -6 35 -5 16 1 27 -1 24 -6 -6 -10 31 -49 47
-49 6 0 9 -6 6 -14 -4 -10 0 -12 14 -9 11 3 19 0 19 -6 0 -7 -5 -9 -12 -5 -9
5 -8 2 1 -10 8 -9 21 -14 29 -11 12 4 12 3 3 -9 -9 -11 -8 -15 4 -20 11 -4 14
-2 9 6 -5 7 -3 8 5 4 7 -5 10 -14 7 -21 -3 -9 2 -12 14 -10 11 2 19 1 19 -3
-4 -22 3 -32 22 -32 11 0 18 -4 15 -9 -3 -5 1 -12 10 -15 10 -4 13 -2 9 7 -4
6 0 4 8 -6 10 -12 17 -14 22 -8 3 6 3 11 -1 11 -4 0 1 7 12 16 10 8 13 13 7 9
-15 -7 -17 4 -3 25 5 9 5 19 -1 27 -6 7 -7 18 -3 25 13 21 12 47 -3 59 -8 8
-10 16 -4 23 13 16 13 18 2 49 -9 23 -8 27 7 27 15 1 15 2 -2 11 -15 9 -16 13
-5 20 11 7 11 9 -2 9 -17 0 -22 30 -5 30 6 0 4 5 -4 10 -8 5 -11 10 -7 10 4 0
3 9 -3 19 -7 14 -6 21 3 24 9 4 9 6 0 6 -7 1 -10 8 -7 16 4 8 1 15 -5 15 -6 0
-11 5 -11 11 0 5 5 7 10 4 15 -9 12 4 -5 21 -20 21 -19 40 1 23 12 -9 10 -3
-5 21 -11 19 -21 40 -21 45 0 6 5 3 10 -5 7 -12 9 -10 7 7 0 12 -5 19 -11 16
-5 -3 -7 5 -4 20 3 15 0 28 -7 31 -13 4 -14 34 -2 53 4 6 2 15 -4 18 -5 4 -8
14 -5 22 3 8 2 12 -3 9 -11 -7 -22 20 -15 38 3 8 1 17 -5 20 -6 4 -8 13 -5 21
4 8 9 13 13 10 4 -2 8 2 8 10 0 8 -7 15 -16 16 -12 0 -11 3 4 9 11 5 15 9 9 9
-6 1 -9 12 -6 26 2 15 9 22 16 18 6 -4 4 2 -4 12 -11 14 -11 17 -1 11 10 -7
12 -3 6 13 -4 13 -2 21 6 21 8 0 8 5 -2 17 -10 11 -10 14 -1 9 8 -5 12 0 12
14 0 14 4 19 12 14 8 -5 9 -2 5 10 -5 14 -3 17 8 12 8 -3 14 -2 14 2 -3 20 3
32 16 32 8 0 15 5 15 11 0 5 5 7 10 4 6 -3 10 2 10 11 0 16 1 16 15 -2 14 -19
14 -19 15 1 1 15 3 17 8 5 4 -8 13 -15 20 -16 6 -1 22 -2 35 -3 18 -1 19 -3 7
-11 -13 -8 -12 -10 3 -10 22 0 67 -43 67 -65 0 -8 7 -15 16 -15 8 0 12 -4 9
-10 -3 -5 -1 -10 5 -10 6 0 8 -4 5 -10 -3 -5 6 -19 19 -31 21 -18 24 -25 13
-38 -9 -12 -9 -13 1 -7 7 4 12 1 12 -9 0 -9 5 -13 10 -10 6 4 10 3 9 -2 -4
-24 2 -53 12 -53 5 0 7 5 3 12 -4 6 -3 8 3 5 6 -4 8 -18 5 -32 -2 -15 0 -25 7
-25 6 0 11 -7 11 -16 0 -9 5 -12 13 -8 9 6 9 5 0 -7 -9 -11 -8 -18 1 -31 7
-10 17 -14 22 -10 4 4 2 -2 -6 -12 -13 -17 -13 -18 -1 -11 11 6 13 4 8 -8 -3
-8 1 -21 8 -27 8 -7 12 -17 8 -23 -4 -7 0 -8 13 -3 15 6 16 5 7 -5 -10 -10 -9
-15 5 -26 9 -8 11 -12 5 -8 -9 4 -11 1 -7 -9 3 -9 10 -16 15 -16 4 0 6 -6 3
-14 -3 -8 0 -17 5 -21 6 -3 8 -11 5 -17 -4 -6 -2 -8 3 -5 6 4 14 0 17 -9 3 -8
2 -12 -4 -9 -6 3 -7 -1 -4 -9 3 -9 11 -13 17 -9 6 4 8 0 4 -10 -4 -10 -1 -17
6 -17 8 0 6 -4 -3 -10 -13 -8 -13 -10 1 -10 9 0 20 -7 23 -16 5 -12 2 -15 -11
-10 -12 4 -10 0 5 -10 22 -17 32 -52 10 -38 -7 4 -8 3 -4 -5 4 -6 11 -9 16 -6
5 3 11 1 15 -5 3 -5 0 -10 -7 -10 -10 0 -10 -2 1 -9 7 -5 11 -13 7 -19 -3 -5
1 -15 9 -22 8 -7 15 -23 15 -35 0 -12 7 -28 15 -35 9 -7 13 -23 11 -36 -3 -14
-1 -22 5 -19 5 4 6 11 3 17 -4 7 -2 8 4 4 6 -4 8 -14 5 -23 -4 -10 -2 -14 4
-10 7 4 10 -5 8 -23 -2 -27 -1 -29 13 -18 12 10 14 10 8 1 -4 -8 -2 -13 4 -13
6 0 8 -5 5 -10 -4 -6 -12 -7 -18 -3 -7 3 -4 -3 7 -15 10 -12 22 -20 26 -17 4
2 7 -2 7 -9 0 -9 -7 -12 -16 -8 -13 5 -13 3 2 -12 9 -10 15 -22 12 -26 -3 -5
3 -13 13 -19 14 -7 19 -6 19 4 0 8 -4 12 -8 10 -4 -3 -10 2 -13 11 -3 8 -2 12
3 9 5 -3 12 -1 16 5 3 5 2 10 -2 10 -5 0 -9 9 -10 20 -1 13 2 18 10 13 7 -4 6
0 -2 10 -11 14 -11 20 -1 33 8 8 9 14 4 13 -21 -4 -28 2 -14 11 13 8 13 10 -1
10 -9 0 -16 7 -16 15 0 8 4 12 9 9 4 -3 8 0 8 5 0 6 -4 11 -10 11 -5 0 -10 4
-10 10 0 5 8 7 18 4 14 -5 15 -4 2 5 -18 12 -20 33 -5 44 7 4 7 10 0 15 -14
10 -18 42 -5 42 6 0 8 5 3 13 -12 20 -14 47 -2 47 5 0 7 -5 3 -12 -4 -6 -3 -8
4 -5 13 9 10 30 -7 51 -12 14 -12 16 2 11 8 -4 18 -1 23 6 4 8 3 10 -4 5 -8
-5 -11 0 -8 16 3 13 6 25 7 28 3 8 7 24 8 41 1 20 54 79 70 79 7 0 10 4 7 9
-4 5 18 11 48 13 30 1 54 1 53 -2 -1 -3 2 -6 6 -7 4 -1 19 -8 32 -17 18 -12
25 -12 28 -3 4 9 6 9 6 0 1 -7 8 -13 16 -13 8 0 15 -5 15 -11 0 -6 7 -9 14 -6
11 4 13 1 9 -10 -4 -11 -2 -14 5 -9 7 4 12 2 12 -4 0 -6 5 -8 10 -5 6 3 10 -1
10 -9 0 -9 5 -16 11 -16 5 0 7 6 3 13 -5 8 -3 8 9 -2 9 -7 15 -17 12 -21 -3
-4 6 -11 20 -14 14 -4 25 -14 25 -22 0 -11 6 -15 20 -11 11 3 18 0 17 -7 -1
-6 8 -10 21 -10 12 1 22 -3 22 -9 0 -6 4 -6 13 0 6 5 27 9 45 8 17 0 32 3 32
8 0 5 8 3 17 -4 11 -10 14 -10 9 -1 -4 7 -2 12 4 12 6 0 8 5 4 13 -5 8 -2 8 9
-2 14 -11 17 -11 17 0 0 11 2 11 10 -1 6 -9 10 -11 10 -3 0 7 7 10 17 6 13 -5
15 -2 10 12 -7 16 -5 16 10 4 15 -12 16 -12 10 5 -6 15 -5 17 6 7 11 -8 18 -7
31 8 11 12 28 18 47 16 26 -2 28 -1 17 13 -9 11 -9 13 -1 9 6 -4 15 -3 18 3 5
8 11 7 21 -1 12 -10 16 -8 20 9 4 12 11 19 20 15 8 -3 14 0 14 6 0 6 6 11 13
11 8 0 19 10 26 23 8 15 10 16 6 3 -5 -16 -3 -17 10 -6 8 7 12 17 8 23 -4 6
-1 7 6 2 8 -4 19 1 28 15 8 12 21 19 29 16 8 -3 13 0 11 7 -1 7 4 11 11 9 6
-1 12 2 12 8 0 6 3 9 8 9 19 -3 33 2 28 10 -4 5 3 7 14 4 12 -3 20 0 20 6 0 7
5 9 10 6 6 -3 10 -1 10 6 0 8 4 8 16 -1 8 -8 14 -9 13 -4 -4 21 2 26 16 14 13
-11 14 -10 9 6 -4 10 -3 16 1 11 5 -4 17 1 28 10 11 10 17 12 13 5 -7 -11 -4
-12 13 -2 12 6 19 16 15 23 -5 9 -3 8 7 0 17 -17 30 -16 23 1 -7 17 12 31 21
16 5 -7 12 -5 22 7 8 10 12 13 9 7 -3 -6 1 -11 8 -11 9 0 12 7 8 15 -4 11 -1
14 11 9 9 -3 17 -3 17 2 0 8 38 24 53 22 4 -1 7 7 7 16 0 15 2 16 10 3 8 -13
10 -12 10 3 0 9 6 16 13 15 6 -2 11 2 10 9 -2 8 4 10 14 6 13 -5 15 -2 10 12
-7 16 -5 16 10 4 11 -9 14 -10 9 -1 -4 6 -2 12 3 12 6 0 11 8 11 18 0 14 2 15
10 2 8 -13 10 -12 10 3 0 10 5 15 11 12 6 -4 13 2 16 14 3 11 9 18 14 15 5 -3
9 0 9 6 0 6 4 9 9 5 5 -3 13 0 17 6 4 8 3 9 -4 5 -7 -4 -12 -2 -12 3 0 10 14
15 33 12 5 -1 6 3 2 9 -8 13 14 42 26 34 5 -3 6 3 2 12 -5 13 -3 15 7 9 8 -5
11 -3 8 6 -2 7 5 22 16 32 12 10 14 15 6 11 -12 -7 -13 -5 -3 8 7 8 10 18 6
21 -3 4 1 7 10 7 10 0 17 5 17 11 0 5 -4 8 -9 5 -9 -6 -9 6 2 34 8 24 4 80 -6
80 -5 0 -4 7 3 16 11 12 11 15 -1 12 -8 -2 -13 3 -11 10 1 6 -2 12 -7 12 -5 0
-13 9 -16 21 -4 13 -12 18 -21 15 -10 -4 -12 -2 -8 6 5 8 2 9 -10 5 -10 -4
-15 -3 -11 3 3 5 -3 14 -14 19 -14 8 -21 8 -25 -2 -4 -6 -4 -1 -2 12 4 17 2
21 -6 13 -8 -8 -15 -7 -24 6 -8 10 -13 12 -14 5 0 -17 -20 -17 -20 0 0 8 -6
14 -12 14 -23 1 -43 8 -50 18 -5 6 -8 5 -8 -4 0 -11 -3 -11 -15 -1 -8 7 -15 9
-15 5 0 -5 -10 0 -22 11 -12 10 -18 13 -14 7 4 -8 1 -13 -8 -13 -9 0 -16 6
-16 13 0 8 -4 7 -10 -3 -9 -13 -10 -13 -10 0 0 12 -2 13 -9 1 -7 -11 -9 -11
-14 0 -5 12 -6 12 -6 0 -1 -11 -4 -11 -16 -1 -9 7 -18 10 -22 7 -3 -4 -12 -2
-20 4 -9 8 -13 8 -13 1 0 -6 -7 -9 -15 -6 -8 4 -12 11 -9 18 3 6 -1 3 -9 -6
-8 -10 -17 -18 -20 -18 -4 0 -3 8 0 18 6 15 5 15 -10 3 -11 -9 -17 -10 -17 -2
0 6 -5 11 -11 11 -5 0 -8 -4 -4 -9 3 -5 1 -13 -5 -16 -6 -4 -9 -1 -8 6 2 6 -7
12 -19 14 -12 1 -19 -3 -16 -8 3 -5 0 -7 -8 -5 -8 3 -13 10 -12 16 2 6 -4 9
-12 6 -8 -4 -12 -11 -8 -18 4 -6 -2 -4 -12 4 -17 14 -18 13 -12 -5 7 -20 7
-20 -8 -1 -11 14 -15 16 -15 5 0 -12 -2 -12 -9 0 -5 8 -14 10 -21 6 -7 -4 -16
-1 -22 6 -6 10 -7 6 -3 -11 6 -20 5 -23 -6 -12 -14 13 -33 17 -26 5 3 -5 -17
-7 -44 -7 -27 1 -49 -3 -49 -8 0 -5 -5 -6 -11 -2 -8 5 -8 1 0 -13 6 -11 7 -23
4 -27 -3 -3 -1 -6 5 -6 7 0 12 -7 12 -16 0 -8 5 -12 10 -9 6 3 10 1 10 -4 0
-6 -6 -11 -12 -11 -7 -1 -2 -7 12 -15 15 -9 19 -14 10 -15 -12 0 -12 -2 -2 -9
7 -4 14 -15 16 -24 2 -19 35 -57 48 -57 5 0 7 4 3 9 -3 5 -1 13 5 16 6 4 10 3
9 -2 -3 -20 2 -27 11 -13 8 13 11 13 19 1 7 -11 10 -10 14 5 5 18 5 18 6 0 1
-16 3 -17 18 -5 11 10 14 10 9 2 -9 -16 6 -17 22 -1 9 9 12 9 12 1 0 -7 13
-11 29 -11 15 1 34 -3 42 -8 22 -13 40 -14 32 -1 -3 7 2 5 13 -4 10 -9 29 -15
42 -13 13 2 21 0 18 -5 -7 -11 22 -23 36 -14 7 3 8 1 4 -5 -4 -8 0 -12 11 -12
15 0 16 -2 3 -11 -12 -9 -11 -10 7 -6 20 4 21 3 12 -15 -7 -12 -7 -18 -1 -14
5 3 12 -1 16 -9 3 -10 -1 -15 -12 -16 -14 0 -14 -2 2 -8 18 -7 18 -8 2 -14 -9
-4 -14 -11 -11 -17 3 -5 1 -10 -5 -10 -7 0 -9 -7 -6 -16 3 -8 2 -13 -3 -9 -5
3 -18 -6 -29 -20 -11 -13 -22 -22 -25 -18 -4 3 -9 -2 -13 -11 -3 -9 -13 -16
-21 -16 -8 0 -12 -4 -8 -9 6 -11 -30 -25 -44 -17 -5 3 -16 -5 -25 -19 -10 -15
-23 -23 -36 -20 -11 2 -20 -1 -20 -6 0 -6 -4 -8 -9 -5 -5 3 -14 -1 -20 -8 -7
-9 -23 -13 -38 -10 -19 4 -24 1 -20 -9 3 -8 -1 -14 -9 -14 -8 0 -14 6 -14 14
0 7 -4 13 -9 13 -5 0 -7 -10 -4 -22 4 -21 3 -21 -7 -5 -12 18 -18 39 -19 65
-1 7 -5 11 -10 8 -5 -3 -8 6 -8 20 0 15 -5 29 -10 33 -6 3 -9 18 -9 33 1 14
-1 25 -5 22 -4 -2 -13 4 -20 13 -12 14 -12 16 2 11 10 -4 16 -1 16 8 0 8 -3
12 -5 9 -3 -3 -11 0 -19 6 -10 9 -10 15 -2 25 9 11 8 14 -4 14 -8 0 -18 7 -21
16 -5 14 -4 15 9 4 13 -11 14 -10 9 3 -3 8 -12 18 -20 21 -11 4 -12 11 -4 32
9 23 8 25 -4 15 -11 -9 -15 -8 -20 4 -3 8 0 15 7 15 8 0 8 3 -2 9 -8 5 -10 14
-6 21 5 9 4 11 -3 6 -11 -6 -14 -1 -11 20 0 3 -9 14 -21 24 -12 10 -22 22 -23
27 -1 4 -6 7 -11 5 -5 -2 -3 5 5 14 12 15 12 17 0 9 -11 -6 -13 -3 -9 13 4 15
2 19 -8 15 -12 -5 -19 7 -15 29 0 4 -7 4 -17 1 -15 -6 -16 -5 -2 12 9 11 10
16 3 11 -8 -4 -13 -1 -13 9 0 9 -3 14 -7 12 -5 -3 -14 1 -21 9 -10 11 -10 14
0 14 7 0 2 6 -12 13 -14 7 -26 23 -28 35 -2 12 -8 20 -13 17 -5 -4 -9 3 -9 14
0 15 -5 19 -17 14 -10 -3 -15 -3 -11 2 4 4 0 14 -8 22 -8 8 -12 19 -8 24 3 5
2 9 -3 8 -19 -3 -33 2 -33 12 0 5 5 7 12 3 7 -4 8 -3 4 4 -4 6 -13 9 -21 5 -9
-3 -15 1 -15 8 0 8 -22 34 -48 59 -25 25 -36 32 -22 15 l25 -30 -26 23 c-14
12 -29 19 -34 15 -4 -5 -5 -3 -2 4 11 18 -3 42 -21 36 -11 -5 -14 -2 -9 10 3
9 3 16 -1 16 -24 -4 -40 4 -45 21 -3 11 -11 20 -19 20 -10 0 -9 -3 2 -10 10
-7 11 -10 2 -10 -7 0 -17 11 -22 25 -5 14 -12 25 -15 25 -4 0 -3 -4 0 -10 3
-6 -1 -7 -10 -4 -10 4 -12 10 -6 18 7 8 2 12 -17 11 -15 0 -26 5 -25 11 1 7
-5 11 -15 10 -11 -1 -16 6 -16 17 1 10 -1 16 -4 13 -3 -4 -17 1 -31 10 l-26
15 24 -20 c13 -12 19 -21 13 -21 -5 0 -20 11 -33 24 -30 29 -70 51 -87 48 -7
-2 -15 4 -18 12 -3 9 -10 14 -14 11 -12 -8 -41 6 -34 16 3 5 -9 9 -26 9 -18 0
-29 4 -25 10 4 6 -7 10 -24 10 -17 0 -31 4 -31 9 0 13 -37 26 -83 29 -10 1
-16 6 -13 11 3 4 -11 7 -30 6 -20 -1 -42 4 -49 12 -9 8 -16 9 -20 3 -3 -5 -11
-10 -17 -10 -7 0 -6 5 1 14 10 12 7 14 -18 10 -20 -3 -31 -1 -31 7 0 8 -5 7
-17 -2 -10 -8 -14 -9 -10 -2 4 6 3 14 -3 18 -5 3 -10 -1 -10 -10 0 -9 -5 -13
-10 -10 -6 4 -8 10 -5 15 3 5 0 12 -6 16 -7 4 -9 3 -5 -4 4 -7 -3 -9 -21 -7
-16 2 -29 4 -30 5 -2 1 -13 3 -25 3 -13 1 -26 6 -30 11 -5 7 -8 2 -8 -9 0 -16
-2 -17 -9 -5 -6 8 -8 17 -6 20 2 3 -12 5 -31 6 -22 0 -30 -2 -22 -7 10 -7 9
-9 -4 -9 -10 0 -18 4 -18 8 0 5 -33 8 -74 7 -41 -1 -72 3 -70 7 3 4 3 8 0 8
-3 0 -7 -4 -11 -9z m900 -239 c-3 -3 -11 0 -18 7 -9 10 -8 11 6 5 10 -3 15 -9
12 -12z m856 -709 c13 -16 12 -17 -3 -4 -17 13 -22 21 -14 21 2 0 10 -8 17
-17z m-1266 -641 c-3 -3 -11 0 -18 7 -9 10 -8 11 6 5 10 -3 15 -9 12 -12z
m176 -435 c-10 -9 -11 -8 -5 6 3 10 9 15 12 12 3 -3 0 -11 -7 -18z"/>
        <path d="M2633 2984 c0 -7 4 -11 9 -8 4 3 8 0 8 -5 0 -6 -6 -11 -12 -11 -9 0
-9 -3 -2 -8 16 -11 25 -42 12 -42 -6 0 -3 -10 8 -22 10 -12 13 -18 7 -14 -9 5
-13 -1 -13 -18 0 -15 7 -26 18 -29 14 -4 14 -5 -3 -6 -14 -1 -16 -4 -8 -9 7
-4 13 -31 14 -60 2 -34 6 -49 13 -45 6 4 6 0 -1 -8 -10 -12 -10 -18 0 -29 6
-7 7 -10 2 -7 -15 8 -11 -43 4 -52 7 -5 10 -19 7 -34 -3 -15 0 -27 6 -27 6 0
6 -6 -2 -15 -10 -12 -10 -15 0 -15 10 0 10 -3 0 -15 -7 -8 -8 -15 -3 -15 5 0
10 -6 10 -12 0 -7 4 -22 9 -32 5 -13 4 -17 -3 -13 -13 8 -11 -19 2 -30 4 -5 5
-1 0 7 -5 8 -4 12 0 7 13 -11 15 -168 2 -160 -6 4 -7 1 -1 -8 11 -16 15 -121
4 -114 -4 2 -7 -2 -7 -10 0 -8 5 -12 10 -8 5 3 3 -5 -5 -18 -8 -13 -14 -31
-14 -39 1 -8 -4 -19 -11 -25 -7 -5 -15 -20 -18 -33 -4 -21 -35 -62 -35 -46 0
4 -7 -1 -16 -12 -8 -10 -13 -13 -9 -7 5 10 0 11 -21 3 -15 -6 -33 -9 -40 -6
-7 3 -15 0 -18 -7 -3 -9 -5 -8 -5 1 -1 7 -5 10 -11 7 -5 -3 -10 -1 -10 6 0 10
-3 10 -12 1 -13 -13 -32 -17 -25 -4 3 4 -1 13 -9 20 -8 7 -14 8 -14 2 0 -5
-10 0 -22 12 -13 13 -22 26 -21 30 2 5 -5 8 -15 8 -9 0 -28 13 -42 30 -18 22
-27 27 -37 18 -11 -8 -12 -7 -7 6 5 12 0 19 -15 23 -18 5 -19 8 -9 21 11 13
11 14 0 8 -8 -5 -21 -1 -33 10 -16 14 -20 15 -17 4 2 -8 -3 -14 -9 -13 -7 2
-12 0 -12 -5 4 -22 -2 -42 -11 -37 -6 4 -7 -1 -3 -11 5 -13 3 -15 -8 -9 -12 8
-12 6 0 -8 9 -12 10 -17 2 -17 -7 0 -9 -5 -5 -12 5 -7 2 -9 -8 -5 -14 5 -15 1
-8 -25 7 -23 6 -27 -3 -19 -10 7 -13 3 -15 -17 -1 -15 -9 -32 -17 -38 -18 -14
-20 -28 -2 -18 7 4 9 3 4 -2 -5 -5 -14 -9 -20 -9 -7 -1 -11 -7 -9 -14 2 -9 -3
-11 -14 -7 -13 5 -14 3 -6 -6 7 -9 6 -16 -3 -25 -7 -6 -15 -9 -18 -7 -3 3 -8
-4 -12 -15 -3 -12 -11 -21 -17 -21 -6 0 -21 -12 -34 -26 -15 -15 -29 -22 -37
-18 -8 5 -7 2 2 -9 12 -15 12 -17 -3 -11 -10 4 -16 1 -16 -7 0 -11 -3 -11 -10
1 -8 13 -10 13 -10 -1 0 -9 -8 -23 -17 -30 -11 -10 -14 -10 -9 -1 4 6 2 12 -3
12 -6 0 -11 -5 -11 -11 0 -6 -7 -8 -16 -5 -8 3 -12 2 -9 -4 3 -6 -1 -10 -10
-10 -10 0 -13 -5 -9 -12 4 -6 3 -8 -3 -5 -5 3 -21 0 -36 -8 -19 -10 -27 -10
-31 -2 -2 7 -5 4 -5 -5 -1 -18 -10 -22 -45 -18 -13 1 -16 -2 -10 -12 6 -10 4
-10 -10 1 -15 12 -17 12 -14 0 2 -8 -4 -13 -14 -13 -10 1 -18 -3 -18 -10 0 -6
-5 -4 -10 4 -8 12 -10 12 -10 1 0 -8 -3 -11 -6 -8 -4 3 -16 1 -28 -5 -11 -6
-32 -12 -46 -14 -36 -3 -36 -3 -20 -14 11 -7 7 -8 -15 -6 -17 2 -33 -2 -37 -8
-6 -8 -11 -7 -18 4 -7 11 -10 11 -10 2 0 -7 -5 -10 -11 -7 -6 4 -16 -1 -23
-11 -10 -13 -15 -14 -21 -4 -6 9 -4 11 5 5 9 -6 11 -4 5 5 -6 10 -11 9 -21 -5
-12 -16 -14 -17 -20 -2 -3 9 -11 14 -16 11 -6 -4 -5 -10 3 -16 10 -7 6 -8 -13
-5 -17 2 -28 0 -28 -7 0 -6 -4 -5 -9 3 -6 9 -11 10 -15 2 -10 -15 -29 -14 -20
2 4 6 -3 3 -16 -8 -13 -11 -21 -15 -17 -9 3 6 0 11 -8 11 -8 0 -12 -4 -9 -8 2
-4 -4 -8 -13 -8 -69 -2 -93 -5 -93 -13 0 -5 -6 -6 -12 -1 -22 13 -39 12 -45
-3 -3 -8 -9 -11 -14 -8 -5 3 -6 11 -2 17 4 7 -1 6 -10 -2 -13 -10 -15 -17 -6
-27 6 -8 8 -14 4 -14 -4 0 6 -14 24 -30 17 -17 31 -35 31 -41 0 -5 4 -8 9 -4
6 3 8 -3 6 -14 -3 -14 1 -18 11 -14 8 3 14 2 13 -3 -4 -21 2 -28 11 -14 8 12
10 11 10 -7 0 -13 5 -23 11 -23 5 0 7 -5 4 -10 -4 -6 -3 -9 2 -8 14 4 53 -26
53 -40 0 -9 6 -12 15 -8 8 3 15 1 15 -4 0 -6 -6 -10 -12 -10 -7 0 -5 -5 5 -11
9 -5 21 -8 26 -5 5 3 8 -2 7 -11 0 -9 9 -22 21 -28 13 -7 20 -15 16 -18 -3 -4
1 -7 11 -7 9 0 19 -7 22 -15 4 -8 9 -13 14 -10 4 2 13 -6 20 -20 8 -15 19 -22
32 -20 15 3 19 0 15 -14 -5 -20 22 -25 36 -7 5 6 5 0 2 -13 -5 -15 -3 -21 3
-17 13 8 43 -4 37 -14 -3 -5 8 -14 24 -21 16 -7 27 -18 23 -24 -3 -5 3 -3 13
5 11 9 16 10 11 3 -4 -8 -1 -13 9 -13 9 0 14 -4 10 -9 -3 -6 4 -8 15 -6 11 2
23 -2 27 -10 5 -7 15 -15 23 -17 20 -4 39 -22 33 -30 -2 -5 7 -4 21 2 14 5 27
7 27 5 1 -3 2 -9 3 -15 0 -5 6 -10 11 -11 6 0 16 -6 24 -12 12 -10 13 -9 7 1
-7 11 -4 12 13 3 11 -7 21 -14 21 -17 0 -3 -5 -2 -12 2 -6 4 -8 3 -5 -4 8 -11
25 -11 45 2 9 5 15 1 19 -13 3 -11 10 -18 15 -15 6 4 14 0 19 -7 7 -12 9 -12
9 0 0 11 4 9 15 -5 15 -19 15 -19 9 1 -4 17 -3 16 8 -3 11 -17 16 -20 26 -10
9 9 12 9 12 0 0 -7 11 -12 25 -12 14 0 25 -5 25 -12 0 -6 3 -9 6 -6 3 4 18 2
34 -2 20 -6 30 -5 34 3 3 8 5 8 5 -1 1 -7 6 -10 11 -7 10 6 15 -8 11 -30 -1
-5 5 -2 15 7 16 16 18 16 31 0 8 -9 12 -12 9 -5 -4 7 1 11 14 10 11 -1 20 -4
20 -8 0 -9 27 -6 36 4 4 3 15 2 26 -4 10 -5 23 -7 28 -4 5 3 12 0 16 -6 5 -8
3 -9 -6 -4 -8 5 -11 4 -6 -3 4 -6 13 -9 21 -6 8 4 13 10 10 14 -3 5 4 6 15 3
11 -3 18 -8 16 -12 -2 -3 18 -6 44 -6 27 0 46 4 43 9 -4 5 0 6 8 1 20 -13 49
-13 49 -1 0 6 4 5 9 -3 8 -12 12 -12 24 -2 9 7 18 8 21 3 6 -10 48 -8 65 2 5
3 12 0 15 -6 5 -10 7 -10 12 0 3 6 12 12 20 12 9 0 12 -5 8 -11 -4 -7 -1 -10
7 -7 8 3 13 10 12 15 -1 6 10 8 24 5 16 -3 24 -1 20 5 -3 5 1 10 9 10 8 0 13
-6 10 -14 -4 -9 1 -9 19 3 18 12 25 13 25 4 0 -10 3 -10 15 0 8 7 15 9 15 6 0
-4 10 -2 21 5 12 6 19 7 16 2 -4 -5 0 -10 8 -10 8 0 12 4 9 9 -3 4 0 8 6 8 6
0 8 5 4 12 -4 7 -3 8 5 4 6 -4 8 -13 4 -19 -4 -7 0 -6 10 2 9 7 17 10 17 5 0
-5 5 -2 10 6 8 13 10 13 10 1 0 -11 4 -10 16 5 8 10 13 13 9 6 -9 -18 6 -15
22 6 8 9 12 11 8 5 -3 -7 -1 -13 4 -13 6 0 11 5 11 11 0 5 5 7 11 4 5 -4 19 1
30 11 19 17 20 17 14 -2 -6 -18 -6 -18 8 -2 8 10 17 15 20 11 4 -3 7 0 7 8 0
11 2 11 10 -1 7 -12 10 -12 10 -1 0 8 6 11 16 7 13 -5 14 -4 6 7 -9 11 -7 13
11 12 12 -1 28 3 36 9 8 6 16 10 18 9 1 -2 6 -3 11 -3 4 0 0 5 -8 10 -11 8 -8
9 13 4 19 -4 27 -2 27 7 0 11 3 11 10 -1 5 -8 10 -12 11 -7 1 4 3 12 4 17 1 6
3 13 4 18 1 4 6 0 11 -8 7 -12 10 -12 10 -1 0 8 6 11 16 7 10 -4 13 -2 8 6 -5
7 -2 9 8 6 8 -4 22 2 31 13 9 10 24 19 32 19 9 0 14 4 11 9 -4 5 7 12 24 16
16 4 30 11 30 16 0 6 -5 7 -12 3 -7 -4 -8 -3 -4 5 6 9 11 9 22 0 11 -9 14 -9
14 0 0 7 5 9 10 6 6 -4 9 -1 8 7 -2 7 3 12 10 10 6 -1 12 5 12 14 0 9 6 14 12
12 7 -3 21 6 32 19 10 13 25 22 32 19 8 -3 14 1 14 10 0 10 6 14 14 11 10 -4
14 0 11 13 -2 12 1 17 9 14 7 -3 18 5 25 18 6 13 9 15 6 5 -3 -10 -1 -15 5
-12 6 3 10 13 10 21 0 8 5 14 11 14 5 0 7 -6 3 -13 -5 -8 -2 -7 9 2 13 10 14
17 6 27 -8 10 -6 12 9 9 13 -2 19 2 18 13 -1 11 6 17 21 16 15 0 20 3 14 10
-8 10 41 67 64 74 6 1 9 11 9 21 -1 14 4 18 15 14 9 -4 13 -3 9 1 -3 4 2 16
13 27 11 11 17 24 14 29 -3 5 0 12 6 16 8 4 9 3 5 -4 -4 -7 -3 -12 2 -12 9 0
27 47 24 62 -1 4 5 5 14 1 8 -3 14 -2 13 3 -6 26 59 123 73 109 2 -3 3 9 2 26
-2 22 2 29 12 25 9 -4 13 2 11 17 -1 17 3 21 18 20 11 -1 14 0 8 3 -15 7 -17
34 -3 34 6 0 10 7 10 15 0 8 6 15 13 15 8 0 7 4 -3 10 -13 9 -13 10 0 11 8 1
19 1 24 0 5 -1 4 5 -4 13 -9 12 -10 16 0 16 7 0 10 7 6 16 -3 8 -2 13 3 10 5
-3 11 1 15 9 3 8 1 17 -4 20 -13 8 -13 25 1 25 5 0 7 -6 4 -12 -4 -7 0 -5 9 6
12 14 13 24 5 39 -7 11 -7 17 -1 13 10 -6 25 29 22 53 -1 7 3 10 9 6 14 -8 14
1 0 26 -9 18 -8 19 9 10 18 -10 19 -8 12 24 -5 23 -4 33 3 28 6 -4 8 4 3 22
-6 22 -4 26 8 22 11 -4 14 0 10 16 -2 11 2 25 9 29 9 6 9 8 -2 8 -11 0 -11 3
0 17 9 11 10 14 2 9 -9 -5 -11 -2 -7 8 3 8 13 12 22 9 13 -4 14 -3 3 5 -10 7
-10 14 -2 30 13 24 14 35 3 28 -4 -2 -8 4 -8 14 0 10 4 17 8 14 3 -2 7 14 6
36 0 22 6 48 13 57 8 9 9 14 3 10 -7 -4 -14 0 -17 8 -4 9 -1 12 8 8 11 -4 14
2 11 26 -2 17 0 31 5 31 4 0 4 14 -1 30 -5 17 -5 30 0 30 5 0 7 7 4 15 -4 8
-10 15 -16 15 -5 0 -6 -6 -2 -12 6 -10 4 -10 -8 0 -13 10 -17 10 -22 -4 -4 -9
-13 -14 -21 -10 -9 3 -15 0 -15 -9 0 -9 -6 -12 -17 -8 -10 4 -14 2 -10 -4 4
-6 -3 -9 -18 -7 -14 1 -28 -3 -32 -8 -3 -6 -2 -8 4 -5 5 3 10 0 10 -8 0 -10
-5 -11 -19 -4 -13 7 -18 6 -18 -2 0 -7 -3 -9 -7 -6 -3 4 -12 -1 -20 -11 -8 -9
-12 -11 -8 -5 4 9 1 11 -9 7 -9 -3 -16 -11 -16 -16 0 -6 -8 -4 -17 3 -11 10
-14 10 -9 2 4 -8 2 -13 -4 -13 -6 0 -8 -4 -5 -10 3 -6 -1 -7 -10 -4 -9 4 -22
-1 -31 -12 -14 -19 -14 -19 -7 0 4 13 3 17 -5 12 -7 -4 -12 -15 -13 -24 0 -9
-3 -12 -5 -5 -4 8 -13 9 -35 1 -16 -5 -27 -13 -24 -17 2 -4 -2 -8 -10 -8 -8 0
-15 5 -15 11 0 6 -4 5 -9 -3 -5 -8 -16 -11 -26 -8 -9 4 -14 3 -10 -3 3 -6 -3
-10 -15 -10 -12 0 -19 -3 -16 -8 2 -4 -13 -6 -35 -5 -27 1 -37 -2 -33 -9 5 -7
2 -8 -7 -2 -20 12 -39 14 -39 2 0 -5 -7 -2 -16 6 -19 19 -28 21 -18 4 6 -10 5
-10 -8 -1 -8 7 -19 9 -23 5 -5 -4 -5 -1 -1 6 7 11 -6 17 -28 13 -5 -1 -3 5 4
14 11 13 10 15 -4 9 -9 -3 -16 -1 -16 6 0 6 -4 9 -9 5 -5 -3 -12 -1 -16 5 -4
6 -11 8 -16 5 -8 -5 -13 7 -11 27 1 3 -5 9 -14 12 -8 3 -12 1 -9 -4 3 -6 -1
-7 -9 -4 -9 3 -13 10 -10 15 5 8 -10 13 -29 10 -5 -1 -6 3 -2 9 3 5 1 10 -5
10 -6 0 -9 4 -5 9 3 6 -4 8 -15 6 -18 -3 -25 5 -21 28 1 4 -7 3 -18 -2 -10 -6
-20 -9 -22 -6 -2 2 -5 -7 -5 -20 -1 -13 3 -22 10 -21 6 2 8 1 4 -1 -5 -3 -8
-11 -8 -19 0 -10 -5 -12 -12 -8 -10 6 -10 4 -2 -7 12 -15 13 -47 0 -67 -4 -6
-3 -12 3 -12 5 0 8 -21 6 -50 -2 -27 1 -53 6 -56 6 -3 5 -11 -2 -20 -9 -11 -8
-14 2 -14 9 0 10 -3 4 -8 -5 -4 -11 -18 -13 -32 -2 -22 -1 -23 10 -7 12 16 13
14 13 -15 0 -18 -4 -36 -10 -40 -6 -5 -6 -8 1 -8 7 0 14 -9 17 -20 3 -11 1
-18 -3 -15 -5 3 -11 1 -15 -5 -3 -5 -1 -10 6 -10 7 0 9 -3 6 -6 -3 -4 -2 -15
4 -25 7 -14 6 -19 -2 -19 -7 0 -8 -5 -3 -12 11 -15 11 -38 1 -55 -4 -6 -2 -15
4 -19 8 -4 9 -3 5 4 -4 7 -2 12 3 12 13 0 14 -13 4 -24 -13 -12 -10 -30 7 -44
13 -12 12 -13 -5 -8 -20 6 -20 6 -1 -9 12 -9 15 -15 7 -15 -10 0 -11 -3 -3
-13 7 -8 7 -18 2 -27 -5 -8 -6 -18 -3 -23 11 -18 9 -67 -4 -71 -7 -3 -10 -12
-7 -21 4 -9 1 -15 -7 -15 -11 0 -11 -3 1 -11 12 -8 10 -10 -10 -5 -21 4 -23 3
-9 -7 14 -10 11 -14 -17 -28 -19 -9 -31 -13 -29 -9 3 5 -2 10 -10 13 -10 4
-12 1 -9 -11 5 -15 4 -15 -8 -1 -7 9 -19 14 -27 11 -8 -2 -11 -1 -8 4 2 5 -1
14 -8 21 -11 10 -15 10 -18 0 -3 -7 -6 -2 -6 11 -1 12 -7 22 -16 22 -8 0 -12
6 -9 14 3 8 -4 24 -15 35 -23 23 -28 36 -8 25 9 -6 9 -5 0 7 -6 8 -11 16 -12
19 0 19 -16 40 -29 40 -13 0 -12 3 4 15 19 15 19 15 -1 8 -18 -6 -19 -5 -5 12
9 11 10 16 3 11 -7 -4 -14 -2 -14 3 -1 6 -2 17 -3 24 -1 6 -7 11 -13 10 -7 -2
-10 6 -8 17 2 11 -1 20 -7 20 -7 0 -6 5 1 14 9 11 9 16 0 22 -8 4 -9 3 -5 -4
4 -7 3 -12 -2 -12 -16 0 -21 27 -9 40 9 10 9 11 -2 5 -11 -6 -13 -3 -8 14 5
19 3 20 -10 9 -14 -11 -16 -10 -11 14 3 17 1 25 -5 21 -6 -4 -8 5 -4 23 4 25
4 27 -8 11 -11 -16 -13 -16 -19 -2 -3 9 -2 13 4 10 5 -3 8 4 7 15 -1 18 -9 24
-28 22 -3 -1 -5 13 -4 29 1 18 -4 33 -12 36 -7 3 -13 9 -13 15 0 5 6 6 13 3 6
-4 5 -1 -4 7 -9 7 -14 19 -11 27 3 8 0 11 -6 7 -5 -3 -13 1 -16 10 -3 8 -2 13
2 10 5 -3 9 1 9 9 0 8 -4 12 -9 9 -5 -3 -15 10 -22 28 -11 25 -11 35 -3 40 12
8 -5 13 -27 9 -5 -1 -3 6 5 15 8 10 9 15 2 11 -6 -4 -14 -3 -18 3 -3 5 0 10 7
10 7 0 3 7 -9 15 -15 10 -20 23 -18 45 2 19 -3 34 -10 37 -8 2 -16 11 -19 19
-4 10 -2 13 7 8 9 -6 9 -5 0 8 -7 8 -9 19 -5 23 4 5 1 4 -7 0 -11 -6 -13 -4
-8 9 4 9 3 15 -2 12 -5 -3 -12 2 -16 12 -13 29 -14 42 -2 36 7 -3 3 2 -8 11
-11 9 -19 23 -17 31 2 8 -2 14 -8 14 -5 0 -9 3 -9 8 3 18 -2 32 -17 46 -9 9
-11 16 -4 16 6 0 8 5 5 10 -4 6 -10 8 -15 5 -4 -3 -7 3 -6 13 0 9 -5 16 -12
14 -8 -1 -11 2 -7 8 3 6 11 8 16 5 5 -4 9 -1 9 4 0 6 -6 11 -14 11 -8 0 -12 9
-11 25 2 14 -1 23 -6 19 -5 -3 -6 -10 -3 -16 4 -6 2 -8 -4 -5 -5 4 -8 17 -4
29 3 15 2 19 -7 14 -6 -4 -11 -4 -10 1 4 26 -2 44 -13 37 -9 -5 -9 -3 1 9 11
14 11 18 -4 23 -12 5 -13 9 -5 14 7 5 3 9 -12 12 -16 3 -25 0 -25 -8z m77
-958 c0 -2 -7 -9 -15 -16 -13 -11 -14 -10 -9 4 5 14 24 23 24 12z m475 -246
c3 -5 1 -10 -4 -10 -6 0 -11 5 -11 10 0 6 2 10 4 10 3 0 8 -4 11 -10z m-2100
-309 c3 -5 2 -12 -3 -15 -5 -3 -9 1 -9 9 0 17 3 19 12 6z m2789 -157 c3 -8 2
-12 -4 -9 -6 3 -10 10 -10 16 0 14 7 11 14 -7z"/>
        <path d="M2420 2860 c0 -5 5 -10 11 -10 5 0 7 5 4 10 -3 6 -8 10 -11 10 -2 0
-4 -4 -4 -10z"/>
        <path d="M3975 2549 c-4 -6 -5 -12 -2 -15 2 -3 7 2 10 11 7 17 1 20 -8 4z"/>
        <path d="M2895 2440 c3 -5 11 -10 16 -10 6 0 7 5 4 10 -3 6 -11 10 -16 10 -6
0 -7 -4 -4 -10z"/>
        <path d="M1690 1799 c0 -5 5 -7 10 -4 6 3 10 8 10 11 0 2 -4 4 -10 4 -5 0 -10
-5 -10 -11z"/>
        <path d="M4030 1520 c-6 -11 -8 -20 -6 -20 3 0 10 9 16 20 6 11 8 20 6 20 -3
0 -10 -9 -16 -20z"/>
        <path d="M1190 1241 c0 -5 5 -13 10 -16 6 -3 10 -2 10 4 0 5 -4 13 -10 16 -5
3 -10 2 -10 -4z"/>
    </g>
</svg>
