<?xml version="1.0" encoding="UTF-8"?>
<svg width="1134px" height="244px" viewBox="0 0 1134 244" version="1.1" xmlns="http://www.w3.org/2000/svg" xmlns:xlink="http://www.w3.org/1999/xlink">
    <!-- Generator: Sketch 52.5 (67469) - http://www.bohemiancoding.com/sketch -->
    <title>Artboard Copy 33</title>
    <desc>Created with Sketch.</desc>
    <g id="Artboard-Copy-33" stroke="none" stroke-width="1" fill="none" fill-rule="evenodd">
        <rect id="Rectangle" fill="#D4F2F2" fill-rule="nonzero" x="18" y="17" width="304" height="46" rx="11"></rect>
        <rect id="Rectangle-Copy" fill="#D4F2F2" fill-rule="nonzero" x="18" y="97" width="304" height="46" rx="11"></rect>
        <rect id="Rectangle-Copy-2" fill="#D4F2F2" fill-rule="nonzero" x="18" y="185" width="304" height="46" rx="11"></rect>
        <rect id="Rectangle-Copy-5" fill="#D4F2F2" fill-rule="nonzero" x="418" y="17" width="304" height="46" rx="11"></rect>
        <rect id="Rectangle-Copy-4" fill="#D4F2F2" fill-rule="nonzero" x="418" y="97" width="304" height="46" rx="11"></rect>
        <rect id="Rectangle-Copy-3" fill="#D4F2F2" fill-rule="nonzero" x="418" y="185" width="304" height="46" rx="11"></rect>
        <rect id="Rectangle-Copy-8" fill="#D4F2F2" fill-rule="nonzero" x="808" y="17" width="304" height="46" rx="11"></rect>
        <rect id="Rectangle-Copy-7" fill="#D4F2F2" fill-rule="nonzero" x="808" y="97" width="304" height="46" rx="11"></rect>
        <rect id="Rectangle-Copy-6" fill="#D4F2F2" fill-rule="nonzero" x="808" y="185" width="304" height="46" rx="11"></rect>
        <text id="English/Arabic-inter" font-family="AppleSDGothicNeo-Regular, Apple SD Gothic Neo" font-size="21" font-weight="normal" fill="#000000">
            <tspan x="480" y="216">English/Arabic interface</tspan>
        </text>
        <text id="Treatments-payment-p" font-family="AppleSDGothicNeo-Regular, Apple SD Gothic Neo" font-size="21" font-weight="normal" fill="#000000">
            <tspan x="75" y="128">Treatments payment plans</tspan>
        </text>
        <text id="Manual-SMS" font-family="AppleSDGothicNeo-Regular, Apple SD Gothic Neo" font-size="21" font-weight="normal" fill="#000000">
            <tspan x="868" y="130">Manual SMS</tspan>
        </text>
        <text id="Printing-with-logo" font-family="AppleSDGothicNeo-Regular, Apple SD Gothic Neo" font-size="21" font-weight="normal" fill="#000000">
            <tspan x="868" y="48">Printing with logo</tspan>
        </text>
        <text id="Autocomplete-in-EMR" font-family="AppleSDGothicNeo-Regular, Apple SD Gothic Neo" font-size="21" font-weight="normal" fill="#000000">
            <tspan x="480" y="48">Autocomplete in EMR</tspan>
        </text>
        <text id="Multiple-currencies" font-family="AppleSDGothicNeo-Regular, Apple SD Gothic Neo" font-size="21" font-weight="normal" fill="#000000">
            <tspan x="75" y="48">Multiple currencies</tspan>
        </text>
        <g id="Group" transform="translate(18.000000, 17.000000)" fill-rule="nonzero">
            <path d="M13,0 L43,0 L43,46 L13,46 C5.82029825,46 8.79259876e-16,40.1797017 0,33 L0,13 C-8.79259876e-16,5.82029825 5.82029825,-4.57467025e-16 13,-1.77635684e-15 Z" id="Rectangle" fill="#33CCCC"></path>
            <g id="Group-Copy-3" transform="translate(12.000000, 17.000000)" fill="#FFFFFF">
                <path d="M6.50562457,12.3057009 L18.7993177,0.35377607 C19.294987,-0.128113488 20.0867504,-0.116216606 20.5677706,0.3803485 C20.60923,0.423147758 20.6475861,0.468858055 20.6825462,0.517130709 C21.1689564,1.18876228 21.0887798,2.11641931 20.4943754,2.69429907 L8.20068228,14.6462239 C7.70501297,15.1281135 6.91324965,15.1162166 6.43222941,14.6196515 C6.39076998,14.5768522 6.35241391,14.5311419 6.31745381,14.4828693 C5.8310436,13.8112377 5.91122019,12.8835807 6.50562457,12.3057009 Z" id="Rectangle"></path>
                <path d="M2.35582409,5.49127148 L7.66757906,12.4932028 C8.16236539,13.1454279 8.09857839,14.0587118 7.51783505,14.6371942 C7.03403255,15.1191132 6.24753223,15.1211953 5.76113741,14.6418448 C5.71898527,14.6003032 5.67989762,14.5558167 5.64417591,14.5087285 L0.33242094,7.5067972 C-0.162365393,6.8545721 -0.0985783866,5.9412882 0.482164952,5.36280579 C0.965967446,4.88088682 1.75246777,4.87880466 2.23886259,5.35815515 C2.28101473,5.39969682 2.32010238,5.44418328 2.35582409,5.49127148 Z" id="Rectangle-Copy-3"></path>
            </g>
        </g>
        <g id="Group-Copy" transform="translate(18.000000, 97.000000)" fill-rule="nonzero">
            <path d="M13,0 L43,0 L43,46 L13,46 C5.82029825,46 8.79259876e-16,40.1797017 0,33 L0,13 C-8.79259876e-16,5.82029825 5.82029825,-4.57467025e-16 13,-1.77635684e-15 Z" id="Rectangle" fill="#33CCCC"></path>
            <g id="Group-Copy-3" transform="translate(12.000000, 17.000000)" fill="#FFFFFF">
                <path d="M6.50562457,12.3057009 L18.7993177,0.35377607 C19.294987,-0.128113488 20.0867504,-0.116216606 20.5677706,0.3803485 C20.60923,0.423147758 20.6475861,0.468858055 20.6825462,0.517130709 C21.1689564,1.18876228 21.0887798,2.11641931 20.4943754,2.69429907 L8.20068228,14.6462239 C7.70501297,15.1281135 6.91324965,15.1162166 6.43222941,14.6196515 C6.39076998,14.5768522 6.35241391,14.5311419 6.31745381,14.4828693 C5.8310436,13.8112377 5.91122019,12.8835807 6.50562457,12.3057009 Z" id="Rectangle"></path>
                <path d="M2.35582409,5.49127148 L7.66757906,12.4932028 C8.16236539,13.1454279 8.09857839,14.0587118 7.51783505,14.6371942 C7.03403255,15.1191132 6.24753223,15.1211953 5.76113741,14.6418448 C5.71898527,14.6003032 5.67989762,14.5558167 5.64417591,14.5087285 L0.33242094,7.5067972 C-0.162365393,6.8545721 -0.0985783866,5.9412882 0.482164952,5.36280579 C0.965967446,4.88088682 1.75246777,4.87880466 2.23886259,5.35815515 C2.28101473,5.39969682 2.32010238,5.44418328 2.35582409,5.49127148 Z" id="Rectangle-Copy-3"></path>
            </g>
        </g>
        <g id="Group-Copy-2" transform="translate(18.000000, 185.000000)" fill-rule="nonzero">
            <path d="M13,0 L43,0 L43,46 L13,46 C5.82029825,46 8.79259876e-16,40.1797017 0,33 L0,13 C-8.79259876e-16,5.82029825 5.82029825,-4.57467025e-16 13,-1.77635684e-15 Z" id="Rectangle" fill="#33CCCC"></path>
            <g id="Group-Copy-3" transform="translate(12.000000, 17.000000)" fill="#FFFFFF">
                <path d="M6.50562457,12.3057009 L18.7993177,0.35377607 C19.294987,-0.128113488 20.0867504,-0.116216606 20.5677706,0.3803485 C20.60923,0.423147758 20.6475861,0.468858055 20.6825462,0.517130709 C21.1689564,1.18876228 21.0887798,2.11641931 20.4943754,2.69429907 L8.20068228,14.6462239 C7.70501297,15.1281135 6.91324965,15.1162166 6.43222941,14.6196515 C6.39076998,14.5768522 6.35241391,14.5311419 6.31745381,14.4828693 C5.8310436,13.8112377 5.91122019,12.8835807 6.50562457,12.3057009 Z" id="Rectangle"></path>
                <path d="M2.35582409,5.49127148 L7.66757906,12.4932028 C8.16236539,13.1454279 8.09857839,14.0587118 7.51783505,14.6371942 C7.03403255,15.1191132 6.24753223,15.1211953 5.76113741,14.6418448 C5.71898527,14.6003032 5.67989762,14.5558167 5.64417591,14.5087285 L0.33242094,7.5067972 C-0.162365393,6.8545721 -0.0985783866,5.9412882 0.482164952,5.36280579 C0.965967446,4.88088682 1.75246777,4.87880466 2.23886259,5.35815515 C2.28101473,5.39969682 2.32010238,5.44418328 2.35582409,5.49127148 Z" id="Rectangle-Copy-3"></path>
            </g>
        </g>
        <g id="Group-Copy-6" transform="translate(417.000000, 17.000000)" fill-rule="nonzero">
            <path d="M13,0 L43,0 L43,46 L13,46 C5.82029825,46 8.79259876e-16,40.1797017 0,33 L0,13 C-8.79259876e-16,5.82029825 5.82029825,-4.57467025e-16 13,-1.77635684e-15 Z" id="Rectangle" fill="#33CCCC"></path>
            <g id="Group-Copy-3" transform="translate(12.000000, 17.000000)" fill="#FFFFFF">
                <path d="M6.50562457,12.3057009 L18.7993177,0.35377607 C19.294987,-0.128113488 20.0867504,-0.116216606 20.5677706,0.3803485 C20.60923,0.423147758 20.6475861,0.468858055 20.6825462,0.517130709 C21.1689564,1.18876228 21.0887798,2.11641931 20.4943754,2.69429907 L8.20068228,14.6462239 C7.70501297,15.1281135 6.91324965,15.1162166 6.43222941,14.6196515 C6.39076998,14.5768522 6.35241391,14.5311419 6.31745381,14.4828693 C5.8310436,13.8112377 5.91122019,12.8835807 6.50562457,12.3057009 Z" id="Rectangle"></path>
                <path d="M2.35582409,5.49127148 L7.66757906,12.4932028 C8.16236539,13.1454279 8.09857839,14.0587118 7.51783505,14.6371942 C7.03403255,15.1191132 6.24753223,15.1211953 5.76113741,14.6418448 C5.71898527,14.6003032 5.67989762,14.5558167 5.64417591,14.5087285 L0.33242094,7.5067972 C-0.162365393,6.8545721 -0.0985783866,5.9412882 0.482164952,5.36280579 C0.965967446,4.88088682 1.75246777,4.87880466 2.23886259,5.35815515 C2.28101473,5.39969682 2.32010238,5.44418328 2.35582409,5.49127148 Z" id="Rectangle-Copy-3"></path>
            </g>
        </g>
        <g id="Group-Copy-5" transform="translate(417.000000, 97.000000)" fill-rule="nonzero">
            <path d="M13,0 L43,0 L43,46 L13,46 C5.82029825,46 8.79259876e-16,40.1797017 0,33 L0,13 C-8.79259876e-16,5.82029825 5.82029825,-4.57467025e-16 13,-1.77635684e-15 Z" id="Rectangle" fill="#33CCCC"></path>
            <g id="Group-Copy-3" transform="translate(12.000000, 17.000000)" fill="#FFFFFF">
                <path d="M6.50562457,12.3057009 L18.7993177,0.35377607 C19.294987,-0.128113488 20.0867504,-0.116216606 20.5677706,0.3803485 C20.60923,0.423147758 20.6475861,0.468858055 20.6825462,0.517130709 C21.1689564,1.18876228 21.0887798,2.11641931 20.4943754,2.69429907 L8.20068228,14.6462239 C7.70501297,15.1281135 6.91324965,15.1162166 6.43222941,14.6196515 C6.39076998,14.5768522 6.35241391,14.5311419 6.31745381,14.4828693 C5.8310436,13.8112377 5.91122019,12.8835807 6.50562457,12.3057009 Z" id="Rectangle"></path>
                <path d="M2.35582409,5.49127148 L7.66757906,12.4932028 C8.16236539,13.1454279 8.09857839,14.0587118 7.51783505,14.6371942 C7.03403255,15.1191132 6.24753223,15.1211953 5.76113741,14.6418448 C5.71898527,14.6003032 5.67989762,14.5558167 5.64417591,14.5087285 L0.33242094,7.5067972 C-0.162365393,6.8545721 -0.0985783866,5.9412882 0.482164952,5.36280579 C0.965967446,4.88088682 1.75246777,4.87880466 2.23886259,5.35815515 C2.28101473,5.39969682 2.32010238,5.44418328 2.35582409,5.49127148 Z" id="Rectangle-Copy-3"></path>
            </g>
        </g>
        <g id="Group-Copy-4" transform="translate(417.000000, 185.000000)" fill-rule="nonzero">
            <path d="M13,0 L43,0 L43,46 L13,46 C5.82029825,46 8.79259876e-16,40.1797017 0,33 L0,13 C-8.79259876e-16,5.82029825 5.82029825,-4.57467025e-16 13,-1.77635684e-15 Z" id="Rectangle" fill="#33CCCC"></path>
            <g id="Group-Copy-3" transform="translate(12.000000, 17.000000)" fill="#FFFFFF">
                <path d="M6.50562457,12.3057009 L18.7993177,0.35377607 C19.294987,-0.128113488 20.0867504,-0.116216606 20.5677706,0.3803485 C20.60923,0.423147758 20.6475861,0.468858055 20.6825462,0.517130709 C21.1689564,1.18876228 21.0887798,2.11641931 20.4943754,2.69429907 L8.20068228,14.6462239 C7.70501297,15.1281135 6.91324965,15.1162166 6.43222941,14.6196515 C6.39076998,14.5768522 6.35241391,14.5311419 6.31745381,14.4828693 C5.8310436,13.8112377 5.91122019,12.8835807 6.50562457,12.3057009 Z" id="Rectangle"></path>
                <path d="M2.35582409,5.49127148 L7.66757906,12.4932028 C8.16236539,13.1454279 8.09857839,14.0587118 7.51783505,14.6371942 C7.03403255,15.1191132 6.24753223,15.1211953 5.76113741,14.6418448 C5.71898527,14.6003032 5.67989762,14.5558167 5.64417591,14.5087285 L0.33242094,7.5067972 C-0.162365393,6.8545721 -0.0985783866,5.9412882 0.482164952,5.36280579 C0.965967446,4.88088682 1.75246777,4.87880466 2.23886259,5.35815515 C2.28101473,5.39969682 2.32010238,5.44418328 2.35582409,5.49127148 Z" id="Rectangle-Copy-3"></path>
            </g>
        </g>
        <g id="Group-Copy-9" transform="translate(807.000000, 17.000000)" fill-rule="nonzero">
            <path d="M13,0 L43,0 L43,46 L13,46 C5.82029825,46 8.79259876e-16,40.1797017 0,33 L0,13 C-8.79259876e-16,5.82029825 5.82029825,-4.57467025e-16 13,-1.77635684e-15 Z" id="Rectangle" fill="#33CCCC"></path>
            <g id="Group-Copy-3" transform="translate(12.000000, 17.000000)" fill="#FFFFFF">
                <path d="M6.50562457,12.3057009 L18.7993177,0.35377607 C19.294987,-0.128113488 20.0867504,-0.116216606 20.5677706,0.3803485 C20.60923,0.423147758 20.6475861,0.468858055 20.6825462,0.517130709 C21.1689564,1.18876228 21.0887798,2.11641931 20.4943754,2.69429907 L8.20068228,14.6462239 C7.70501297,15.1281135 6.91324965,15.1162166 6.43222941,14.6196515 C6.39076998,14.5768522 6.35241391,14.5311419 6.31745381,14.4828693 C5.8310436,13.8112377 5.91122019,12.8835807 6.50562457,12.3057009 Z" id="Rectangle"></path>
                <path d="M2.35582409,5.49127148 L7.66757906,12.4932028 C8.16236539,13.1454279 8.09857839,14.0587118 7.51783505,14.6371942 C7.03403255,15.1191132 6.24753223,15.1211953 5.76113741,14.6418448 C5.71898527,14.6003032 5.67989762,14.5558167 5.64417591,14.5087285 L0.33242094,7.5067972 C-0.162365393,6.8545721 -0.0985783866,5.9412882 0.482164952,5.36280579 C0.965967446,4.88088682 1.75246777,4.87880466 2.23886259,5.35815515 C2.28101473,5.39969682 2.32010238,5.44418328 2.35582409,5.49127148 Z" id="Rectangle-Copy-3"></path>
            </g>
        </g>
        <g id="Group-Copy-8" transform="translate(807.000000, 97.000000)" fill-rule="nonzero">
            <path d="M13,0 L43,0 L43,46 L13,46 C5.82029825,46 8.79259876e-16,40.1797017 0,33 L0,13 C-8.79259876e-16,5.82029825 5.82029825,-4.57467025e-16 13,-1.77635684e-15 Z" id="Rectangle" fill="#33CCCC"></path>
            <g id="Group-Copy-3" transform="translate(12.000000, 17.000000)" fill="#FFFFFF">
                <path d="M6.50562457,12.3057009 L18.7993177,0.35377607 C19.294987,-0.128113488 20.0867504,-0.116216606 20.5677706,0.3803485 C20.60923,0.423147758 20.6475861,0.468858055 20.6825462,0.517130709 C21.1689564,1.18876228 21.0887798,2.11641931 20.4943754,2.69429907 L8.20068228,14.6462239 C7.70501297,15.1281135 6.91324965,15.1162166 6.43222941,14.6196515 C6.39076998,14.5768522 6.35241391,14.5311419 6.31745381,14.4828693 C5.8310436,13.8112377 5.91122019,12.8835807 6.50562457,12.3057009 Z" id="Rectangle"></path>
                <path d="M2.35582409,5.49127148 L7.66757906,12.4932028 C8.16236539,13.1454279 8.09857839,14.0587118 7.51783505,14.6371942 C7.03403255,15.1191132 6.24753223,15.1211953 5.76113741,14.6418448 C5.71898527,14.6003032 5.67989762,14.5558167 5.64417591,14.5087285 L0.33242094,7.5067972 C-0.162365393,6.8545721 -0.0985783866,5.9412882 0.482164952,5.36280579 C0.965967446,4.88088682 1.75246777,4.87880466 2.23886259,5.35815515 C2.28101473,5.39969682 2.32010238,5.44418328 2.35582409,5.49127148 Z" id="Rectangle-Copy-3"></path>
            </g>
        </g>
        <g id="Group-Copy-7" transform="translate(807.000000, 185.000000)" fill-rule="nonzero">
            <path d="M13,0 L43,0 L43,46 L13,46 C5.82029825,46 8.79259876e-16,40.1797017 0,33 L0,13 C-8.79259876e-16,5.82029825 5.82029825,-4.57467025e-16 13,-1.77635684e-15 Z" id="Rectangle" fill="#33CCCC"></path>
            <g id="Group-Copy-3" transform="translate(12.000000, 17.000000)" fill="#FFFFFF">
                <path d="M6.50562457,12.3057009 L18.7993177,0.35377607 C19.294987,-0.128113488 20.0867504,-0.116216606 20.5677706,0.3803485 C20.60923,0.423147758 20.6475861,0.468858055 20.6825462,0.517130709 C21.1689564,1.18876228 21.0887798,2.11641931 20.4943754,2.69429907 L8.20068228,14.6462239 C7.70501297,15.1281135 6.91324965,15.1162166 6.43222941,14.6196515 C6.39076998,14.5768522 6.35241391,14.5311419 6.31745381,14.4828693 C5.8310436,13.8112377 5.91122019,12.8835807 6.50562457,12.3057009 Z" id="Rectangle"></path>
                <path d="M2.35582409,5.49127148 L7.66757906,12.4932028 C8.16236539,13.1454279 8.09857839,14.0587118 7.51783505,14.6371942 C7.03403255,15.1191132 6.24753223,15.1211953 5.76113741,14.6418448 C5.71898527,14.6003032 5.67989762,14.5558167 5.64417591,14.5087285 L0.33242094,7.5067972 C-0.162365393,6.8545721 -0.0985783866,5.9412882 0.482164952,5.36280579 C0.965967446,4.88088682 1.75246777,4.87880466 2.23886259,5.35815515 C2.28101473,5.39969682 2.32010238,5.44418328 2.35582409,5.49127148 Z" id="Rectangle-Copy-3"></path>
            </g>
        </g>
        <text id="Doctors-working-hour" font-family="AppleSDGothicNeo-Regular, Apple SD Gothic Neo" font-size="21" font-weight="normal" fill="#000000">
            <tspan x="480" y="129">Doctors working hours</tspan>
        </text>
        <text id="Saved-procedures" font-family="AppleSDGothicNeo-Regular, Apple SD Gothic Neo" font-size="21" font-weight="normal" fill="#000000">
            <tspan x="868" y="216">Saved procedures</tspan>
        </text>
        <text id="Doctor-planner" font-family="AppleSDGothicNeo-Regular, Apple SD Gothic Neo" font-size="21" font-weight="normal" fill="#000000">
            <tspan x="75" y="213">Doctor planner</tspan>
        </text>
    </g>
</svg>