<?xml version="1.0" encoding="UTF-8"?>
<svg width="925px" height="641px" viewBox="0 0 925 641" version="1.1" xmlns="http://www.w3.org/2000/svg" xmlns:xlink="http://www.w3.org/1999/xlink">
    <!-- Generator: Sketch 52.5 (67469) - http://www.bohemiancoding.com/sketch -->
    <title>Artboard Copy 35</title>
    <desc>Created with Sketch.</desc>
    <defs>
        <rect id="path-1" x="31" y="41" width="262" height="573" rx="28"></rect>
        <filter x="-24.2%" y="-10.9%" width="148.5%" height="122.2%" filterUnits="objectBoundingBox" id="filter-2">
            <feMorphology radius="5" operator="dilate" in="SourceAlpha" result="shadowSpreadOuter1"></feMorphology>
            <feOffset dx="0" dy="1" in="shadowSpreadOuter1" result="shadowOffsetOuter1"></feOffset>
            <feGaussianBlur stdDeviation="16" in="shadowOffsetOuter1" result="shadowBlurOuter1"></feGaussianBlur>
            <feComposite in="shadowBlurOuter1" in2="SourceAlpha" operator="out" result="shadowBlurOuter1"></feComposite>
            <feColorMatrix values="0 0 0 0 0.909040179   0 0 0 0 0.909040179   0 0 0 0 0.909040179  0 0 0 1 0" type="matrix" in="shadowBlurOuter1"></feColorMatrix>
        </filter>
        <rect id="path-3" x="331" y="41" width="262" height="573" rx="28"></rect>
        <filter x="-24.2%" y="-10.9%" width="148.5%" height="122.2%" filterUnits="objectBoundingBox" id="filter-4">
            <feMorphology radius="5" operator="dilate" in="SourceAlpha" result="shadowSpreadOuter1"></feMorphology>
            <feOffset dx="0" dy="1" in="shadowSpreadOuter1" result="shadowOffsetOuter1"></feOffset>
            <feGaussianBlur stdDeviation="16" in="shadowOffsetOuter1" result="shadowBlurOuter1"></feGaussianBlur>
            <feComposite in="shadowBlurOuter1" in2="SourceAlpha" operator="out" result="shadowBlurOuter1"></feComposite>
            <feColorMatrix values="0 0 0 0 0.909040179   0 0 0 0 0.909040179   0 0 0 0 0.909040179  0 0 0 1 0" type="matrix" in="shadowBlurOuter1"></feColorMatrix>
        </filter>
        <rect id="path-5" x="631" y="41" width="262" height="573" rx="28"></rect>
        <filter x="-24.2%" y="-10.9%" width="148.5%" height="122.2%" filterUnits="objectBoundingBox" id="filter-6">
            <feMorphology radius="5" operator="dilate" in="SourceAlpha" result="shadowSpreadOuter1"></feMorphology>
            <feOffset dx="0" dy="1" in="shadowSpreadOuter1" result="shadowOffsetOuter1"></feOffset>
            <feGaussianBlur stdDeviation="16" in="shadowOffsetOuter1" result="shadowBlurOuter1"></feGaussianBlur>
            <feComposite in="shadowBlurOuter1" in2="SourceAlpha" operator="out" result="shadowBlurOuter1"></feComposite>
            <feColorMatrix values="0 0 0 0 0.909040179   0 0 0 0 0.909040179   0 0 0 0 0.909040179  0 0 0 1 0" type="matrix" in="shadowBlurOuter1"></feColorMatrix>
        </filter>
    </defs>
    <g id="Artboard-Copy-35" stroke="none" stroke-width="1" fill="none" fill-rule="evenodd">
        <g id="Rectangle" fill-rule="nonzero">
            <use fill="black" fill-opacity="1" filter="url(#filter-2)" xlink:href="#path-1"></use>
            <rect stroke="#E6EBEB" stroke-width="1" stroke-linejoin="square" fill="#FFFFFF" fill-rule="evenodd" x="31.5" y="41.5" width="261" height="572" rx="28"></rect>
        </g>
        <g id="Rectangle-Copy" fill-rule="nonzero">
            <use fill="black" fill-opacity="1" filter="url(#filter-4)" xlink:href="#path-3"></use>
            <rect stroke="#E6EBEB" stroke-width="1" stroke-linejoin="square" fill="#FFFFFF" fill-rule="evenodd" x="331.5" y="41.5" width="261" height="572" rx="28"></rect>
        </g>
        <g id="Rectangle-Copy-2" fill-rule="nonzero">
            <use fill="black" fill-opacity="1" filter="url(#filter-6)" xlink:href="#path-5"></use>
            <rect stroke="#E6EBEB" stroke-width="1" stroke-linejoin="square" fill="#FFFFFF" fill-rule="evenodd" x="631.5" y="41.5" width="261" height="572" rx="28"></rect>
        </g>
        <text id="Business" font-family="AppleSDGothicNeo-Bold, Apple SD Gothic Neo" font-size="26" font-weight="bold" fill="#33CCCC">
            <tspan x="112.164" y="97">Business</tspan>
        </text>
        <g id="Group-2" transform="translate(113.000000, 521.000000)" font-family="AppleSDGothicNeo-SemiBold, Apple SD Gothic Neo" font-weight="500">
            <text id="80" font-size="41" fill="#000000">
                <tspan x="8.8875" y="37">80</tspan>
            </text>
            <text id="usd" font-size="21" fill="#4A4A4A">
                <tspan x="62.54" y="19">usd</tspan>
            </text>
        </g>
        <text id="Management" font-family="AppleSDGothicNeo-Bold, Apple SD Gothic Neo" font-size="26" font-weight="bold" fill="#33CCCC">
            <tspan x="386.983" y="97">Management</tspan>
        </text>
        <text id="Premium" font-family="AppleSDGothicNeo-Bold, Apple SD Gothic Neo" font-size="26" font-weight="bold" fill="#33CCCC">
            <tspan x="709.37" y="97">Premium</tspan>
        </text>
        <text id="room-/-year" font-family="AppleSDGothicNeo-Regular, Apple SD Gothic Neo" font-size="17" font-weight="normal" fill="#4A4A4A">
            <tspan x="120.5115" y="578">room / year</tspan>
        </text>
        <g id="Group-2-Copy" transform="translate(409.000000, 521.000000)" font-family="AppleSDGothicNeo-SemiBold, Apple SD Gothic Neo" font-weight="500">
            <text id="150" font-size="41" fill="#000000">
                <tspan x="2.799" y="37">150</tspan>
            </text>
            <text id="usd" font-size="21" fill="#4A4A4A">
                <tspan x="70.54" y="19">usd</tspan>
            </text>
        </g>
        <text id="room-/-year-copy" font-family="AppleSDGothicNeo-Regular, Apple SD Gothic Neo" font-size="17" font-weight="normal" fill="#4A4A4A">
            <tspan x="420.5115" y="578">room / year</tspan>
        </text>
        <g id="Group-2-Copy-2" transform="translate(706.000000, 521.000000)" font-family="AppleSDGothicNeo-SemiBold, Apple SD Gothic Neo" font-weight="500">
            <text id="200" font-size="41" fill="#000000">
                <tspan x="1.354" y="37">200</tspan>
            </text>
            <text id="usd" font-size="21" fill="#4A4A4A">
                <tspan x="79.54" y="22">usd</tspan>
            </text>
        </g>
        <text id="room-/-year-copy-2" font-family="AppleSDGothicNeo-Regular, Apple SD Gothic Neo" font-size="17" font-weight="normal" fill="#4A4A4A">
            <tspan x="722.5115" y="578">room / year</tspan>
        </text>
        <text id="Billing-Copy-2" font-family="AppleSDGothicNeo-Regular, Apple SD Gothic Neo" font-size="17" font-weight="normal" fill="#4A4A4A">
            <tspan x="684" y="165">Billing</tspan>
        </text>
        <text id="Expenses-Copy-2" font-family="AppleSDGothicNeo-Regular, Apple SD Gothic Neo" font-size="17" font-weight="normal" fill="#4A4A4A">
            <tspan x="684" y="215">Expenses</tspan>
        </text>
        <text id="All-financial-report-Copy-2" font-family="AppleSDGothicNeo-Regular, Apple SD Gothic Neo" font-size="17" font-weight="normal" fill="#4A4A4A">
            <tspan x="684" y="265">All financial reports</tspan>
        </text>
        <text id="Scheduling-Copy" font-family="AppleSDGothicNeo-Regular, Apple SD Gothic Neo" font-size="17" font-weight="normal" fill="#4A4A4A">
            <tspan x="684" y="315">Scheduling</tspan>
        </text>
        <text id="Automated-SMS-Copy" font-family="AppleSDGothicNeo-Regular, Apple SD Gothic Neo" font-size="17" font-weight="normal" fill="#4A4A4A">
            <tspan x="684" y="365">Automated SMS</tspan>
        </text>
        <text id="Electronic-Medical-R" font-family="AppleSDGothicNeo-Regular, Apple SD Gothic Neo" font-size="17" font-weight="normal" fill="#4A4A4A">
            <tspan x="684" y="415">Electronic Medical Record</tspan>
        </text>
        <text id="Automated-SMS-Copy-3" font-family="AppleSDGothicNeo-Regular, Apple SD Gothic Neo" font-size="17" font-weight="normal" fill="#4A4A4A">
            <tspan x="684" y="465">Automated SMS</tspan>
        </text>
        <g id="Group-Copy-13" transform="translate(650.000000, 160.000000)" fill="#33CCCC" fill-rule="nonzero">
            <path d="M4.6535523,4.92406438 L15.9726017,4.10462218 C16.4289744,4.0715831 16.825721,4.41476277 16.8587601,4.87113542 C16.8616077,4.91047047 16.8616431,4.94995865 16.858866,4.98929874 L16.858866,4.98929874 C16.8202271,5.53664891 16.3852316,5.97242512 15.8379516,6.01204543 L4.51890213,6.83148763 C4.06252947,6.86452671 3.66578287,6.52134704 3.63274378,6.06497438 C3.62989612,6.02563934 3.62986072,5.98615116 3.63263784,5.94681107 L3.63263784,5.94681107 C3.67127677,5.3994609 4.10627229,4.96368469 4.6535523,4.92406438 Z" id="Rectangle" transform="translate(10.245752, 5.468055) rotate(-40.000000) translate(-10.245752, -5.468055) "></path>
            <path d="M1.33340998,5.91974488 L7.07940253,6.32862951 C7.6146378,6.36671684 8.04066311,6.79212703 8.07952376,7.3273067 L8.07952376,7.3273067 C8.11189758,7.77315127 7.77671331,8.16082386 7.33086875,8.19319768 C7.29223078,8.19600327 7.25344125,8.1960313 7.21479928,8.19328154 L1.46880672,7.7843969 C0.933571457,7.74630958 0.507546143,7.32089939 0.468685494,6.78571971 L0.468685494,6.78571971 C0.436311677,6.33987515 0.771495945,5.95220255 1.21734051,5.91982874 C1.25597847,5.91702314 1.294768,5.91699512 1.33340998,5.91974488 Z" id="Rectangle-Copy-3" transform="translate(4.274105, 7.056513) rotate(49.000000) translate(-4.274105, -7.056513) "></path>
        </g>
        <g id="Group-Copy-12" transform="translate(650.000000, 209.000000)" fill="#33CCCC" fill-rule="nonzero">
            <path d="M4.6535523,4.92406438 L15.9726017,4.10462218 C16.4289744,4.0715831 16.825721,4.41476277 16.8587601,4.87113542 C16.8616077,4.91047047 16.8616431,4.94995865 16.858866,4.98929874 L16.858866,4.98929874 C16.8202271,5.53664891 16.3852316,5.97242512 15.8379516,6.01204543 L4.51890213,6.83148763 C4.06252947,6.86452671 3.66578287,6.52134704 3.63274378,6.06497438 C3.62989612,6.02563934 3.62986072,5.98615116 3.63263784,5.94681107 L3.63263784,5.94681107 C3.67127677,5.3994609 4.10627229,4.96368469 4.6535523,4.92406438 Z" id="Rectangle" transform="translate(10.245752, 5.468055) rotate(-40.000000) translate(-10.245752, -5.468055) "></path>
            <path d="M1.33340998,5.91974488 L7.07940253,6.32862951 C7.6146378,6.36671684 8.04066311,6.79212703 8.07952376,7.3273067 L8.07952376,7.3273067 C8.11189758,7.77315127 7.77671331,8.16082386 7.33086875,8.19319768 C7.29223078,8.19600327 7.25344125,8.1960313 7.21479928,8.19328154 L1.46880672,7.7843969 C0.933571457,7.74630958 0.507546143,7.32089939 0.468685494,6.78571971 L0.468685494,6.78571971 C0.436311677,6.33987515 0.771495945,5.95220255 1.21734051,5.91982874 C1.25597847,5.91702314 1.294768,5.91699512 1.33340998,5.91974488 Z" id="Rectangle-Copy-3" transform="translate(4.274105, 7.056513) rotate(49.000000) translate(-4.274105, -7.056513) "></path>
        </g>
        <g id="Group-Copy-11" transform="translate(650.000000, 259.000000)" fill="#33CCCC" fill-rule="nonzero">
            <path d="M4.6535523,4.92406438 L15.9726017,4.10462218 C16.4289744,4.0715831 16.825721,4.41476277 16.8587601,4.87113542 C16.8616077,4.91047047 16.8616431,4.94995865 16.858866,4.98929874 L16.858866,4.98929874 C16.8202271,5.53664891 16.3852316,5.97242512 15.8379516,6.01204543 L4.51890213,6.83148763 C4.06252947,6.86452671 3.66578287,6.52134704 3.63274378,6.06497438 C3.62989612,6.02563934 3.62986072,5.98615116 3.63263784,5.94681107 L3.63263784,5.94681107 C3.67127677,5.3994609 4.10627229,4.96368469 4.6535523,4.92406438 Z" id="Rectangle" transform="translate(10.245752, 5.468055) rotate(-40.000000) translate(-10.245752, -5.468055) "></path>
            <path d="M1.33340998,5.91974488 L7.07940253,6.32862951 C7.6146378,6.36671684 8.04066311,6.79212703 8.07952376,7.3273067 L8.07952376,7.3273067 C8.11189758,7.77315127 7.77671331,8.16082386 7.33086875,8.19319768 C7.29223078,8.19600327 7.25344125,8.1960313 7.21479928,8.19328154 L1.46880672,7.7843969 C0.933571457,7.74630958 0.507546143,7.32089939 0.468685494,6.78571971 L0.468685494,6.78571971 C0.436311677,6.33987515 0.771495945,5.95220255 1.21734051,5.91982874 C1.25597847,5.91702314 1.294768,5.91699512 1.33340998,5.91974488 Z" id="Rectangle-Copy-3" transform="translate(4.274105, 7.056513) rotate(49.000000) translate(-4.274105, -7.056513) "></path>
        </g>
        <g id="Group-Copy-10" transform="translate(650.000000, 309.000000)" fill="#33CCCC" fill-rule="nonzero">
            <path d="M4.6535523,4.92406438 L15.9726017,4.10462218 C16.4289744,4.0715831 16.825721,4.41476277 16.8587601,4.87113542 C16.8616077,4.91047047 16.8616431,4.94995865 16.858866,4.98929874 L16.858866,4.98929874 C16.8202271,5.53664891 16.3852316,5.97242512 15.8379516,6.01204543 L4.51890213,6.83148763 C4.06252947,6.86452671 3.66578287,6.52134704 3.63274378,6.06497438 C3.62989612,6.02563934 3.62986072,5.98615116 3.63263784,5.94681107 L3.63263784,5.94681107 C3.67127677,5.3994609 4.10627229,4.96368469 4.6535523,4.92406438 Z" id="Rectangle" transform="translate(10.245752, 5.468055) rotate(-40.000000) translate(-10.245752, -5.468055) "></path>
            <path d="M1.33340998,5.91974488 L7.07940253,6.32862951 C7.6146378,6.36671684 8.04066311,6.79212703 8.07952376,7.3273067 L8.07952376,7.3273067 C8.11189758,7.77315127 7.77671331,8.16082386 7.33086875,8.19319768 C7.29223078,8.19600327 7.25344125,8.1960313 7.21479928,8.19328154 L1.46880672,7.7843969 C0.933571457,7.74630958 0.507546143,7.32089939 0.468685494,6.78571971 L0.468685494,6.78571971 C0.436311677,6.33987515 0.771495945,5.95220255 1.21734051,5.91982874 C1.25597847,5.91702314 1.294768,5.91699512 1.33340998,5.91974488 Z" id="Rectangle-Copy-3" transform="translate(4.274105, 7.056513) rotate(49.000000) translate(-4.274105, -7.056513) "></path>
        </g>
        <g id="Group-Copy-9" transform="translate(650.000000, 359.000000)" fill="#33CCCC" fill-rule="nonzero">
            <path d="M4.6535523,4.92406438 L15.9726017,4.10462218 C16.4289744,4.0715831 16.825721,4.41476277 16.8587601,4.87113542 C16.8616077,4.91047047 16.8616431,4.94995865 16.858866,4.98929874 L16.858866,4.98929874 C16.8202271,5.53664891 16.3852316,5.97242512 15.8379516,6.01204543 L4.51890213,6.83148763 C4.06252947,6.86452671 3.66578287,6.52134704 3.63274378,6.06497438 C3.62989612,6.02563934 3.62986072,5.98615116 3.63263784,5.94681107 L3.63263784,5.94681107 C3.67127677,5.3994609 4.10627229,4.96368469 4.6535523,4.92406438 Z" id="Rectangle" transform="translate(10.245752, 5.468055) rotate(-40.000000) translate(-10.245752, -5.468055) "></path>
            <path d="M1.33340998,5.91974488 L7.07940253,6.32862951 C7.6146378,6.36671684 8.04066311,6.79212703 8.07952376,7.3273067 L8.07952376,7.3273067 C8.11189758,7.77315127 7.77671331,8.16082386 7.33086875,8.19319768 C7.29223078,8.19600327 7.25344125,8.1960313 7.21479928,8.19328154 L1.46880672,7.7843969 C0.933571457,7.74630958 0.507546143,7.32089939 0.468685494,6.78571971 L0.468685494,6.78571971 C0.436311677,6.33987515 0.771495945,5.95220255 1.21734051,5.91982874 C1.25597847,5.91702314 1.294768,5.91699512 1.33340998,5.91974488 Z" id="Rectangle-Copy-3" transform="translate(4.274105, 7.056513) rotate(49.000000) translate(-4.274105, -7.056513) "></path>
        </g>
        <g id="Group-Copy-15" transform="translate(650.000000, 408.000000)" fill="#33CCCC" fill-rule="nonzero">
            <path d="M4.6535523,4.92406438 L15.9726017,4.10462218 C16.4289744,4.0715831 16.825721,4.41476277 16.8587601,4.87113542 C16.8616077,4.91047047 16.8616431,4.94995865 16.858866,4.98929874 L16.858866,4.98929874 C16.8202271,5.53664891 16.3852316,5.97242512 15.8379516,6.01204543 L4.51890213,6.83148763 C4.06252947,6.86452671 3.66578287,6.52134704 3.63274378,6.06497438 C3.62989612,6.02563934 3.62986072,5.98615116 3.63263784,5.94681107 L3.63263784,5.94681107 C3.67127677,5.3994609 4.10627229,4.96368469 4.6535523,4.92406438 Z" id="Rectangle" transform="translate(10.245752, 5.468055) rotate(-40.000000) translate(-10.245752, -5.468055) "></path>
            <path d="M1.33340998,5.91974488 L7.07940253,6.32862951 C7.6146378,6.36671684 8.04066311,6.79212703 8.07952376,7.3273067 L8.07952376,7.3273067 C8.11189758,7.77315127 7.77671331,8.16082386 7.33086875,8.19319768 C7.29223078,8.19600327 7.25344125,8.1960313 7.21479928,8.19328154 L1.46880672,7.7843969 C0.933571457,7.74630958 0.507546143,7.32089939 0.468685494,6.78571971 L0.468685494,6.78571971 C0.436311677,6.33987515 0.771495945,5.95220255 1.21734051,5.91982874 C1.25597847,5.91702314 1.294768,5.91699512 1.33340998,5.91974488 Z" id="Rectangle-Copy-3" transform="translate(4.274105, 7.056513) rotate(49.000000) translate(-4.274105, -7.056513) "></path>
        </g>
        <g id="Group-Copy-14" transform="translate(650.000000, 458.000000)" fill="#33CCCC" fill-rule="nonzero">
            <path d="M4.6535523,4.92406438 L15.9726017,4.10462218 C16.4289744,4.0715831 16.825721,4.41476277 16.8587601,4.87113542 C16.8616077,4.91047047 16.8616431,4.94995865 16.858866,4.98929874 L16.858866,4.98929874 C16.8202271,5.53664891 16.3852316,5.97242512 15.8379516,6.01204543 L4.51890213,6.83148763 C4.06252947,6.86452671 3.66578287,6.52134704 3.63274378,6.06497438 C3.62989612,6.02563934 3.62986072,5.98615116 3.63263784,5.94681107 L3.63263784,5.94681107 C3.67127677,5.3994609 4.10627229,4.96368469 4.6535523,4.92406438 Z" id="Rectangle" transform="translate(10.245752, 5.468055) rotate(-40.000000) translate(-10.245752, -5.468055) "></path>
            <path d="M1.33340998,5.91974488 L7.07940253,6.32862951 C7.6146378,6.36671684 8.04066311,6.79212703 8.07952376,7.3273067 L8.07952376,7.3273067 C8.11189758,7.77315127 7.77671331,8.16082386 7.33086875,8.19319768 C7.29223078,8.19600327 7.25344125,8.1960313 7.21479928,8.19328154 L1.46880672,7.7843969 C0.933571457,7.74630958 0.507546143,7.32089939 0.468685494,6.78571971 L0.468685494,6.78571971 C0.436311677,6.33987515 0.771495945,5.95220255 1.21734051,5.91982874 C1.25597847,5.91702314 1.294768,5.91699512 1.33340998,5.91974488 Z" id="Rectangle-Copy-3" transform="translate(4.274105, 7.056513) rotate(49.000000) translate(-4.274105, -7.056513) "></path>
        </g>
        <text id="Billing-Copy-3" font-family="AppleSDGothicNeo-Regular, Apple SD Gothic Neo" font-size="17" font-weight="normal" fill="#4A4A4A">
            <tspan x="384" y="165">Billing</tspan>
        </text>
        <text id="Expenses-Copy-3" font-family="AppleSDGothicNeo-Regular, Apple SD Gothic Neo" font-size="17" font-weight="normal" fill="#4A4A4A">
            <tspan x="384" y="215">Expenses</tspan>
        </text>
        <text id="All-financial-report-Copy-3" font-family="AppleSDGothicNeo-Regular, Apple SD Gothic Neo" font-size="17" font-weight="normal" fill="#4A4A4A">
            <tspan x="384" y="265">All financial reports</tspan>
        </text>
        <text id="Scheduling-Copy-2" font-family="AppleSDGothicNeo-Regular, Apple SD Gothic Neo" font-size="17" font-weight="normal" fill="#4A4A4A">
            <tspan x="384" y="315">Scheduling</tspan>
        </text>
        <text id="Automated-SMS-Copy-2" font-family="AppleSDGothicNeo-Regular, Apple SD Gothic Neo" font-size="17" font-weight="normal" fill="#4A4A4A">
            <tspan x="384" y="365">Automated SMS</tspan>
        </text>
        <text id="Electronic-Medical-R-Copy" font-family="AppleSDGothicNeo-Regular, Apple SD Gothic Neo" font-size="17" font-weight="normal" fill="#9B9B9B">
            <tspan x="384" y="415">Electronic Medical Record</tspan>
        </text>
        <text id="Automated-SMS-Copy-4" font-family="AppleSDGothicNeo-Regular, Apple SD Gothic Neo" font-size="17" font-weight="normal" fill="#9B9B9B">
            <tspan x="384" y="465">Automated SMS</tspan>
        </text>
        <g id="Group-Copy-22" transform="translate(350.000000, 160.000000)" fill="#33CCCC" fill-rule="nonzero">
            <path d="M4.6535523,4.92406438 L15.9726017,4.10462218 C16.4289744,4.0715831 16.825721,4.41476277 16.8587601,4.87113542 C16.8616077,4.91047047 16.8616431,4.94995865 16.858866,4.98929874 L16.858866,4.98929874 C16.8202271,5.53664891 16.3852316,5.97242512 15.8379516,6.01204543 L4.51890213,6.83148763 C4.06252947,6.86452671 3.66578287,6.52134704 3.63274378,6.06497438 C3.62989612,6.02563934 3.62986072,5.98615116 3.63263784,5.94681107 L3.63263784,5.94681107 C3.67127677,5.3994609 4.10627229,4.96368469 4.6535523,4.92406438 Z" id="Rectangle" transform="translate(10.245752, 5.468055) rotate(-40.000000) translate(-10.245752, -5.468055) "></path>
            <path d="M1.33340998,5.91974488 L7.07940253,6.32862951 C7.6146378,6.36671684 8.04066311,6.79212703 8.07952376,7.3273067 L8.07952376,7.3273067 C8.11189758,7.77315127 7.77671331,8.16082386 7.33086875,8.19319768 C7.29223078,8.19600327 7.25344125,8.1960313 7.21479928,8.19328154 L1.46880672,7.7843969 C0.933571457,7.74630958 0.507546143,7.32089939 0.468685494,6.78571971 L0.468685494,6.78571971 C0.436311677,6.33987515 0.771495945,5.95220255 1.21734051,5.91982874 C1.25597847,5.91702314 1.294768,5.91699512 1.33340998,5.91974488 Z" id="Rectangle-Copy-3" transform="translate(4.274105, 7.056513) rotate(49.000000) translate(-4.274105, -7.056513) "></path>
        </g>
        <g id="Group-Copy-21" transform="translate(350.000000, 209.000000)" fill="#33CCCC" fill-rule="nonzero">
            <path d="M4.6535523,4.92406438 L15.9726017,4.10462218 C16.4289744,4.0715831 16.825721,4.41476277 16.8587601,4.87113542 C16.8616077,4.91047047 16.8616431,4.94995865 16.858866,4.98929874 L16.858866,4.98929874 C16.8202271,5.53664891 16.3852316,5.97242512 15.8379516,6.01204543 L4.51890213,6.83148763 C4.06252947,6.86452671 3.66578287,6.52134704 3.63274378,6.06497438 C3.62989612,6.02563934 3.62986072,5.98615116 3.63263784,5.94681107 L3.63263784,5.94681107 C3.67127677,5.3994609 4.10627229,4.96368469 4.6535523,4.92406438 Z" id="Rectangle" transform="translate(10.245752, 5.468055) rotate(-40.000000) translate(-10.245752, -5.468055) "></path>
            <path d="M1.33340998,5.91974488 L7.07940253,6.32862951 C7.6146378,6.36671684 8.04066311,6.79212703 8.07952376,7.3273067 L8.07952376,7.3273067 C8.11189758,7.77315127 7.77671331,8.16082386 7.33086875,8.19319768 C7.29223078,8.19600327 7.25344125,8.1960313 7.21479928,8.19328154 L1.46880672,7.7843969 C0.933571457,7.74630958 0.507546143,7.32089939 0.468685494,6.78571971 L0.468685494,6.78571971 C0.436311677,6.33987515 0.771495945,5.95220255 1.21734051,5.91982874 C1.25597847,5.91702314 1.294768,5.91699512 1.33340998,5.91974488 Z" id="Rectangle-Copy-3" transform="translate(4.274105, 7.056513) rotate(49.000000) translate(-4.274105, -7.056513) "></path>
        </g>
        <g id="Group-Copy-20" transform="translate(350.000000, 259.000000)" fill="#33CCCC" fill-rule="nonzero">
            <path d="M4.6535523,4.92406438 L15.9726017,4.10462218 C16.4289744,4.0715831 16.825721,4.41476277 16.8587601,4.87113542 C16.8616077,4.91047047 16.8616431,4.94995865 16.858866,4.98929874 L16.858866,4.98929874 C16.8202271,5.53664891 16.3852316,5.97242512 15.8379516,6.01204543 L4.51890213,6.83148763 C4.06252947,6.86452671 3.66578287,6.52134704 3.63274378,6.06497438 C3.62989612,6.02563934 3.62986072,5.98615116 3.63263784,5.94681107 L3.63263784,5.94681107 C3.67127677,5.3994609 4.10627229,4.96368469 4.6535523,4.92406438 Z" id="Rectangle" transform="translate(10.245752, 5.468055) rotate(-40.000000) translate(-10.245752, -5.468055) "></path>
            <path d="M1.33340998,5.91974488 L7.07940253,6.32862951 C7.6146378,6.36671684 8.04066311,6.79212703 8.07952376,7.3273067 L8.07952376,7.3273067 C8.11189758,7.77315127 7.77671331,8.16082386 7.33086875,8.19319768 C7.29223078,8.19600327 7.25344125,8.1960313 7.21479928,8.19328154 L1.46880672,7.7843969 C0.933571457,7.74630958 0.507546143,7.32089939 0.468685494,6.78571971 L0.468685494,6.78571971 C0.436311677,6.33987515 0.771495945,5.95220255 1.21734051,5.91982874 C1.25597847,5.91702314 1.294768,5.91699512 1.33340998,5.91974488 Z" id="Rectangle-Copy-3" transform="translate(4.274105, 7.056513) rotate(49.000000) translate(-4.274105, -7.056513) "></path>
        </g>
        <g id="Group-Copy-19" transform="translate(350.000000, 309.000000)" fill="#33CCCC" fill-rule="nonzero">
            <path d="M4.6535523,4.92406438 L15.9726017,4.10462218 C16.4289744,4.0715831 16.825721,4.41476277 16.8587601,4.87113542 C16.8616077,4.91047047 16.8616431,4.94995865 16.858866,4.98929874 L16.858866,4.98929874 C16.8202271,5.53664891 16.3852316,5.97242512 15.8379516,6.01204543 L4.51890213,6.83148763 C4.06252947,6.86452671 3.66578287,6.52134704 3.63274378,6.06497438 C3.62989612,6.02563934 3.62986072,5.98615116 3.63263784,5.94681107 L3.63263784,5.94681107 C3.67127677,5.3994609 4.10627229,4.96368469 4.6535523,4.92406438 Z" id="Rectangle" transform="translate(10.245752, 5.468055) rotate(-40.000000) translate(-10.245752, -5.468055) "></path>
            <path d="M1.33340998,5.91974488 L7.07940253,6.32862951 C7.6146378,6.36671684 8.04066311,6.79212703 8.07952376,7.3273067 L8.07952376,7.3273067 C8.11189758,7.77315127 7.77671331,8.16082386 7.33086875,8.19319768 C7.29223078,8.19600327 7.25344125,8.1960313 7.21479928,8.19328154 L1.46880672,7.7843969 C0.933571457,7.74630958 0.507546143,7.32089939 0.468685494,6.78571971 L0.468685494,6.78571971 C0.436311677,6.33987515 0.771495945,5.95220255 1.21734051,5.91982874 C1.25597847,5.91702314 1.294768,5.91699512 1.33340998,5.91974488 Z" id="Rectangle-Copy-3" transform="translate(4.274105, 7.056513) rotate(49.000000) translate(-4.274105, -7.056513) "></path>
        </g>
        <g id="Group-Copy-18" transform="translate(350.000000, 359.000000)" fill="#33CCCC" fill-rule="nonzero">
            <path d="M4.6535523,4.92406438 L15.9726017,4.10462218 C16.4289744,4.0715831 16.825721,4.41476277 16.8587601,4.87113542 C16.8616077,4.91047047 16.8616431,4.94995865 16.858866,4.98929874 L16.858866,4.98929874 C16.8202271,5.53664891 16.3852316,5.97242512 15.8379516,6.01204543 L4.51890213,6.83148763 C4.06252947,6.86452671 3.66578287,6.52134704 3.63274378,6.06497438 C3.62989612,6.02563934 3.62986072,5.98615116 3.63263784,5.94681107 L3.63263784,5.94681107 C3.67127677,5.3994609 4.10627229,4.96368469 4.6535523,4.92406438 Z" id="Rectangle" transform="translate(10.245752, 5.468055) rotate(-40.000000) translate(-10.245752, -5.468055) "></path>
            <path d="M1.33340998,5.91974488 L7.07940253,6.32862951 C7.6146378,6.36671684 8.04066311,6.79212703 8.07952376,7.3273067 L8.07952376,7.3273067 C8.11189758,7.77315127 7.77671331,8.16082386 7.33086875,8.19319768 C7.29223078,8.19600327 7.25344125,8.1960313 7.21479928,8.19328154 L1.46880672,7.7843969 C0.933571457,7.74630958 0.507546143,7.32089939 0.468685494,6.78571971 L0.468685494,6.78571971 C0.436311677,6.33987515 0.771495945,5.95220255 1.21734051,5.91982874 C1.25597847,5.91702314 1.294768,5.91699512 1.33340998,5.91974488 Z" id="Rectangle-Copy-3" transform="translate(4.274105, 7.056513) rotate(49.000000) translate(-4.274105, -7.056513) "></path>
        </g>
        <text id="Billing-Copy-4" font-family="AppleSDGothicNeo-Regular, Apple SD Gothic Neo" font-size="17" font-weight="normal" fill="#4A4A4A">
            <tspan x="84" y="165">Billing</tspan>
        </text>
        <text id="Expenses-Copy-4" font-family="AppleSDGothicNeo-Regular, Apple SD Gothic Neo" font-size="17" font-weight="normal" fill="#4A4A4A">
            <tspan x="84" y="215">Expenses</tspan>
        </text>
        <text id="All-financial-report-Copy-4" font-family="AppleSDGothicNeo-Regular, Apple SD Gothic Neo" font-size="17" font-weight="normal" fill="#4A4A4A">
            <tspan x="84" y="265">All financial reports</tspan>
        </text>
        <text id="Scheduling-Copy-3" font-family="AppleSDGothicNeo-Regular, Apple SD Gothic Neo" font-size="17" font-weight="normal" fill="#9B9B9B">
            <tspan x="84" y="315">Scheduling</tspan>
        </text>
        <text id="Automated-SMS-Copy-6" font-family="AppleSDGothicNeo-Regular, Apple SD Gothic Neo" font-size="17" font-weight="normal" fill="#9B9B9B">
            <tspan x="84" y="365">Automated SMS</tspan>
        </text>
        <text id="Electronic-Medical-R-Copy-2" font-family="AppleSDGothicNeo-Regular, Apple SD Gothic Neo" font-size="17" font-weight="normal" fill="#9B9B9B">
            <tspan x="84" y="415">Electronic Medical Record</tspan>
        </text>
        <text id="Automated-SMS-Copy-5" font-family="AppleSDGothicNeo-Regular, Apple SD Gothic Neo" font-size="17" font-weight="normal" fill="#9B9B9B">
            <tspan x="84" y="465">Automated SMS</tspan>
        </text>
        <g id="Group-Copy-29" transform="translate(50.000000, 160.000000)" fill="#33CCCC" fill-rule="nonzero">
            <path d="M4.6535523,4.92406438 L15.9726017,4.10462218 C16.4289744,4.0715831 16.825721,4.41476277 16.8587601,4.87113542 C16.8616077,4.91047047 16.8616431,4.94995865 16.858866,4.98929874 L16.858866,4.98929874 C16.8202271,5.53664891 16.3852316,5.97242512 15.8379516,6.01204543 L4.51890213,6.83148763 C4.06252947,6.86452671 3.66578287,6.52134704 3.63274378,6.06497438 C3.62989612,6.02563934 3.62986072,5.98615116 3.63263784,5.94681107 L3.63263784,5.94681107 C3.67127677,5.3994609 4.10627229,4.96368469 4.6535523,4.92406438 Z" id="Rectangle" transform="translate(10.245752, 5.468055) rotate(-40.000000) translate(-10.245752, -5.468055) "></path>
            <path d="M1.33340998,5.91974488 L7.07940253,6.32862951 C7.6146378,6.36671684 8.04066311,6.79212703 8.07952376,7.3273067 L8.07952376,7.3273067 C8.11189758,7.77315127 7.77671331,8.16082386 7.33086875,8.19319768 C7.29223078,8.19600327 7.25344125,8.1960313 7.21479928,8.19328154 L1.46880672,7.7843969 C0.933571457,7.74630958 0.507546143,7.32089939 0.468685494,6.78571971 L0.468685494,6.78571971 C0.436311677,6.33987515 0.771495945,5.95220255 1.21734051,5.91982874 C1.25597847,5.91702314 1.294768,5.91699512 1.33340998,5.91974488 Z" id="Rectangle-Copy-3" transform="translate(4.274105, 7.056513) rotate(49.000000) translate(-4.274105, -7.056513) "></path>
        </g>
        <g id="Group-Copy-28" transform="translate(50.000000, 209.000000)" fill="#33CCCC" fill-rule="nonzero">
            <path d="M4.6535523,4.92406438 L15.9726017,4.10462218 C16.4289744,4.0715831 16.825721,4.41476277 16.8587601,4.87113542 C16.8616077,4.91047047 16.8616431,4.94995865 16.858866,4.98929874 L16.858866,4.98929874 C16.8202271,5.53664891 16.3852316,5.97242512 15.8379516,6.01204543 L4.51890213,6.83148763 C4.06252947,6.86452671 3.66578287,6.52134704 3.63274378,6.06497438 C3.62989612,6.02563934 3.62986072,5.98615116 3.63263784,5.94681107 L3.63263784,5.94681107 C3.67127677,5.3994609 4.10627229,4.96368469 4.6535523,4.92406438 Z" id="Rectangle" transform="translate(10.245752, 5.468055) rotate(-40.000000) translate(-10.245752, -5.468055) "></path>
            <path d="M1.33340998,5.91974488 L7.07940253,6.32862951 C7.6146378,6.36671684 8.04066311,6.79212703 8.07952376,7.3273067 L8.07952376,7.3273067 C8.11189758,7.77315127 7.77671331,8.16082386 7.33086875,8.19319768 C7.29223078,8.19600327 7.25344125,8.1960313 7.21479928,8.19328154 L1.46880672,7.7843969 C0.933571457,7.74630958 0.507546143,7.32089939 0.468685494,6.78571971 L0.468685494,6.78571971 C0.436311677,6.33987515 0.771495945,5.95220255 1.21734051,5.91982874 C1.25597847,5.91702314 1.294768,5.91699512 1.33340998,5.91974488 Z" id="Rectangle-Copy-3" transform="translate(4.274105, 7.056513) rotate(49.000000) translate(-4.274105, -7.056513) "></path>
        </g>
        <g id="Group-Copy-27" transform="translate(50.000000, 259.000000)" fill="#33CCCC" fill-rule="nonzero">
            <path d="M4.6535523,4.92406438 L15.9726017,4.10462218 C16.4289744,4.0715831 16.825721,4.41476277 16.8587601,4.87113542 C16.8616077,4.91047047 16.8616431,4.94995865 16.858866,4.98929874 L16.858866,4.98929874 C16.8202271,5.53664891 16.3852316,5.97242512 15.8379516,6.01204543 L4.51890213,6.83148763 C4.06252947,6.86452671 3.66578287,6.52134704 3.63274378,6.06497438 C3.62989612,6.02563934 3.62986072,5.98615116 3.63263784,5.94681107 L3.63263784,5.94681107 C3.67127677,5.3994609 4.10627229,4.96368469 4.6535523,4.92406438 Z" id="Rectangle" transform="translate(10.245752, 5.468055) rotate(-40.000000) translate(-10.245752, -5.468055) "></path>
            <path d="M1.33340998,5.91974488 L7.07940253,6.32862951 C7.6146378,6.36671684 8.04066311,6.79212703 8.07952376,7.3273067 L8.07952376,7.3273067 C8.11189758,7.77315127 7.77671331,8.16082386 7.33086875,8.19319768 C7.29223078,8.19600327 7.25344125,8.1960313 7.21479928,8.19328154 L1.46880672,7.7843969 C0.933571457,7.74630958 0.507546143,7.32089939 0.468685494,6.78571971 L0.468685494,6.78571971 C0.436311677,6.33987515 0.771495945,5.95220255 1.21734051,5.91982874 C1.25597847,5.91702314 1.294768,5.91699512 1.33340998,5.91974488 Z" id="Rectangle-Copy-3" transform="translate(4.274105, 7.056513) rotate(49.000000) translate(-4.274105, -7.056513) "></path>
        </g>
        <g id="Group-Copy-26" transform="translate(54.000000, 310.000000)" fill="#F57381" fill-rule="nonzero">
            <path d="M-0.212573769,4.10257375 L10.5190633,4.56356001 C11.0601197,4.58680153 11.5047165,4.99850703 11.5693931,5.53618638 L11.5693931,5.53618638 C11.6219957,5.97348944 11.3101343,6.37063638 10.8728312,6.42323892 C10.8298803,6.42840542 10.7865802,6.43006861 10.7433595,6.42821203 L0.0117224505,5.96722577 C-0.52933391,5.94398425 -0.973930693,5.53227875 -1.03860734,4.9945994 L-1.03860734,4.9945994 C-1.09120988,4.55729634 -0.779348487,4.16014939 -0.342045434,4.10754686 C-0.299094524,4.10238036 -0.255794441,4.10071717 -0.212573769,4.10257375 Z" id="Rectangle-Copy-3" transform="translate(5.265393, 5.265393) rotate(45.000000) translate(-5.265393, -5.265393) "></path>
            <path d="M-0.212573769,4.10257375 L10.5190633,4.56356001 C11.0601197,4.58680153 11.5047165,4.99850703 11.5693931,5.53618638 L11.5693931,5.53618638 C11.6219957,5.97348944 11.3101343,6.37063638 10.8728312,6.42323892 C10.8298803,6.42840542 10.7865802,6.43006861 10.7433595,6.42821203 L0.0117224505,5.96722577 C-0.52933391,5.94398425 -0.973930693,5.53227875 -1.03860734,4.9945994 L-1.03860734,4.9945994 C-1.09120988,4.55729634 -0.779348487,4.16014939 -0.342045434,4.10754686 C-0.299094524,4.10238036 -0.255794441,4.10071717 -0.212573769,4.10257375 Z" id="Rectangle-Copy-4" transform="translate(5.265393, 5.265393) scale(-1, 1) rotate(45.000000) translate(-5.265393, -5.265393) "></path>
        </g>
        <g id="Group-Copy-30" transform="translate(54.000000, 360.000000)" fill="#F57381" fill-rule="nonzero">
            <path d="M-0.212573769,4.10257375 L10.5190633,4.56356001 C11.0601197,4.58680153 11.5047165,4.99850703 11.5693931,5.53618638 L11.5693931,5.53618638 C11.6219957,5.97348944 11.3101343,6.37063638 10.8728312,6.42323892 C10.8298803,6.42840542 10.7865802,6.43006861 10.7433595,6.42821203 L0.0117224505,5.96722577 C-0.52933391,5.94398425 -0.973930693,5.53227875 -1.03860734,4.9945994 L-1.03860734,4.9945994 C-1.09120988,4.55729634 -0.779348487,4.16014939 -0.342045434,4.10754686 C-0.299094524,4.10238036 -0.255794441,4.10071717 -0.212573769,4.10257375 Z" id="Rectangle-Copy-3" transform="translate(5.265393, 5.265393) rotate(45.000000) translate(-5.265393, -5.265393) "></path>
            <path d="M-0.212573769,4.10257375 L10.5190633,4.56356001 C11.0601197,4.58680153 11.5047165,4.99850703 11.5693931,5.53618638 L11.5693931,5.53618638 C11.6219957,5.97348944 11.3101343,6.37063638 10.8728312,6.42323892 C10.8298803,6.42840542 10.7865802,6.43006861 10.7433595,6.42821203 L0.0117224505,5.96722577 C-0.52933391,5.94398425 -0.973930693,5.53227875 -1.03860734,4.9945994 L-1.03860734,4.9945994 C-1.09120988,4.55729634 -0.779348487,4.16014939 -0.342045434,4.10754686 C-0.299094524,4.10238036 -0.255794441,4.10071717 -0.212573769,4.10257375 Z" id="Rectangle-Copy-4" transform="translate(5.265393, 5.265393) scale(-1, 1) rotate(45.000000) translate(-5.265393, -5.265393) "></path>
        </g>
        <g id="Group-Copy-31" transform="translate(54.000000, 410.000000)" fill="#F57381" fill-rule="nonzero">
            <path d="M-0.212573769,4.10257375 L10.5190633,4.56356001 C11.0601197,4.58680153 11.5047165,4.99850703 11.5693931,5.53618638 L11.5693931,5.53618638 C11.6219957,5.97348944 11.3101343,6.37063638 10.8728312,6.42323892 C10.8298803,6.42840542 10.7865802,6.43006861 10.7433595,6.42821203 L0.0117224505,5.96722577 C-0.52933391,5.94398425 -0.973930693,5.53227875 -1.03860734,4.9945994 L-1.03860734,4.9945994 C-1.09120988,4.55729634 -0.779348487,4.16014939 -0.342045434,4.10754686 C-0.299094524,4.10238036 -0.255794441,4.10071717 -0.212573769,4.10257375 Z" id="Rectangle-Copy-3" transform="translate(5.265393, 5.265393) rotate(45.000000) translate(-5.265393, -5.265393) "></path>
            <path d="M-0.212573769,4.10257375 L10.5190633,4.56356001 C11.0601197,4.58680153 11.5047165,4.99850703 11.5693931,5.53618638 L11.5693931,5.53618638 C11.6219957,5.97348944 11.3101343,6.37063638 10.8728312,6.42323892 C10.8298803,6.42840542 10.7865802,6.43006861 10.7433595,6.42821203 L0.0117224505,5.96722577 C-0.52933391,5.94398425 -0.973930693,5.53227875 -1.03860734,4.9945994 L-1.03860734,4.9945994 C-1.09120988,4.55729634 -0.779348487,4.16014939 -0.342045434,4.10754686 C-0.299094524,4.10238036 -0.255794441,4.10071717 -0.212573769,4.10257375 Z" id="Rectangle-Copy-4" transform="translate(5.265393, 5.265393) scale(-1, 1) rotate(45.000000) translate(-5.265393, -5.265393) "></path>
        </g>
        <g id="Group-Copy-32" transform="translate(54.000000, 460.000000)" fill="#F57381" fill-rule="nonzero">
            <path d="M-0.212573769,4.10257375 L10.5190633,4.56356001 C11.0601197,4.58680153 11.5047165,4.99850703 11.5693931,5.53618638 L11.5693931,5.53618638 C11.6219957,5.97348944 11.3101343,6.37063638 10.8728312,6.42323892 C10.8298803,6.42840542 10.7865802,6.43006861 10.7433595,6.42821203 L0.0117224505,5.96722577 C-0.52933391,5.94398425 -0.973930693,5.53227875 -1.03860734,4.9945994 L-1.03860734,4.9945994 C-1.09120988,4.55729634 -0.779348487,4.16014939 -0.342045434,4.10754686 C-0.299094524,4.10238036 -0.255794441,4.10071717 -0.212573769,4.10257375 Z" id="Rectangle-Copy-3" transform="translate(5.265393, 5.265393) rotate(45.000000) translate(-5.265393, -5.265393) "></path>
            <path d="M-0.212573769,4.10257375 L10.5190633,4.56356001 C11.0601197,4.58680153 11.5047165,4.99850703 11.5693931,5.53618638 L11.5693931,5.53618638 C11.6219957,5.97348944 11.3101343,6.37063638 10.8728312,6.42323892 C10.8298803,6.42840542 10.7865802,6.43006861 10.7433595,6.42821203 L0.0117224505,5.96722577 C-0.52933391,5.94398425 -0.973930693,5.53227875 -1.03860734,4.9945994 L-1.03860734,4.9945994 C-1.09120988,4.55729634 -0.779348487,4.16014939 -0.342045434,4.10754686 C-0.299094524,4.10238036 -0.255794441,4.10071717 -0.212573769,4.10257375 Z" id="Rectangle-Copy-4" transform="translate(5.265393, 5.265393) scale(-1, 1) rotate(45.000000) translate(-5.265393, -5.265393) "></path>
        </g>
        <g id="Group-Copy-34" transform="translate(354.000000, 410.000000)" fill="#F57381" fill-rule="nonzero">
            <path d="M-0.212573769,4.10257375 L10.5190633,4.56356001 C11.0601197,4.58680153 11.5047165,4.99850703 11.5693931,5.53618638 L11.5693931,5.53618638 C11.6219957,5.97348944 11.3101343,6.37063638 10.8728312,6.42323892 C10.8298803,6.42840542 10.7865802,6.43006861 10.7433595,6.42821203 L0.0117224505,5.96722577 C-0.52933391,5.94398425 -0.973930693,5.53227875 -1.03860734,4.9945994 L-1.03860734,4.9945994 C-1.09120988,4.55729634 -0.779348487,4.16014939 -0.342045434,4.10754686 C-0.299094524,4.10238036 -0.255794441,4.10071717 -0.212573769,4.10257375 Z" id="Rectangle-Copy-3" transform="translate(5.265393, 5.265393) rotate(45.000000) translate(-5.265393, -5.265393) "></path>
            <path d="M-0.212573769,4.10257375 L10.5190633,4.56356001 C11.0601197,4.58680153 11.5047165,4.99850703 11.5693931,5.53618638 L11.5693931,5.53618638 C11.6219957,5.97348944 11.3101343,6.37063638 10.8728312,6.42323892 C10.8298803,6.42840542 10.7865802,6.43006861 10.7433595,6.42821203 L0.0117224505,5.96722577 C-0.52933391,5.94398425 -0.973930693,5.53227875 -1.03860734,4.9945994 L-1.03860734,4.9945994 C-1.09120988,4.55729634 -0.779348487,4.16014939 -0.342045434,4.10754686 C-0.299094524,4.10238036 -0.255794441,4.10071717 -0.212573769,4.10257375 Z" id="Rectangle-Copy-4" transform="translate(5.265393, 5.265393) scale(-1, 1) rotate(45.000000) translate(-5.265393, -5.265393) "></path>
        </g>
        <g id="Group-Copy-33" transform="translate(354.000000, 460.000000)" fill="#F57381" fill-rule="nonzero">
            <path d="M-0.212573769,4.10257375 L10.5190633,4.56356001 C11.0601197,4.58680153 11.5047165,4.99850703 11.5693931,5.53618638 L11.5693931,5.53618638 C11.6219957,5.97348944 11.3101343,6.37063638 10.8728312,6.42323892 C10.8298803,6.42840542 10.7865802,6.43006861 10.7433595,6.42821203 L0.0117224505,5.96722577 C-0.52933391,5.94398425 -0.973930693,5.53227875 -1.03860734,4.9945994 L-1.03860734,4.9945994 C-1.09120988,4.55729634 -0.779348487,4.16014939 -0.342045434,4.10754686 C-0.299094524,4.10238036 -0.255794441,4.10071717 -0.212573769,4.10257375 Z" id="Rectangle-Copy-3" transform="translate(5.265393, 5.265393) rotate(45.000000) translate(-5.265393, -5.265393) "></path>
            <path d="M-0.212573769,4.10257375 L10.5190633,4.56356001 C11.0601197,4.58680153 11.5047165,4.99850703 11.5693931,5.53618638 L11.5693931,5.53618638 C11.6219957,5.97348944 11.3101343,6.37063638 10.8728312,6.42323892 C10.8298803,6.42840542 10.7865802,6.43006861 10.7433595,6.42821203 L0.0117224505,5.96722577 C-0.52933391,5.94398425 -0.973930693,5.53227875 -1.03860734,4.9945994 L-1.03860734,4.9945994 C-1.09120988,4.55729634 -0.779348487,4.16014939 -0.342045434,4.10754686 C-0.299094524,4.10238036 -0.255794441,4.10071717 -0.212573769,4.10257375 Z" id="Rectangle-Copy-4" transform="translate(5.265393, 5.265393) scale(-1, 1) rotate(45.000000) translate(-5.265393, -5.265393) "></path>
        </g>
        <path d="M837,41 L864,41 C880.016258,41 893,53.9837423 893,70 L893,97 L837,41 Z" id="Rectangle" fill="#33CCCC" fill-rule="nonzero"></path>
    </g>
</svg>