<?xml version="1.0" encoding="UTF-8"?>
<!-- Created with Inkscape (http://www.inkscape.org/) -->
<svg id="c-a" width="24.426mm" height="18.699mm" version="1.1" viewBox="0 0 24.426 18.699"
     xmlns="http://www.w3.org/2000/svg">
 <g id="c-b" transform="translate(-134.57 -177.85)">
  <path id="c-c"
        d="m146.8 177.85c-1.7192 0-3.1135 1.3446-3.1135 3.0029 0 1.6582 1.3943 3.0029 3.1135 3.0029 0.65482 0 1.2646-0.19552 1.7663-0.53123l0.31576 1.0278h1.0898v1.1395h1.1405v1.0423h1.3761v-1.3849l-2.9073-2.9461c0.21212-0.40582 0.33177-0.86521 0.33177-1.3503 0-1.6583-1.3939-3.0029-3.113-3.0029zm-0.46302 2.0423h5.3e-4c5e-3 -1e-4 0.0101 0 0.0145 0 0.3062 0 0.55499 0.24882 0.55499 0.55502 0 0.30618-0.24879 0.55499-0.55499 0.55499-0.30806 0-0.55552-0.24881-0.55552-0.55499 0-0.30308 0.24114-0.54718 0.54052-0.55502zm-11.767 5.8456v9.1483h5.58v-9.1483zm6.2771 0.65423v7.6151l0.27131 0.13898 2.8598 1.4743c2.0703 1.2171 4.283 1.2607 6.365-2e-3 2.704-1.2498 5.348-2.7906 7.922-4.6622l0.0289-0.0233 0.0274-0.0253c0.7943-0.78534 0.85294-1.8791 0.35399-2.6169-0.49896-0.73779-1.5183-1.1232-2.5864-0.77152l-0.0331 0.01-3.7383 1.8536-0.076 0.17933c-5e-3 -0.13644 0.0536-0.27953 4e-3 -0.40618-0.22924-0.58693-0.8282-0.96563-1.5296-1.0077l-0.0155-2e-3h-2.2655c-1.2724-0.79325-2.5704-1.5018-3.9357-1.7461l-0.045-8e-3zm-5.2772 0.34571h3.5802v7.1484h-3.5802zm6.2771 0.65423h2.4944c1.178 0.215 2.424 0.87562 3.699 1.6779l0.12094 0.076h2.4944c0.37578 0.0225 0.59748 0.22058 0.65783 0.37518 0.0604 0.15457 0.0755 0.31924-0.31626 0.58756l-6e-3 4e-3 -8e-3 4e-3c-0.65961 0.48342-1.6126 0.48065-2.7228 0.38087h-0.02c-0.61267-0.0305-1.113 0.46551-1.1214 0.98031-8e-3 0.51213 0.47024 1.0172 1.0862 1.0253 0.37105 0.023 0.68641-0.0408 0.86508-0.0408h2e-3c0.73539-1e-3 1.4328-0.0683 2.0722-0.30644 0.63944-0.23809 1.2135-0.66209 1.6252-1.3069l0.0212-0.0351 0.30075-0.70125 3.3202-1.6443c0.69532-0.22352 1.1889 0.0205 1.434 0.38291 0.24281 0.35904 0.26779 0.82672-0.21704 1.3219-2.5224 1.8299-5.1057 3.3438-7.7499 4.5625l-0.0253 0.0119-0.0253 0.0134c-1.8226 1.1084-3.5135 1.0725-5.3439-4e-3l-0.0119-6e-3 -2.6267-1.3534zm8.9778 3.8054c-0.0102 5e-3 -0.0156 0.0166-0.0263 0.0207-0.0144 5e-3 -0.0381 3e-3 -0.0527 8e-3 0.0265-9e-3 0.0527-0.019 0.0791-0.029zm-2.7311 0.29456c-3e-3 -5.8e-4 0.0143-3.9e-4 0.0971 4e-3l-0.0196-2e-3c0.0888 8e-3 0.18198-3e-3 0.27181 4e-3 -0.0519 3e-3 -0.14706 0.0145-0.18759 0.0113l-0.0176-2e-3h-0.0196c-0.19098-8.7e-4 -0.0977-0.014-0.0977-0.0134 0 2.9e-4 -0.0237-9.8e-4 -0.0269-2e-3z"
        color="#000000" fill="#43d0d0" style="-inkscape-stroke:none"/>
 </g>
</svg>
