<?xml version="1.0" encoding="UTF-8"?>
<!-- Created with Inkscape (http://www.inkscape.org/) -->
<svg id="c-a" width="21.584mm" height="22.081mm" version="1.1" viewBox="0 0 21.584 22.081"
     xmlns="http://www.w3.org/2000/svg">
    <g id="c-b" transform="translate(-137.14 -181.88)">
        <path id="c-c"
              d="m140.16 186.44c1.3877 0.46915 3.3164 0.74776 5.459 0.74776s4.0731-0.27861 5.459-0.74776c1.2169-0.40623 1.9772-0.89874 1.9772-1.3805 0-0.48172-0.75314-0.97244-1.9772-1.3787-1.3859-0.46195-3.3146-0.74776-5.459-0.74776s-4.0713 0.28581-5.459 0.74057c-2.5812 0.8628-2.6513 1.873 0 2.7591zm12.6 5.6028a5.9479 5.9479 0 0 1 4.2133 1.7454 5.9533 5.9533 0 0 1 0 8.423 5.9533 5.9533 0 0 1-8.423 0 5.9533 5.9533 0 0 1 0-8.423 5.9425 5.9425 0 0 1 4.2115-1.7454zm0.33792 3.1492-0.50509 2.5237-0.5033-0.75854c-1.0785 0.43499-1.6932 1.154-1.7831 2.2576-0.89874-1.5566-0.3505-2.9533 0.77832-3.7747l-0.51409-0.77292 2.5165 0.52127zm-0.80707 5.7753 0.4961-2.5165 0.5051 0.75854c1.0785-0.43499 1.6932-1.154 1.7831-2.2576 0.89874 1.5566 0.3595 2.9533-0.77832 3.7747l0.51409 0.77292-2.5165-0.52128zm4.0228-6.5087a5.033 5.033 0 1 0 1.4721 3.5536 5.0042 5.0042 0 0 0-1.4721-3.5536zm-11.285 3.7747c-2.0186-0.0414-3.8412-0.33793-5.1983-0.7909a6.6615 6.6615 0 0 1-1.6177-0.76573v3.4476c0.0953 0.44758 0.82505 0.89874 1.9575 1.278 1.3876 0.46376 3.3164 0.74955 5.459 0.74955h0.61474a7.8514 7.8514 0 0 0 0.77652 1.0228q-0.67946 0.0395-1.3913 0.0395c-2.2504 0-4.2996-0.30737-5.7933-0.80527-0.7873-0.26423-2.68-1.127-2.68-2.157v-0.34692c-0.0108-4.7112-0.0215-10.134-0.0215-14.845 0-0.98502 1.0282-1.8208 2.6962-2.3763 1.4883-0.4997 3.5374-0.80708 5.7879-0.80708s4.2996 0.30738 5.7933 0.80708c1.4937 0.4997 2.5021 1.2439 2.6675 2.1156a0.52666 0.52666 0 0 1 0.0306 0.17975v5.4086a7.5818 7.5818 0 0 0-1.0929-0.11503 0.4979 0.4979 0 0 0 0.0306-0.16717v-3.444a6.6507 6.6507 0 0 1-1.6411 0.77651c-1.4937 0.49791-3.5428 0.80707-5.7933 0.80707-2.2505 0-4.2942-0.30916-5.7825-0.80707a6.7298 6.7298 0 0 1-1.6177-0.76393v3.5321c0.0953 0.44758 0.82504 0.89874 1.9575 1.278 1.3769 0.45836 3.3056 0.74955 5.4482 0.74955 0.73337 0 1.438-0.0342 2.1102-0.0971-0.11144 0.0953-0.21929 0.19413-0.32355 0.29479-0.0395 0.0323-0.0755 0.0665-0.11144 0.10066a7.891 7.891 0 0 0-0.63811 0.719c-0.33972 0.0144-0.68305 0.0215-1.0336 0.0215-2.254 0.0162-4.3032-0.29119-5.7915-0.79089a6.6615 6.6615 0 0 1-1.6177-0.76394v3.4476c0.0953 0.44758 0.82504 0.89875 1.9575 1.278 1.2672 0.42241 2.9856 0.69742 4.9089 0.74236a7.7148 7.7148 0 0 0-0.0431 0.81786v0.23726z"
              fill="#43d0d0" stroke-width=".26458"/>
    </g>
</svg>
