<?xml version="1.0" encoding="UTF-8" standalone="no"?>
<!DOCTYPE svg PUBLIC "-//W3C//DTD SVG 1.1//EN" "http://www.w3.org/Graphics/SVG/1.1/DTD/svg11.dtd">
<!-- Created with Vectornator (http://vectornator.io/) -->
<svg height="100%" stroke-miterlimit="10" style="fill-rule:nonzero;clip-rule:evenodd;stroke-linecap:round;stroke-linejoin:round;" version="1.1" viewBox="0 0 552 217.857" width="100%" xml:space="preserve" xmlns="http://www.w3.org/2000/svg" xmlns:vectornator="http://vectornator.io" xmlns:xlink="http://www.w3.org/1999/xlink">
<defs/>
<clipPath id="ArtboardFrame">
<rect height="217.857" width="552" x="0" y="0"/>
</clipPath>
<g clip-path="url(#ArtboardFrame)" id="Untitled" vectornator:layerName="Untitled">
<g opacity="1">
<clipPath id="ClipPath">
<path d="M-293.274-231.216L871.058-231.216L871.058-231.216L871.058 453.328L871.058 453.328L-293.274 453.328L-293.274 453.328L-293.274-231.216L-293.274-231.216Z" fill-rule="evenodd"/>
</clipPath>
<g clip-path="url(#ClipPath)"/>
</g>
<path d="M177.9 67.8523L177.9 145.909" fill="none" fill-rule="evenodd" opacity="1" stroke="#9db4c9" stroke-linecap="butt" stroke-linejoin="miter" stroke-width="1.49646"/>
<path d="M400.125 67.8523L400.125 145.909" fill="none" fill-rule="evenodd" opacity="1" stroke="#9db4c9" stroke-linecap="butt" stroke-linejoin="miter" stroke-width="1.49646"/>
<g opacity="1">
<path d="M451.625 119.653L433.58 119.653L433.58 115.13L439.65 108.837C440.913 107.488 441.888 106.413 442.589 105.606C443.282 104.805 443.77 104.116 444.044 103.555C444.333 102.979 444.484 102.375 444.484 101.756C444.484 101.012 444.243 100.464 443.77 100.127C443.289 99.7897 442.733 99.6212 442.094 99.6212C441.305 99.6212 440.508 99.86 439.705 100.324C438.895 100.773 437.988 101.44 436.986 102.318L433.306 97.9073C434.054 97.233 434.844 96.5868 435.667 95.9687C436.505 95.3366 437.508 94.8168 438.661 94.4235C439.815 94.0301 441.202 93.8335 442.836 93.8335C444.539 93.8335 446.008 94.1425 447.258 94.7606C448.5 95.3647 449.462 96.1865 450.141 97.233C450.814 98.2866 451.158 99.4737 451.158 100.801C451.158 102.283 450.89 103.604 450.361 104.763C449.826 105.908 449.029 107.059 447.972 108.218C446.928 109.363 445.617 110.663 444.044 112.124L442.232 113.809L442.232 113.978L451.625 113.978L451.625 119.653Z" fill="#4d5e79" fill-rule="evenodd" opacity="1" stroke="none"/>
<path d="M472.156 106.954C472.156 108.998 471.991 110.824 471.662 112.433C471.346 114.048 470.845 115.411 470.151 116.535C469.451 117.659 468.531 118.522 467.377 119.119C466.237 119.695 464.837 119.99 463.175 119.99C461.088 119.99 459.371 119.478 458.039 118.445C456.721 117.399 455.746 115.91 455.128 113.978C454.503 112.032 454.194 109.693 454.194 106.954C454.194 104.201 454.476 101.855 455.045 99.9021C455.608 97.9565 456.556 96.4604 457.874 95.4068C459.193 94.3603 460.957 93.8335 463.175 93.8335C465.242 93.8335 466.938 94.3603 468.256 95.4068C469.588 96.4393 470.57 97.9354 471.195 99.9021C471.833 101.855 472.156 104.201 472.156 106.954ZM460.868 106.954C460.868 108.626 460.923 110.017 461.033 111.14C461.156 112.264 461.39 113.107 461.719 113.669C462.063 114.231 462.55 114.512 463.175 114.512C463.793 114.512 464.274 114.231 464.603 113.669C464.933 113.107 465.152 112.278 465.262 111.168C465.386 110.045 465.455 108.64 465.455 106.954C465.455 105.268 465.386 103.864 465.262 102.74C465.152 101.616 464.933 100.773 464.603 100.211C464.274 99.6352 463.793 99.3402 463.175 99.3402C462.55 99.3402 462.063 99.6352 461.719 100.211C461.39 100.773 461.156 101.616 461.033 102.74C460.923 103.864 460.868 105.268 460.868 106.954Z" fill="#4d5e79" fill-rule="evenodd" opacity="1" stroke="none"/>
<path d="M492.468 119.653L474.423 119.653L474.423 115.13L480.493 108.837C481.756 107.488 482.731 106.413 483.432 105.606C484.125 104.805 484.613 104.116 484.887 103.555C485.176 102.979 485.327 102.375 485.327 101.756C485.327 101.012 485.087 100.464 484.613 100.127C484.132 99.7897 483.576 99.6212 482.937 99.6212C482.148 99.6212 481.351 99.86 480.548 100.324C479.738 100.773 478.831 101.44 477.829 102.318L474.149 97.9073C474.897 97.233 475.687 96.5868 476.511 95.9687C477.348 95.3366 478.351 94.8168 479.504 94.4235C480.658 94.0301 482.045 93.8335 483.679 93.8335C485.382 93.8335 486.851 94.1425 488.101 94.7606C489.344 95.3647 490.305 96.1865 490.985 97.233C491.658 98.2866 492.001 99.4737 492.001 100.801C492.001 102.283 491.733 103.604 491.204 104.763C490.669 105.908 489.872 107.059 488.815 108.218C487.771 109.363 486.46 110.663 484.887 112.124L483.075 113.809L483.075 113.978L492.468 113.978L492.468 119.653Z" fill="#4d5e79" fill-rule="evenodd" opacity="1" stroke="none"/>
<path d="M512.889 119.653L494.845 119.653L494.845 115.13L500.915 108.837C502.178 107.488 503.153 106.413 503.853 105.606C504.547 104.805 505.034 104.116 505.309 103.555C505.597 102.979 505.748 102.375 505.748 101.756C505.748 101.012 505.508 100.464 505.034 100.127C504.554 99.7897 503.998 99.6212 503.359 99.6212C502.569 99.6212 501.773 99.86 500.97 100.324C500.159 100.773 499.253 101.44 498.251 102.318L494.57 97.9073C495.319 97.233 496.108 96.5868 496.932 95.9687C497.77 95.3366 498.772 94.8168 499.926 94.4235C501.079 94.0301 502.466 93.8335 504.101 93.8335C505.803 93.8335 507.273 94.1425 508.522 94.7606C509.765 95.3647 510.726 96.1865 511.406 97.233C512.079 98.2866 512.422 99.4737 512.422 100.801C512.422 102.283 512.155 103.604 511.626 104.763C511.09 105.908 510.294 107.059 509.236 108.218C508.193 109.363 506.881 110.663 505.309 112.124L503.496 113.809L503.496 113.978L512.889 113.978L512.889 119.653Z" fill="#4d5e79" fill-rule="evenodd" opacity="1" stroke="none"/>
</g>
<path d="M244.578 146.717C244.578 149.92 243.754 152.351 242.106 153.994C240.472 155.624 238.068 156.439 234.882 156.439L230.433 156.439L230.433 137.39L235.459 137.39C238.439 137.39 240.705 138.19 242.243 139.778C243.795 141.372 244.578 143.683 244.578 146.717ZM243.149 146.774C243.149 144.062 242.47 142.018 241.117 140.649C239.757 139.265 237.773 138.57 235.157 138.57L231.724 138.57L231.724 155.259L234.827 155.259C240.375 155.259 243.149 152.435 243.149 146.774Z" fill="#4d5e79" fill-rule="evenodd" opacity="1" stroke="none"/>
<path d="M254.119 156.691C252.1 156.691 250.528 156.066 249.395 154.809C248.276 153.538 247.72 151.761 247.72 149.471C247.72 147.209 248.255 145.397 249.34 144.048C250.439 142.686 251.908 141.997 253.762 141.997C255.389 141.997 256.673 142.58 257.607 143.739C258.554 144.905 259.035 146.486 259.035 148.487L259.035 149.527L249.038 149.527C249.052 151.48 249.491 152.969 250.356 153.994C251.235 155.027 252.485 155.539 254.119 155.539C254.902 155.539 255.602 155.483 256.206 155.371C256.81 155.244 257.566 154.999 258.486 154.64L258.486 155.792C257.696 156.151 256.975 156.382 256.316 156.495C255.657 156.621 254.922 156.691 254.119 156.691ZM253.762 143.149C252.423 143.149 251.352 143.599 250.548 144.498C249.738 145.397 249.264 146.689 249.12 148.375L257.689 148.375C257.689 146.746 257.339 145.474 256.646 144.554C255.945 143.62 254.984 143.149 253.762 143.149Z" fill="#4d5e79" fill-rule="evenodd" opacity="1" stroke="none"/>
<path d="M268.376 156.691C266.399 156.691 264.84 156.059 263.707 154.781C262.588 153.51 262.032 151.733 262.032 149.443C262.032 147.104 262.609 145.278 263.762 143.964C264.929 142.658 266.536 141.997 268.569 141.997C269.756 141.997 270.903 142.215 272.002 142.644L271.645 143.795C270.45 143.388 269.42 143.177 268.541 143.177C266.838 143.177 265.547 143.711 264.669 144.779C263.79 145.846 263.35 147.392 263.35 149.415C263.35 151.325 263.79 152.828 264.669 153.91C265.547 154.999 266.77 155.539 268.349 155.539C269.592 155.539 270.752 155.308 271.837 154.837L271.837 156.045C270.958 156.474 269.804 156.691 268.376 156.691Z" fill="#4d5e79" fill-rule="evenodd" opacity="1" stroke="none"/>
<path d="M280.821 156.691C278.802 156.691 277.23 156.066 276.097 154.809C274.978 153.538 274.421 151.761 274.421 149.471C274.421 147.209 274.957 145.397 276.042 144.048C277.141 142.686 278.61 141.997 280.464 141.997C282.091 141.997 283.375 142.58 284.309 143.739C285.256 144.905 285.737 146.486 285.737 148.487L285.737 149.527L275.74 149.527C275.754 151.48 276.193 152.969 277.058 153.994C277.937 155.027 279.187 155.539 280.821 155.539C281.604 155.539 282.304 155.483 282.908 155.371C283.512 155.244 284.268 154.999 285.188 154.64L285.188 155.792C284.398 156.151 283.677 156.382 283.018 156.495C282.359 156.621 281.624 156.691 280.821 156.691ZM280.464 143.149C279.125 143.149 278.054 143.599 277.25 144.498C276.44 145.397 275.966 146.689 275.822 148.375L284.391 148.375C284.391 146.746 284.041 145.474 283.348 144.554C282.647 143.62 281.686 143.149 280.464 143.149Z" fill="#4d5e79" fill-rule="evenodd" opacity="1" stroke="none"/>
<path d="M306.833 156.439L306.833 147.139C306.833 145.776 306.565 144.772 306.037 144.133C305.522 143.5 304.718 143.177 303.62 143.177C302.205 143.177 301.162 143.585 300.489 144.386C299.809 145.172 299.473 146.429 299.473 148.15L299.473 156.439L298.182 156.439L298.182 146.746C298.182 144.371 297.111 143.177 294.968 143.177C293.52 143.177 292.455 143.613 291.782 144.47C291.123 145.334 290.794 146.717 290.794 148.628L290.794 156.439L289.53 156.439L289.53 142.278L290.574 142.278L290.849 144.217L290.931 144.217C291.316 143.508 291.851 142.967 292.551 142.587C293.266 142.194 294.041 141.997 294.886 141.997C297.063 141.997 298.463 142.84 299.088 144.526L299.143 144.526C299.596 143.704 300.2 143.079 300.956 142.644C301.725 142.215 302.59 141.997 303.565 141.997C305.062 141.997 306.188 142.412 306.943 143.234C307.712 144.062 308.097 145.369 308.097 147.167L308.097 156.439L306.833 156.439Z" fill="#4d5e79" fill-rule="evenodd" opacity="1" stroke="none"/>
<path d="M318.402 141.997C320.339 141.997 321.794 142.63 322.769 143.88C323.758 145.116 324.252 146.935 324.252 149.33C324.252 151.69 323.737 153.51 322.714 154.781C321.684 156.059 320.229 156.691 318.347 156.691C317.372 156.691 316.487 156.481 315.683 156.073C314.894 155.666 314.269 155.076 313.816 154.303L313.706 154.303L313.349 156.439L312.552 156.439L312.552 136.153L313.816 136.153L313.816 141.267C313.816 142.018 313.795 142.721 313.761 143.374L313.733 144.47L313.816 144.47C314.344 143.627 314.976 143.009 315.711 142.615C316.459 142.208 317.359 141.997 318.402 141.997ZM318.375 143.177C316.741 143.177 315.573 143.655 314.859 144.61C314.159 145.566 313.816 147.139 313.816 149.33L313.816 149.555C313.816 151.69 314.18 153.229 314.914 154.163C315.663 155.083 316.809 155.539 318.347 155.539C319.865 155.539 321.011 155.006 321.78 153.938C322.549 152.856 322.934 151.311 322.934 149.302C322.934 145.221 321.41 143.177 318.375 143.177Z" fill="#4d5e79" fill-rule="evenodd" opacity="1" stroke="none"/>
<path d="M333.677 156.691C331.658 156.691 330.086 156.066 328.953 154.809C327.834 153.538 327.278 151.761 327.278 149.471C327.278 147.209 327.813 145.397 328.898 144.048C329.997 142.686 331.466 141.997 333.32 141.997C334.947 141.997 336.231 142.58 337.165 143.739C338.113 144.905 338.593 146.486 338.593 148.487L338.593 149.527L328.596 149.527C328.61 151.48 329.049 152.969 329.914 153.994C330.793 155.027 332.043 155.539 333.677 155.539C334.46 155.539 335.16 155.483 335.764 155.371C336.369 155.244 337.124 154.999 338.044 154.64L338.044 155.792C337.254 156.151 336.533 156.382 335.874 156.495C335.215 156.621 334.48 156.691 333.677 156.691ZM333.32 143.149C331.981 143.149 330.91 143.599 330.107 144.498C329.296 145.397 328.823 146.689 328.678 148.375L337.248 148.375C337.248 146.746 336.897 145.474 336.204 144.554C335.504 143.62 334.542 143.149 333.32 143.149Z" fill="#4d5e79" fill-rule="evenodd" opacity="1" stroke="none"/>
<path d="M347.852 141.997C348.436 141.997 349.067 142.068 349.747 142.194L349.5 143.43C348.91 143.283 348.305 143.205 347.687 143.205C346.513 143.205 345.545 143.725 344.776 144.751C344.021 145.762 343.65 147.055 343.65 148.628L343.65 156.439L342.387 156.439L342.387 142.278L343.458 142.278L343.595 144.835L343.677 144.835C344.24 143.788 344.845 143.058 345.49 142.644C346.149 142.215 346.932 141.997 347.852 141.997Z" fill="#4d5e79" fill-rule="evenodd" opacity="1" stroke="none"/>
<path d="M279.16 120.305L265.867 120.305L265.867 95.8052C265.867 95.3557 265.867 94.5339 265.867 93.3328C265.867 92.1177 265.881 90.7761 265.922 89.3151C265.956 87.8401 266.011 86.5056 266.087 85.3256C265.496 86.042 264.961 86.6461 264.466 87.1518C263.972 87.6435 263.491 88.1 263.038 88.5285L257.545 93.1642L250.734 84.6232L267.378 70.7721L279.16 70.7721L279.16 120.305Z" fill="#4d5e79" fill-rule="evenodd" opacity="1" stroke="none"/>
<path d="M290.014 99.3734C290.014 96.5287 290.214 93.6981 290.619 90.8885C291.017 88.0649 291.731 85.4028 292.761 82.9094C293.805 80.4229 295.274 78.2104 297.183 76.2788C299.085 74.3542 301.522 72.8371 304.488 71.7273C307.468 70.6035 311.107 70.0416 315.392 70.0416C316.339 70.0416 317.507 70.0978 318.88 70.2101C320.253 70.3225 321.386 70.463 322.286 70.6316L322.286 81.1112C321.386 80.9286 320.37 80.7741 319.237 80.6617C318.118 80.5353 316.738 80.465 315.09 80.465C311.828 80.465 309.254 80.9708 307.372 81.9822C305.484 82.9796 304.118 84.4125 303.28 86.2808C302.435 88.1562 301.948 90.4039 301.824 93.0238L302.209 93.0238C302.792 91.9421 303.5 90.9658 304.324 90.1018C305.148 89.2238 306.164 88.5285 307.372 88.0228C308.594 87.517 310.071 87.2642 311.794 87.2642C314.609 87.2642 317.04 87.8963 319.072 89.1466C321.105 90.4039 322.656 92.2301 323.741 94.6252C324.819 97.0274 325.362 99.9353 325.362 103.363C325.362 107.072 324.675 110.246 323.302 112.887C321.929 115.514 319.958 117.516 317.397 118.9C314.849 120.291 311.808 120.979 308.279 120.979C305.676 120.979 303.259 120.543 301.028 119.686C298.81 118.83 296.881 117.516 295.233 115.753C293.599 113.976 292.321 111.728 291.388 109.01C290.468 106.278 290.014 103.068 290.014 99.3734ZM307.976 110.387C309.363 110.387 310.489 109.846 311.355 108.757C312.233 107.676 312.673 105.969 312.673 103.644C312.673 101.776 312.316 100.301 311.602 99.2329C310.888 98.1512 309.72 97.6034 308.114 97.6034C307.029 97.6034 306.116 97.8773 305.367 98.4181C304.612 98.9449 304.035 99.6122 303.637 100.413C303.232 101.221 303.033 102.064 303.033 102.942C303.033 103.841 303.122 104.733 303.307 105.611C303.507 106.496 303.809 107.289 304.214 107.999C304.633 108.715 305.148 109.291 305.752 109.741C306.37 110.176 307.111 110.387 307.976 110.387Z" fill="#4d5e79" fill-rule="evenodd" opacity="1" stroke="none"/>
<g opacity="1">
<path d="M31.0151 119.653L24.3961 119.653L24.3961 94.1987L39.0898 94.1987L39.0898 99.7335L31.0151 99.7335L31.0151 104.566L38.4581 104.566L38.4581 110.101L31.0151 110.101L31.0151 119.653Z" fill="#4d5e79" fill-rule="evenodd" opacity="1" stroke="none"/>
<path d="M54.4171 99.5931C54.781 99.5931 55.1655 99.6212 55.5706 99.6773C55.9689 99.7195 56.2641 99.7546 56.4495 99.7897L55.8727 106.224C55.653 106.167 55.3646 106.125 55.0213 106.083C54.6917 106.027 54.2111 105.999 53.5931 105.999C53.1674 105.999 52.7211 106.048 52.2474 106.139C51.7667 106.217 51.3204 106.385 50.9016 106.645C50.4759 106.912 50.1326 107.305 49.8579 107.825C49.5833 108.352 49.446 109.061 49.446 109.96L49.446 119.653L42.7995 119.653L42.7995 99.9302L47.7431 99.9302L48.7868 103.077L49.1164 103.077C49.4597 102.424 49.9129 101.834 50.4622 101.307C51.0115 100.787 51.6225 100.373 52.3023 100.071C52.9958 99.7546 53.703 99.5931 54.4171 99.5931Z" fill="#4d5e79" fill-rule="evenodd" opacity="1" stroke="none"/>
<path d="M65.8277 99.9302L65.8277 119.653L59.1812 119.653L59.1812 99.9302L65.8277 99.9302ZM62.5319 91.9792C63.4795 91.9792 64.3034 92.1899 65.0038 92.5973C65.7178 93.0117 66.0749 93.8194 66.0749 95.0135C66.0749 96.1935 65.7178 96.9942 65.0038 97.4016C64.3034 97.816 63.4795 98.0197 62.5319 98.0197C61.5569 98.0197 60.7261 97.816 60.0326 97.4016C59.3529 96.9942 59.0164 96.1935 59.0164 95.0135C59.0164 93.8194 59.3529 93.0117 60.0326 92.5973C60.7261 92.1899 61.5569 91.9792 62.5319 91.9792Z" fill="#4d5e79" fill-rule="evenodd" opacity="1" stroke="none"/>
<path d="M76.4751 119.99C74.477 119.99 72.836 119.134 71.5589 117.406C70.2749 115.685 69.6363 113.156 69.6363 109.82C69.6363 106.448 70.2955 103.906 71.6138 102.178C72.9321 100.457 74.6349 99.5931 76.7222 99.5931C77.5805 99.5931 78.3221 99.7265 78.9469 99.9864C79.5649 100.232 80.1073 100.569 80.5673 100.998C81.0205 101.433 81.4256 101.918 81.7758 102.459L81.9131 102.459C81.8376 101.974 81.762 101.293 81.6934 100.408C81.6179 99.5298 81.5835 98.68 81.5835 97.8511L81.5835 92.5692L88.2849 92.5692L88.2849 119.653L83.2863 119.653L81.8582 117.153L81.5835 117.153C81.2883 117.68 80.9038 118.157 80.43 118.586C79.97 119.021 79.4138 119.365 78.7546 119.625C78.1092 119.864 77.3539 119.99 76.4751 119.99ZM79.1941 114.624C80.2515 114.624 81.0068 114.28 81.4462 113.585C81.8856 112.896 82.1191 111.843 82.1603 110.438L82.1603 109.876C82.1603 108.324 81.9406 107.137 81.5011 106.308C81.0754 105.486 80.2789 105.072 79.1117 105.072C78.3221 105.072 77.6629 105.465 77.1342 106.252C76.6193 107.038 76.3652 108.268 76.3652 109.932C76.3652 111.562 76.6261 112.756 77.1617 113.5C77.6904 114.252 78.3701 114.624 79.1941 114.624Z" fill="#4d5e79" fill-rule="evenodd" opacity="1" stroke="none"/>
<path d="M102.293 99.5931C104.745 99.5931 106.647 100.211 108.006 101.447C109.379 102.684 110.066 104.447 110.066 106.729L110.066 119.653L105.479 119.653L104.188 117.04L104.051 117.04C103.502 117.736 102.939 118.305 102.376 118.754C101.806 119.19 101.147 119.499 100.398 119.681C99.6637 119.885 98.7642 119.99 97.7068 119.99C96.5876 119.99 95.592 119.766 94.7131 119.316C93.8343 118.853 93.1339 118.15 92.6258 117.209C92.1108 116.254 91.8568 115.067 91.8568 113.641C91.8568 111.527 92.5709 109.96 93.999 108.949C95.4272 107.923 97.4939 107.34 100.206 107.207L103.419 107.095L103.419 106.814C103.419 105.936 103.207 105.318 102.788 104.959C102.362 104.587 101.799 104.397 101.085 104.397C100.316 104.397 99.4645 104.538 98.5307 104.819C97.5969 105.086 96.6631 105.43 95.7293 105.858L93.7793 101.363C94.8916 100.787 96.155 100.345 97.5695 100.043C98.977 99.7476 100.549 99.5931 102.293 99.5931ZM103.447 110.831L101.936 110.916C100.707 110.958 99.849 111.168 99.3547 111.562C98.8603 111.955 98.6131 112.51 98.6131 113.219C98.6131 113.894 98.7848 114.392 99.135 114.708C99.4783 115.032 99.9452 115.186 100.536 115.186C101.339 115.186 102.026 114.933 102.596 114.428C103.159 113.908 103.447 113.219 103.447 112.377L103.447 110.831Z" fill="#4d5e79" fill-rule="evenodd" opacity="1" stroke="none"/>
<path d="M112.281 99.9302L119.284 99.9302L122.553 111.253C122.587 111.407 122.621 111.604 122.663 111.843C122.718 112.089 122.759 112.341 122.8 112.601C122.834 112.868 122.862 113.128 122.882 113.388L123.02 113.388C123.075 112.924 123.136 112.51 123.212 112.152C123.281 111.801 123.356 111.506 123.432 111.281L126.782 99.9302L133.566 99.9302L125.931 120.918C125.34 122.505 124.654 123.847 123.871 124.935C123.102 126.017 122.148 126.832 121.015 127.38C119.875 127.942 118.46 128.222 116.758 128.222C116.153 128.222 115.632 128.18 115.192 128.11C114.753 128.054 114.368 127.984 114.039 127.913L114.039 122.575C114.293 122.631 114.595 122.674 114.945 122.716C115.309 122.772 115.693 122.8 116.099 122.8C116.826 122.8 117.424 122.638 117.884 122.322C118.357 122.02 118.742 121.627 119.037 121.142C119.326 120.651 119.587 120.117 119.806 119.541L119.861 119.372L112.281 99.9302Z" fill="#4d5e79" fill-rule="evenodd" opacity="1" stroke="none"/>
</g>
</g>
</svg>
