<?xml version="1.0" encoding="UTF-8" standalone="no"?>
<!DOCTYPE svg PUBLIC "-//W3C//DTD SVG 1.1//EN" "http://www.w3.org/Graphics/SVG/1.1/DTD/svg11.dtd">
<!-- Created with Vectornator (http://vectornator.io/) -->
<svg height="100%" stroke-miterlimit="10" style="fill-rule:nonzero;clip-rule:evenodd;stroke-linecap:round;stroke-linejoin:round;" version="1.1" viewBox="0 0 577.5 328.5" width="100%" xml:space="preserve" xmlns="http://www.w3.org/2000/svg" xmlns:vectornator="http://vectornator.io" xmlns:xlink="http://www.w3.org/1999/xlink">
<defs/>
<clipPath id="ArtboardFrame">
<rect height="328.5" width="577.5" x="0" y="0"/>
</clipPath>
<g clip-path="url(#ArtboardFrame)" id="Untitled" vectornator:layerName="Untitled">
<path d="M265.828 200.309C265.828 202.804 265.172 204.697 263.859 205.977C262.556 207.246 260.641 207.881 258.103 207.881L254.535 207.881L254.535 192.999L258.562 192.999C260.937 192.999 262.742 193.628 263.968 194.881C265.205 196.123 265.828 197.934 265.828 200.309ZM264.712 200.352C264.712 198.224 264.165 196.621 263.071 195.538C261.987 194.46 260.406 193.918 258.322 193.918L255.586 193.918L255.586 206.962L258.037 206.962C262.485 206.962 264.712 204.762 264.712 200.352Z" fill="#4d5e79" fill-rule="evenodd" opacity="1" stroke="none"/>
<path d="M273.456 208.078C271.848 208.078 270.595 207.591 269.692 206.612C268.784 205.621 268.335 204.226 268.335 202.432C268.335 200.67 268.762 199.258 269.626 198.208C270.502 197.146 271.673 196.61 273.15 196.61C274.447 196.61 275.475 197.07 276.236 197.989C276.991 198.897 277.374 200.123 277.374 201.666L277.374 202.497L269.408 202.497C269.419 204.018 269.769 205.178 270.458 205.977C271.158 206.765 272.154 207.159 273.456 207.159C274.08 207.159 274.627 207.115 275.098 207.028C275.579 206.94 276.192 206.754 276.936 206.459L276.936 207.378C276.307 207.657 275.722 207.837 275.185 207.925C274.66 208.023 274.08 208.078 273.456 208.078ZM273.15 197.507C272.083 197.507 271.23 197.858 270.589 198.558C269.944 199.258 269.566 200.276 269.451 201.6L276.302 201.6C276.302 200.32 276.023 199.318 275.47 198.602C274.912 197.874 274.14 197.507 273.15 197.507Z" fill="#4d5e79" fill-rule="evenodd" opacity="1" stroke="none"/>
<path d="M284.815 208.078C283.239 208.078 281.997 207.586 281.095 206.59C280.203 205.6 279.76 204.204 279.76 202.41C279.76 200.588 280.225 199.165 281.16 198.142C282.09 197.124 283.36 196.61 284.968 196.61C285.931 196.61 286.851 196.78 287.726 197.113L287.442 198.011C286.489 197.693 285.658 197.529 284.947 197.529C283.59 197.529 282.561 197.956 281.861 198.799C281.171 199.63 280.832 200.828 280.832 202.388C280.832 203.892 281.171 205.069 281.861 205.911C282.561 206.743 283.535 207.159 284.793 207.159C285.8 207.159 286.73 206.984 287.595 206.634L287.595 207.575C286.894 207.908 285.964 208.078 284.815 208.078Z" fill="#4d5e79" fill-rule="evenodd" opacity="1" stroke="none"/>
<path d="M294.771 208.078C293.162 208.078 291.909 207.591 291.006 206.612C290.098 205.621 289.649 204.226 289.649 202.432C289.649 200.67 290.076 199.258 290.941 198.208C291.816 197.146 292.987 196.61 294.464 196.61C295.761 196.61 296.789 197.07 297.55 197.989C298.305 198.897 298.688 200.123 298.688 201.666L298.688 202.497L290.722 202.497C290.733 204.018 291.083 205.178 291.772 205.977C292.473 206.765 293.468 207.159 294.771 207.159C295.394 207.159 295.941 207.115 296.412 207.028C296.893 206.94 297.506 206.754 298.25 206.459L298.25 207.378C297.621 207.657 297.036 207.837 296.499 207.925C295.974 208.023 295.394 208.078 294.771 208.078ZM294.464 197.507C293.397 197.507 292.544 197.858 291.904 198.558C291.258 199.258 290.88 200.276 290.765 201.6L297.616 201.6C297.616 200.32 297.337 199.318 296.784 198.602C296.226 197.874 295.454 197.507 294.464 197.507Z" fill="#4d5e79" fill-rule="evenodd" opacity="1" stroke="none"/>
<path d="M315.54 207.881L315.54 200.637C315.54 199.559 315.327 198.771 314.905 198.273C314.479 197.781 313.839 197.529 312.98 197.529C311.841 197.529 310.999 197.847 310.463 198.47C309.921 199.083 309.653 200.062 309.653 201.403L309.653 207.881L308.624 207.881L308.624 200.331C308.624 198.465 307.771 197.529 306.064 197.529C304.893 197.529 304.05 197.868 303.525 198.536C303 199.209 302.737 200.287 302.737 201.775L302.737 207.881L301.73 207.881L301.73 196.829L302.562 196.829L302.759 198.339L302.825 198.339C303.131 197.786 303.558 197.365 304.116 197.07C304.685 196.763 305.309 196.61 305.998 196.61C307.732 196.61 308.849 197.267 309.346 198.58L309.39 198.58C309.751 197.94 310.233 197.453 310.835 197.113C311.448 196.78 312.137 196.61 312.914 196.61C314.123 196.61 315.026 196.933 315.628 197.573C316.224 198.219 316.525 199.236 316.525 200.637L316.525 207.881L315.54 207.881Z" fill="#4d5e79" fill-rule="evenodd" opacity="1" stroke="none"/>
<path d="M324.769 196.61C326.311 196.61 327.471 197.102 328.248 198.076C329.036 199.039 329.43 200.462 329.43 202.344C329.43 204.182 329.014 205.6 328.183 206.59C327.362 207.586 326.213 208.078 324.725 208.078C323.937 208.078 323.226 207.914 322.602 207.597C321.973 207.279 321.475 206.82 321.114 206.218L321.004 206.218L320.72 207.881L320.107 207.881L320.107 192.058L321.114 192.058L321.114 196.019C321.114 196.621 321.097 197.174 321.07 197.682L321.026 198.536L321.114 198.536C321.519 197.879 322.022 197.398 322.624 197.092C323.22 196.774 323.937 196.61 324.769 196.61ZM324.747 197.529C323.444 197.529 322.514 197.901 321.945 198.645C321.387 199.39 321.114 200.626 321.114 202.344L321.114 202.519C321.114 204.182 321.404 205.381 321.989 206.108C322.569 206.825 323.483 207.181 324.725 207.181C325.934 207.181 326.848 206.765 327.46 205.933C328.073 205.091 328.38 203.887 328.38 202.322C328.38 199.127 327.165 197.529 324.747 197.529Z" fill="#4d5e79" fill-rule="evenodd" opacity="1" stroke="none"/>
<path d="M336.962 208.078C335.353 208.078 334.1 207.591 333.197 206.612C332.289 205.621 331.84 204.226 331.84 202.432C331.84 200.67 332.267 199.258 333.132 198.208C334.007 197.146 335.178 196.61 336.655 196.61C337.952 196.61 338.981 197.07 339.741 197.989C340.496 198.897 340.879 200.123 340.879 201.666L340.879 202.497L332.913 202.497C332.924 204.018 333.274 205.178 333.963 205.977C334.664 206.765 335.659 207.159 336.962 207.159C337.585 207.159 338.132 207.115 338.603 207.028C339.085 206.94 339.697 206.754 340.441 206.459L340.441 207.378C339.812 207.657 339.227 207.837 338.691 207.925C338.165 208.023 337.585 208.078 336.962 208.078ZM336.655 197.507C335.588 197.507 334.735 197.858 334.095 198.558C333.449 199.258 333.071 200.276 332.957 201.6L339.807 201.6C339.807 200.32 339.528 199.318 338.975 198.602C338.417 197.874 337.646 197.507 336.655 197.507Z" fill="#4d5e79" fill-rule="evenodd" opacity="1" stroke="none"/>
<path d="M348.277 196.61C348.742 196.61 349.24 196.654 349.765 196.741L349.59 197.726C349.119 197.611 348.638 197.551 348.145 197.551C347.193 197.551 346.422 197.956 345.825 198.755C345.224 199.543 344.928 200.549 344.928 201.775L344.928 207.881L343.921 207.881L343.921 196.829L344.775 196.829L344.862 198.82L344.95 198.82C345.399 198.005 345.88 197.436 346.394 197.113C346.903 196.78 347.532 196.61 348.277 196.61Z" fill="#4d5e79" fill-rule="evenodd" opacity="1" stroke="none"/>
<path d="M214.475 142.273L214.475 203.181" fill="none" fill-rule="evenodd" opacity="1" stroke="#9db4c9" stroke-linecap="butt" stroke-linejoin="miter" stroke-width="1.49902"/>
<path d="M385.106 138.947L385.106 199.849" fill="none" fill-rule="evenodd" opacity="1" stroke="#9db4c9" stroke-linecap="butt" stroke-linejoin="miter" stroke-width="1.49902"/>
<g opacity="1">
<path d="M429.738 179.365L415.338 179.365L415.338 175.841L420.174 170.939C421.181 169.888 421.958 169.051 422.516 168.422C423.085 167.782 423.479 167.24 423.698 166.802C423.928 166.354 424.048 165.883 424.048 165.401C424.048 164.822 423.857 164.395 423.479 164.132C423.096 163.869 422.648 163.738 422.122 163.738C421.493 163.738 420.858 163.924 420.218 164.285C419.589 164.635 418.872 165.155 418.073 165.839L415.119 162.403C415.715 161.867 416.35 161.353 417.023 160.871C417.69 160.39 418.478 159.996 419.387 159.689C420.306 159.383 421.422 159.23 422.735 159.23C424.092 159.23 425.257 159.465 426.237 159.93C427.227 160.401 427.993 161.046 428.535 161.878C429.087 162.699 429.366 163.623 429.366 164.657C429.366 165.812 429.153 166.84 428.732 167.743C428.305 168.635 427.67 169.532 426.828 170.435C425.996 171.343 424.951 172.361 423.698 173.499L422.232 174.79L422.232 174.944L429.738 174.944L429.738 179.365Z" fill="#4d5e79" fill-rule="evenodd" opacity="1" stroke="none"/>
<path d="M446.127 169.472C446.127 171.064 445.996 172.487 445.733 173.74C445.481 174.998 445.082 176.06 444.529 176.935C443.971 177.811 443.238 178.484 442.319 178.949C441.411 179.397 440.289 179.627 438.948 179.627C437.296 179.627 435.939 179.228 434.878 178.423C433.827 177.608 433.045 176.443 432.536 174.922C432.038 173.406 431.792 171.59 431.792 169.472C431.792 167.316 432.016 165.478 432.47 163.957C432.919 162.425 433.674 161.26 434.725 160.455C435.775 159.64 437.181 159.23 438.948 159.23C440.612 159.23 441.969 159.64 443.019 160.455C444.081 161.26 444.863 162.425 445.361 163.957C445.87 165.478 446.127 167.316 446.127 169.472ZM437.132 169.472C437.132 170.758 437.176 171.847 437.263 172.733C437.362 173.609 437.548 174.265 437.81 174.703C438.073 175.141 438.451 175.359 438.948 175.359C439.441 175.359 439.824 175.141 440.087 174.703C440.349 174.265 440.53 173.609 440.634 172.733C440.732 171.858 440.787 170.774 440.787 169.472C440.787 168.159 440.732 167.065 440.634 166.189C440.53 165.303 440.349 164.635 440.087 164.198C439.824 163.749 439.441 163.519 438.948 163.519C438.451 163.519 438.073 163.749 437.81 164.198C437.548 164.635 437.362 165.303 437.263 166.189C437.176 167.065 437.132 168.159 437.132 169.472Z" fill="#4d5e79" fill-rule="evenodd" opacity="1" stroke="none"/>
<path d="M462.34 179.365L447.94 179.365L447.94 175.841L452.776 170.939C453.783 169.888 454.56 169.051 455.118 168.422C455.687 167.782 456.081 167.24 456.3 166.802C456.53 166.354 456.65 165.883 456.65 165.401C456.65 164.822 456.459 164.395 456.081 164.132C455.698 163.869 455.249 163.738 454.724 163.738C454.095 163.738 453.46 163.924 452.82 164.285C452.191 164.635 451.474 165.155 450.675 165.839L447.721 162.403C448.317 161.867 448.952 161.353 449.625 160.871C450.292 160.39 451.08 159.996 451.988 159.689C452.908 159.383 454.024 159.23 455.337 159.23C456.694 159.23 457.859 159.465 458.839 159.93C459.829 160.401 460.595 161.046 461.137 161.878C461.689 162.699 461.968 163.623 461.968 164.657C461.968 165.812 461.755 166.84 461.334 167.743C460.907 168.635 460.272 169.532 459.43 170.435C458.598 171.343 457.553 172.361 456.3 173.499L454.834 174.79L454.834 174.944L462.34 174.944L462.34 179.365Z" fill="#4d5e79" fill-rule="evenodd" opacity="1" stroke="none"/>
<path d="M478.641 179.365L464.241 179.365L464.241 175.841L469.077 170.939C470.084 169.888 470.861 169.051 471.419 168.422C471.988 167.782 472.382 167.24 472.601 166.802C472.831 166.354 472.951 165.883 472.951 165.401C472.951 164.822 472.76 164.395 472.382 164.132C471.999 163.869 471.55 163.738 471.025 163.738C470.396 163.738 469.761 163.924 469.121 164.285C468.492 164.635 467.775 165.155 466.976 165.839L464.022 162.403C464.618 161.867 465.253 161.353 465.926 160.871C466.593 160.39 467.381 159.996 468.289 159.689C469.209 159.383 470.325 159.23 471.638 159.23C472.995 159.23 474.16 159.465 475.14 159.93C476.13 160.401 476.896 161.046 477.438 161.878C477.99 162.699 478.269 163.623 478.269 164.657C478.269 165.812 478.056 166.84 477.635 167.743C477.208 168.635 476.573 169.532 475.73 170.435C474.899 171.343 473.854 172.361 472.601 173.499L471.135 174.79L471.135 174.944L478.641 174.944L478.641 179.365Z" fill="#4d5e79" fill-rule="evenodd" opacity="1" stroke="none"/>
</g>
<path d="M288.005 176.536L277.413 176.536L277.413 157.43C277.413 157.069 277.413 156.418 277.413 155.482C277.413 154.536 277.418 153.491 277.435 152.353C277.462 151.204 277.506 150.164 277.566 149.245C277.095 149.803 276.669 150.274 276.275 150.668C275.881 151.051 275.498 151.406 275.137 151.74L270.738 155.351L265.31 148.698L278.595 137.886L288.005 137.886L288.005 176.536Z" fill="#4d5e79" fill-rule="evenodd" opacity="1" stroke="none"/>
<path d="M296.687 160.188C296.687 157.972 296.84 155.767 297.147 153.578C297.464 151.379 298.044 149.305 298.876 147.363C299.707 145.409 300.873 143.681 302.377 142.176C303.893 140.677 305.841 139.495 308.221 138.63C310.612 137.771 313.517 137.339 316.931 137.339C317.686 137.339 318.617 137.383 319.711 137.47C320.805 137.558 321.708 137.662 322.425 137.777L322.425 145.94C321.708 145.809 320.898 145.694 319.995 145.59C319.087 145.492 317.987 145.437 316.691 145.437C314.075 145.437 312.018 145.831 310.519 146.619C309.014 147.407 307.925 148.534 307.258 149.989C306.585 151.45 306.196 153.206 306.098 155.263L306.404 155.263C306.869 154.421 307.433 153.66 308.09 152.987C308.746 152.303 309.556 151.762 310.519 151.368C311.493 150.963 312.669 150.755 314.042 150.755C316.302 150.755 318.245 151.247 319.864 152.221C321.484 153.201 322.72 154.623 323.585 156.489C324.46 158.36 324.898 160.636 324.898 163.317C324.898 166.206 324.34 168.679 323.234 170.737C322.14 172.794 320.57 174.364 318.529 175.442C316.483 176.525 314.053 177.062 311.241 177.062C309.167 177.062 307.241 176.722 305.463 176.055C303.696 175.387 302.159 174.364 300.845 172.991C299.532 171.607 298.509 169.856 297.781 167.738C297.048 165.61 296.687 163.093 296.687 160.188ZM311 168.789C312.106 168.789 313.014 168.368 313.714 167.519C314.415 166.677 314.765 165.347 314.765 163.536C314.765 162.064 314.469 160.91 313.889 160.078C313.32 159.247 312.39 158.831 311.11 158.831C310.245 158.831 309.518 159.039 308.921 159.444C308.319 159.854 307.86 160.379 307.542 161.019C307.22 161.649 307.061 162.305 307.061 162.989C307.061 163.689 307.132 164.384 307.28 165.068C307.438 165.758 307.679 166.376 308.002 166.929C308.336 167.487 308.746 167.935 309.228 168.285C309.72 168.625 310.311 168.789 311 168.789Z" fill="#4d5e79" fill-rule="evenodd" opacity="1" stroke="none"/>
<g opacity="1">
<path d="M93.9904 181.252L88.7159 181.252L88.7159 161.402L100.447 161.402L100.447 165.691L93.9904 165.691L93.9904 169.5L99.9433 169.5L99.9433 173.789L93.9904 173.789L93.9904 181.252Z" fill="#4d5e79" fill-rule="evenodd" opacity="1" stroke="none"/>
<path d="M112.686 165.582C112.976 165.582 113.282 165.604 113.605 165.648C113.922 165.691 114.158 165.73 114.305 165.757L113.824 170.769C113.66 170.725 113.441 170.692 113.167 170.66C112.888 170.616 112.511 170.594 112.029 170.594C111.69 170.594 111.334 170.632 110.957 170.703C110.574 170.763 110.213 170.895 109.863 171.097C109.523 171.305 109.25 171.617 109.031 172.038C108.812 172.449 108.703 172.996 108.703 173.68L108.703 181.252L103.406 181.252L103.406 165.867L107.346 165.867L108.177 168.318L108.44 168.318C108.714 167.809 109.075 167.349 109.512 166.939C109.95 166.534 110.443 166.206 111.001 165.954C111.553 165.708 112.117 165.582 112.686 165.582Z" fill="#4d5e79" fill-rule="evenodd" opacity="1" stroke="none"/>
<path d="M121.801 165.867L121.801 181.252L116.483 181.252L116.483 165.867L121.801 165.867ZM119.153 159.673C119.908 159.673 120.575 159.837 121.144 160.154C121.713 160.461 121.998 161.09 121.998 162.037C121.998 162.956 121.713 163.58 121.144 163.897C120.575 164.22 119.908 164.378 119.153 164.378C118.376 164.378 117.714 164.22 117.161 163.897C116.619 163.58 116.351 162.956 116.351 162.037C116.351 161.09 116.619 160.461 117.161 160.154C117.714 159.837 118.376 159.673 119.153 159.673Z" fill="#4d5e79" fill-rule="evenodd" opacity="1" stroke="none"/>
<path d="M130.279 181.515C128.703 181.515 127.395 180.847 126.361 179.501C125.338 178.144 124.829 176.169 124.829 173.57C124.829 170.944 125.355 168.963 126.405 167.617C127.456 166.261 128.818 165.582 130.498 165.582C131.182 165.582 131.773 165.686 132.27 165.888C132.763 166.096 133.195 166.364 133.562 166.698C133.923 167.037 134.246 167.415 134.525 167.836L134.634 167.836C134.557 167.459 134.492 166.928 134.437 166.239C134.393 165.555 134.371 164.882 134.371 164.225L134.371 160.111L139.733 160.111L139.733 181.252L135.706 181.252L134.568 179.304L134.371 179.304C134.12 179.715 133.813 180.087 133.452 180.421C133.086 180.76 132.642 181.028 132.117 181.23C131.603 181.416 130.99 181.515 130.279 181.515ZM132.467 177.335C133.31 177.335 133.912 177.067 134.262 176.525C134.612 175.989 134.798 175.163 134.831 174.052L134.831 173.636C134.831 172.427 134.656 171.502 134.306 170.857C133.967 170.2 133.332 169.872 132.402 169.872C131.773 169.872 131.247 170.178 130.826 170.791C130.416 171.404 130.213 172.361 130.213 173.658C130.213 174.944 130.416 175.879 130.826 176.459C131.247 177.045 131.794 177.335 132.467 177.335Z" fill="#4d5e79" fill-rule="evenodd" opacity="1" stroke="none"/>
<path d="M150.905 165.582C152.842 165.582 154.363 166.074 155.457 167.048C156.562 168.011 157.12 169.385 157.12 171.163L157.12 181.252L153.422 181.252L152.415 179.217L152.306 179.217C151.868 179.758 151.414 180.202 150.949 180.552C150.494 180.891 149.975 181.132 149.395 181.274C148.809 181.433 148.087 181.515 147.228 181.515C146.353 181.515 145.554 181.34 144.843 180.99C144.142 180.628 143.584 180.081 143.179 179.348C142.769 178.604 142.566 177.674 142.566 176.547C142.566 174.9 143.135 173.68 144.273 172.892C145.412 172.093 147.064 171.639 149.242 171.535L151.802 171.469L151.802 171.25C151.802 170.55 151.627 170.063 151.277 169.784C150.938 169.494 150.489 169.346 149.92 169.346C149.318 169.346 148.64 169.456 147.885 169.675C147.141 169.883 146.396 170.151 145.652 170.484L144.12 166.983C144.996 166.534 145.992 166.189 147.119 165.954C148.24 165.708 149.504 165.582 150.905 165.582ZM151.824 174.38L150.598 174.424C149.619 174.468 148.935 174.643 148.541 174.949C148.147 175.256 147.95 175.688 147.95 176.24C147.95 176.766 148.087 177.154 148.366 177.4C148.656 177.652 149.028 177.772 149.482 177.772C150.122 177.772 150.67 177.57 151.124 177.16C151.589 176.755 151.824 176.229 151.824 175.584L151.824 174.38Z" fill="#4d5e79" fill-rule="evenodd" opacity="1" stroke="none"/>
<path d="M158.871 165.867L164.452 165.867L167.078 174.686C167.106 174.818 167.133 174.982 167.166 175.168C167.21 175.343 167.242 175.54 167.275 175.759C167.303 175.967 167.319 176.169 167.319 176.372L167.428 176.372C167.472 175.994 167.521 175.666 167.582 175.387C167.653 175.113 167.713 174.883 167.757 174.708L170.449 165.867L175.854 165.867L169.77 182.237C169.3 183.474 168.752 184.519 168.129 185.367C167.516 186.209 166.75 186.844 165.831 187.271C164.923 187.708 163.801 187.927 162.46 187.927C161.962 187.927 161.541 187.905 161.191 187.862C160.841 187.818 160.534 187.763 160.272 187.708L160.272 183.528C160.474 183.572 160.72 183.605 161.016 183.638C161.306 183.681 161.607 183.703 161.913 183.703C162.51 183.703 162.991 183.578 163.358 183.331C163.719 183.096 164.02 182.79 164.255 182.412C164.485 182.029 164.693 181.613 164.868 181.165L164.933 181.033L158.871 165.867Z" fill="#4d5e79" fill-rule="evenodd" opacity="1" stroke="none"/>
</g>
<g opacity="1">
<clipPath id="ClipPath">
<path d="M-185.442-102.959L785.231-102.959L785.231-102.959L785.231 449.19L785.231 449.19L-185.442 449.19L-185.442 449.19L-185.442-102.959L-185.442-102.959Z" fill-rule="evenodd"/>
</clipPath>
<g clip-path="url(#ClipPath)">
<clipPath id="ClipPath_2">
<path d="M0.498766 48.1047L599.99 48.1047L599.99 48.1047L599.99 297.426L599.99 297.426L0.498766 297.426L0.498766 297.426L0.498766 48.1047L0.498766 48.1047Z" fill-rule="evenodd"/>
</clipPath>
<g clip-path="url(#ClipPath_2)">
<g opacity="1">
<clipPath id="ClipPath_3">
<path d="M0.777808 220.389L303.046 220.389L303.046 296.025L0.777808 296.025L0.777808 220.389Z" fill-rule="evenodd"/>
</clipPath>
<g clip-path="url(#ClipPath_3)">
<path d="M201.852 227.097C202.635 228.897 203.422 230.697 204.21 232.491C206.552 237.667 208.62 242.816 211.186 248.008L218.217 261.424L218.201 261.588L219.114 263.175C221.867 267.968 224.668 272.744 227.885 277.39C229.499 279.71 231.283 281.969 233.072 284.224C235.058 286.418 236.962 288.644 239.479 290.631C240.562 291.659 242.122 292.562 243.528 293.47C244.671 294.318 247.796 295.418 249.289 295.692L250.291 295.801L250.788 295.856L251.035 295.878L251.161 295.9C252.676 296.009 251.604 295.921 251.959 295.949L251.987 295.943L252.063 295.932L254.547 295.588C256.183 295.265 257.869 295.259 259.384 294.504C260.916 293.859 262.53 293.361 263.925 292.524L267.936 289.766L271.268 286.412C272.28 285.241 273.101 283.944 274.004 282.724C275.596 280.147 276.898 277.461 277.894 274.441C278.474 272.931 278.589 271.787 278.961 270.43C279.349 268.728 279.464 267.705 279.732 266.31C280.662 261.085 281.74 255.947 283.086 250.914C284.481 245.924 286.189 240.956 289.116 236.786C290.527 234.653 292.36 232.869 294.505 231.43C296.677 230.035 299.243 229.345 301.935 229.011C299.298 228.908 296.491 229.137 293.898 230.248C291.359 231.392 288.99 233.044 287.069 235.107C283.218 239.249 280.695 244.299 278.512 249.321C276.324 254.377 274.737 259.586 273.167 264.74C272.795 265.938 272.373 267.541 272.05 268.395C271.569 269.577 271.191 271.081 270.639 271.995C269.698 273.954 268.423 275.984 266.995 277.816C266.223 278.659 265.545 279.589 264.735 280.361L262.207 282.484L259.444 284.021C258.509 284.481 257.48 284.612 256.533 284.957C255.609 285.405 254.509 285.186 253.524 285.318L252.255 285.416L251.806 285.323L250.827 285.126C250.094 284.995 250.373 284.721 250.094 284.628C249.973 284.519 249.782 284.486 249.328 284.07C248.562 283.425 247.774 282.987 247.008 282.062C245.443 280.574 243.96 278.637 242.472 276.782C241.082 274.753 239.665 272.723 238.363 270.567C235.759 266.239 233.444 261.638 231.163 257.009L231.179 257.074L230.993 256.675L224.405 241.99C222.2 237.082 220.291 231.769 218.228 226.675C217.446 224.771 216.696 222.84 215.952 220.908L0.996665 220.908L201.852 227.097Z" fill="#aae9e9" fill-rule="evenodd" opacity="1" stroke="none"/>
</g>
</g>
<g opacity="1">
<clipPath id="ClipPath_4">
<path d="M0.777808 48.8379L352.07 48.8379L352.07 125.142L0.777808 125.142L0.777808 48.8379Z" fill-rule="evenodd"/>
</clipPath>
<g clip-path="url(#ClipPath_4)">
<path d="M0.996665 124.754L194.739 124.754L195.604 117.816L197.141 110.265L199.292 102.906C201.081 98.1627 202.946 93.3971 205.452 89.0583C207.909 84.7358 210.771 80.4681 214.004 77.3385C215.968 75.4892 218.064 73.1529 219.913 71.7139C221.823 70.4172 223.377 68.6663 225.522 67.6267L228.553 65.8157C229.581 65.3452 230.632 64.9895 231.666 64.5463C232.689 64.0211 233.734 63.7694 234.785 63.5615C235.83 63.3317 236.875 62.9323 237.92 62.987C242.105 62.5055 246.34 63.4138 250.345 65.564C254.422 67.8018 257.885 70.7071 261.299 74.9967L261.02 74.6301L265.26 79.6529C266.705 81.2943 268.029 83.0124 269.566 84.5772L274.48 89.0364C276.088 90.5301 277.719 92.0074 279.661 93.1673L285.22 96.855C287.184 97.911 289.274 98.7974 291.304 99.7166C293.29 100.734 295.479 101.281 297.657 101.823C299.823 102.387 301.952 103.038 304.195 103.12C306.422 103.251 308.605 103.738 310.815 103.536C313.02 103.377 315.225 103.404 317.381 103.071C319.526 102.655 321.665 102.288 323.755 101.741C325.796 101.052 327.864 100.477 329.85 99.7002C333.79 98.0533 337.625 96.2422 341.122 93.884C344.662 91.6353 347.961 89.0418 350.954 86.1803C344.098 90.8201 336.422 94.0263 328.68 96.0343C326.732 96.4939 324.74 96.7565 322.803 97.1395C320.839 97.3693 318.858 97.3857 316.916 97.5608C314.963 97.6484 313.015 97.3748 311.094 97.3091C309.152 97.2927 307.297 96.5979 305.426 96.2915C303.522 96.0343 301.771 95.2245 299.993 94.5461C298.215 93.884 296.436 93.2494 294.855 92.1551C293.23 91.1483 291.54 90.3222 289.964 89.2771L285.516 85.6824C283.962 84.5881 282.659 83.1601 281.368 81.7156L277.462 77.4862C276.236 75.9925 275.186 74.3128 274.042 72.748L270.672 68.0097L270.398 67.6432C267.164 62.9542 262.371 57.9861 256.807 54.5446C251.21 50.9936 244.146 48.8543 237.148 49.1662C230.221 49.489 223.453 51.6064 218.037 54.9714C215.093 56.3611 212.62 58.6317 209.917 60.492C207.335 62.4563 205.638 64.2782 203.45 66.1768C198.493 70.6962 194.909 75.7244 191.632 80.9606C188.294 86.1639 185.936 91.8159 183.775 97.5006C182.828 100.384 181.931 103.289 181.099 106.189C180.453 109.138 179.742 112.082 179.173 115.037L178.692 118.566L0.996665 124.754Z" fill="#39c4c4" fill-rule="evenodd" opacity="1" stroke="none"/>
</g>
</g>
<g opacity="1">
<clipPath id="ClipPath_5">
<path d="M289.039 220.389L599.175 220.389L599.175 296.594L289.039 296.594L289.039 220.389Z" fill-rule="evenodd"/>
</clipPath>
<g clip-path="url(#ClipPath_5)">
<path d="M598.973 220.908L383.169 220.908C379.651 230.626 376.051 240.294 371.876 249.617C369.37 255.302 366.591 260.839 363.724 266.206C360.824 271.519 357.58 276.684 353.914 280.678C352.152 282.631 350.029 284.256 348.809 284.678C348.574 284.782 348.251 284.825 348.366 284.858L346.007 284.825C345.542 284.743 345.077 284.71 344.59 284.667L342.878 284.273C338.369 282.971 334.233 279.195 331.404 274.397C329.949 271.913 328.964 269.593 328.127 266.545L325.539 257.315C323.794 251.138 322.054 244.884 319.597 238.756C317.064 232.82 314.153 226.237 307.992 222.413C306.635 221.614 305.152 221.155 303.648 220.914L299.287 220.914C298.827 220.985 298.357 221.023 297.919 221.144C294.653 221.91 291.786 223.524 289.132 225.296C294.702 222.473 301.87 220.908 306.482 224.716C311.045 228.328 313.124 234.505 314.793 240.381C316.424 246.383 317.583 252.599 318.678 258.869L320.325 268.345C320.828 271.535 321.813 275.354 323.356 278.528C326.349 285.006 331.421 291.336 339.053 294.543L341.937 295.549C343.004 295.817 344.131 296.036 345.236 296.239L347.676 296.507C349.394 296.616 350.669 296.408 351.982 296.102C356.956 294.685 359.943 292.08 362.728 289.618C368.107 284.535 372.051 278.982 375.723 273.352C379.383 267.722 382.469 261.867 385.424 256.002C390.102 246.493 394.386 236.868 398.232 227.113L598.973 220.908Z" fill="#39c4c4" fill-rule="evenodd" opacity="1" stroke="none"/>
</g>
</g>
<g opacity="1">
<clipPath id="ClipPath_6">
<path d="M296.043 49.5054L599.175 49.5054L599.175 125.142L296.043 125.142L296.043 49.5054Z" fill-rule="evenodd"/>
</clipPath>
<g clip-path="url(#ClipPath_6)">
<path d="M421.3 118.56C420.462 113.45 419.231 108.29 417.623 103.645L417.409 103.01C415.79 99.2406 414.17 95.4708 412.321 91.7721C410.504 88.0734 408.573 84.3802 406.341 80.8238C405.285 79.0237 404.048 77.3002 402.861 75.5548C401.706 73.7985 400.289 72.1516 399.025 70.45C396.262 67.1617 393.384 63.9281 389.965 61.0884C383.366 55.3434 374.634 50.8021 365.196 50.4793C360.54 50.2277 355.927 50.9991 351.676 52.4545C349.553 53.2041 347.512 54.1069 345.559 55.1793C343.644 56.2134 341.691 57.5265 340.104 58.8615L339.814 59.0913C336.646 62.0568 333.5 65.0606 330.195 67.8675C326.907 70.7017 323.509 73.3936 320.046 75.9925C318.3 77.2619 316.522 78.4984 314.689 79.6529C312.873 80.8238 310.985 81.8634 309.075 82.8646C307.139 83.8166 305.163 84.7194 303.084 85.3049C301.027 85.8903 298.822 86.3609 296.672 85.7809C298.696 86.7603 301.093 86.7165 303.32 86.5141C305.579 86.3116 307.795 85.7645 309.984 85.1517C314.339 83.844 318.415 81.8743 322.448 79.8499C330.452 75.6807 337.828 70.5156 345.055 65.2138L344.771 65.4327C346.347 64.4205 347.813 63.7311 349.438 63.0143C351.047 62.3359 352.688 61.8052 354.346 61.4003C357.673 60.6397 361.037 60.4428 364.26 60.9626C370.722 61.9255 376.56 65.4874 381.506 70.3679C384.017 72.7589 386.206 75.6314 388.318 78.5367C389.292 80.0851 390.381 81.5077 391.267 83.1327C392.186 84.7304 393.155 86.2788 393.97 87.953C395.726 91.2031 397.373 94.568 398.861 98.015C400.35 101.331 401.641 104.767 402.938 108.192C404.584 113.827 405.389 119.091 405.837 124.754L598.973 124.754L421.3 118.56Z" fill="#aae9e9" fill-rule="evenodd" opacity="1" stroke="none"/>
</g>
</g>
</g>
</g>
</g>
</g>
</svg>
