<?xml version="1.0" encoding="UTF-8" standalone="no"?>
<!-- Created with Inkscape (http://www.inkscape.org/) -->

<svg
        viewBox="0 0 322.24963 75.908464"
        version="1.1"
        height="75.908463mm"
        width="322.24963mm"
        style="width: 100%;"
        id="c-b"
        xmlns="http://www.w3.org/2000/svg"
>
  <defs
          id="defs8"/>
  <path
          class="migration-curve"
          id="c-c"
          d="M 0.03417939,70.604158 C 71.695625,16.823895 253.41373,8.9336964 322.08373,70.4137"
          fill="none"
          stroke="#a7a7a7"
          stroke-dasharray="1, 1"
          stroke-width="0.5"/>
  <path
          class="migration-curve"
          id="c-d"
          d="M 0.03417939,70.604158 C 63.380811,-10.0327 253.41373,-18.8643 322.08373,70.4137"
          fill="none"
          stroke="#a7a7a7"
          stroke-dasharray="1, 1"
          stroke-width="0.5"/>
  <path
          class="migration-curve"
          id="c-e"
          d="M 0.03417939,70.604158 C 86.580142,43.046939 253.41373,45.0053 322.08373,70.4137"
          fill="none"
          stroke="#a7a7a7"
          stroke-dasharray="0.999998, 0.999998"
          stroke-width="0.5"/>
  <g
          id="g1315"
          class="migration-item" style="opacity: 0;">
    <ellipse
            style="fill:#e8f7f7;fill-opacity:1;stroke:none;stroke-width:0.499999;stroke-linecap:round;stroke-miterlimit:4;stroke-dasharray:none;stroke-dashoffset:0;stroke-opacity:1;stop-color:#000000"
            id="path205366"
            cx="-0.00049953244"
            cy="-0.00063563784"
            rx="4.5009308"
            ry="4.5008574"/>
    <path
            id="path201580"
            style="fill:#3bc1c1;fill-opacity:1;stroke-width:0.264583"
            d="m -0.29066396,-3.4030906 c -0.1814517,0.00373 -0.0988159,0.2823534 -0.26563227,0.3425237 a 1.4119099,1.4118869 0 0 0 -0.26143756,0.124992 1.0793267,1.0793091 0 0 0 -0.48177211,0.6117776 0.9888599,0.98884378 0 0 0 -0.033833,0.1876248 c -0.00574,0.099882 -0.00587,0.2018972 -0.00587,0.3028103 0,0.1710327 0.00681,0.3436686 0.016777,0.5130834 a 0.32421637,0.32421108 0 0 0 -0.2175385,0.2944215 c 0,0.2013394 0.2006898,0.43398751 0.3084118,0.60340236 v 0.002002 c 0.040792,0.0653667 0.49910897,0.71310577 0.49910897,0.72447267 4.2956e-4,0.0193705 -0.0138721,0.0439786 -0.0441782,0.0883581 C -1.197871,0.97185808 -2.1765975,0.90673485 -2.7574046,1.3419251 c 0.00498,0.010161 0.01058,0.020025 0.015659,0.030192 h -8.603e-4 a 3.0679691,3.0679191 0 0 0 0.010909,0.019013 c 0.04665,0.091622 0.097284,0.1807244 0.1523885,0.2664771 a 3.0679691,3.0679191 0 0 0 0.017337,0.025712 c 0.056861,0.086539 0.1173826,0.1700734 0.1823064,0.2499706 a 3.0679691,3.0679191 0 0 0 0.018176,0.021529 c 0.065319,0.078895 0.1339936,0.1547268 0.2066339,0.2264923 a 3.0679691,3.0679191 0 0 0 0.028519,0.027113 c 0.068314,0.065782 0.13901,0.1290441 0.2130662,0.1881831 h 0.00223 A 3.0679691,3.0679191 0 0 0 -4.429876e-4,3.0673813 3.0679691,3.0679191 0 0 0 1.9101517,2.3966082 h 0.00281 C 1.9921832,2.3333057 2.0676855,2.2656199 2.1402914,2.1947278 a 3.0679691,3.0679191 0 0 0 0.00616,-0.00558 c 0.078071,-0.076652 0.151792,-0.1578517 0.22145,-0.242702 a 3.0679691,3.0679191 0 0 0 0.00754,-0.00873 C 2.4430953,1.8546806 2.5063723,1.7676109 2.5653006,1.677392 A 3.0679691,3.0679191 0 0 0 2.5764796,1.660343 C 2.6329025,1.5727006 2.6846269,1.48178 2.7322239,1.3879966 A 3.0679691,3.0679191 0 0 0 2.74146,1.3720619 H 2.7405943 C 2.7456263,1.3620412 2.7513184,1.352291 2.756253,1.3421405 2.1755472,0.90682143 1.1970527,0.97120013 0.77545993,0.39176257 A 0.14694322,0.14694082 0 0 1 0.7399486,0.30535129 c 0,-0.003733 0.3984317,-0.5599962 0.5030231,-0.73200226 0.1129518,-0.18673737 0.3561148,-0.47795195 0.2980668,-0.71273353 A 0.24368518,0.24368121 0 0 0 1.3626476,-1.2914893 l 0.017336,-0.7426392 A 1.0761891,1.0761715 0 0 0 1.1023284,-2.7317444 C 0.83040678,-3.0261373 0.13339394,-3.4138991 -0.2907026,-3.4030906 Z"/>
  </g>
  <g
          id="g1309"
          class="migration-item" style="opacity: 0;">
    <ellipse
            style="fill:#e8f7f7;fill-opacity:1;stroke:none;stroke-width:0.499999;stroke-linecap:round;stroke-miterlimit:4;stroke-dasharray:none;stroke-dashoffset:0;stroke-opacity:1;stop-color:#000000"
            id="circle206832"
            cx="-0.00049953244"
            cy="-0.00063512183"
            rx="4.5009308"
            ry="4.5008574"/>
    <path
            d="M 2.3497015,2.9631276 H -2.3507023 A 0.54413541,0.54412654 0 0 1 -2.892906,2.4209706 v -4.297595 a 0.54413541,0.54412654 0 0 1 0.5422037,-0.5421569 h 0.5002372 v 0.6671452 a 0.59575103,0.59574134 0 0 0 0.2252802,0.4635388 0.70187674,0.70186532 0 0 0 0.88325412,0 0.59575103,0.59574134 0 0 0 0.22527474,-0.4635388 v -0.6671452 h 1.01012199 v 0.6671452 a 0.59575103,0.59574134 0 0 0 0.22527425,0.4635388 0.70187674,0.70186532 0 0 0 0.8832541,0 0.59575103,0.59574134 0 0 0 0.2252802,-0.4635388 v -0.6671452 h 0.522427 a 0.54510015,0.54509127 0 0 1 0.5422037,0.5421569 v 4.297595 A 0.54365299,0.54364411 0 0 1 2.3497015,2.9631276 Z M 1.1389024,-0.22585919 h 0.7766498 a 0.09985463,0.099853 0 0 1 0.09937,0.0964195 V 0.5169824 A 0.09985463,0.099853 0 0 1 1.9155522,0.613456 H 1.1389024 A 0.09937224,0.09937062 0 0 1 1.0424214,0.5169824 v -0.64398725 a 0.09888985,0.09888824 0 0 1 0.096481,-0.0964736 z m -1.52000617,0 H 0.3960222 a 0.09937224,0.09937062 0 0 1 0.0964806,0.0964195 V 0.5169824 A 0.09985463,0.099853 0 0 1 0.3960222,0.613456 h -0.77712597 a 0.09937224,0.09937062 0 0 1 -0.0964752,-0.0964736 v -0.64398725 a 0.09937224,0.09937062 0 0 1 0.0964752,-0.0964736 z m -1.53593083,0 h 0.7771314 a 0.09937224,0.09937062 0 0 1 0.096475,0.0964195 V 0.5169824 a 0.09985463,0.099853 0 0 1 -0.096475,0.0964736 h -0.7771314 a 0.09937224,0.09937062 0 0 1 -0.098888,-0.0964736 v -0.64398725 a 0.09888985,0.09888824 0 0 1 0.098888,-0.0964736 z m 3.055937,1.37427589 h 0.7766498 a 0.09985463,0.099853 0 0 1 0.09937,0.096474 v 0.646368 a 0.09937224,0.09937062 0 0 1 -0.09937,0.098908 H 1.1389024 A 0.09937224,0.09937062 0 0 1 1.0424218,1.8912584 V 1.2473252 a 0.09937224,0.09937062 0 0 1 0.096481,-0.096528 z m -1.52000617,0 H 0.3960222 a 0.09937224,0.09937062 0 0 1 0.0964806,0.096474 v 0.646368 a 0.09937224,0.09937062 0 0 1 -0.0964806,0.098908 h -0.77712597 a 0.09937224,0.09937062 0 0 1 -0.0964752,-0.098908 V 1.2473252 a 0.09985463,0.099853 0 0 1 0.0964752,-0.096528 z m -1.53593083,0 h 0.7771314 a 0.09937224,0.09937062 0 0 1 0.096475,0.096474 v 0.646368 a 0.09937224,0.09937062 0 0 1 -0.096475,0.098908 H -1.9170346 A 0.09937224,0.09937062 0 0 1 -2.015923,1.8912584 V 1.2473252 a 0.09937224,0.09937062 0 0 1 0.098888,-0.096528 z m 2.81571215,-3.8981194 c 0,-0.1181707 0.11577025,-0.2146444 0.26048845,-0.2146444 0.1447183,0 0.2619332,0.096474 0.2619332,0.2146444 v 0.9980666 c 0,0.1186577 -0.1167334,0.2146444 -0.2619332,0.2146444 -0.1451998,0 -0.26145703,-0.096474 -0.26145703,-0.2146444 v -0.9980666 z m -2.34441745,0 c 0,-0.1181707 0.1177019,-0.2146444 0.2624201,-0.2146444 0.1447182,0 0.26145161,0.096474 0.26145161,0.2146444 v 0.9980666 c 0,0.1186577 -0.11673341,0.2146444 -0.26145161,0.2146444 -0.1447182,0 -0.2624201,-0.095987 -0.2624201,-0.2146444 z m -1.2735053,1.90106639 V 2.3630756 a 0.42787951,0.42787254 0 0 0 0.426428,0.4264211 h 4.5827019 a 0.42787951,0.42787254 0 0 0 0.426915,-0.4264211 v -3.21171191 z"
            id="path201608"
            style="fill:#3bc1c1;fill-opacity:1;stroke-width:0.264583"/>
  </g>
  <g
          id="g1321"
          class="migration-item" style="opacity: 0;">
    <ellipse
            style="fill:#e8f7f7;fill-opacity:1;stroke:none;stroke-width:0.499999;stroke-linecap:round;stroke-miterlimit:4;stroke-dasharray:none;stroke-dashoffset:0;stroke-opacity:1;stop-color:#000000"
            id="circle206834"
            cx="-0.00050004845"
            cy="-0.00063563784"
            rx="4.5009308"
            ry="4.5008574"/>
    <path
            d="m 2.0756259,0.4036608 v -3.2231286 h -4.5515307 v 4.821139 l 0.4017222,0.2136704 0.5808154,-0.4902679 0.72923466,0.4878331 0.43288855,-0.4976806 0.47099166,0.3363862 A 0.79998139,0.79996835 0 0 0 0.07196071,2.1728131 0.69608772,0.69607636 0 0 0 0.04225522,2.2530004 L -0.29762647,2.0100578 -0.7265543,2.5047625 -1.4795371,2.0006431 -2.047491,2.4800354 -2.6985607,2.1332065 V -3.040551 H 2.2982331 V 0.41410354 A 0.79157093,0.79155805 0 0 0 2.165646,0.40057667 0.76139221,0.76137982 0 0 0 2.0770868,0.40598742 Z M 1.7674138,0.79945703 a 0.55212065,0.55211166 0 0 1 0.7777158,0.0156912 v 0 A 0.55212065,0.55211166 0 0 1 2.5293302,1.592835 C 2.0781368,2.025749 1.6294107,2.4541179 1.1782173,2.8870319 v 0 A 0.54816285,0.54815392 0 0 1 0.40446229,2.8713407 v 0 a 0.54915231,0.54914338 0 0 1 0.0138517,-0.774765 v 0 C 0.86950745,1.6632289 1.3137804,1.2328039 1.7654662,0.79897006 Z M 1.6684659,2.2450466 1.0906156,1.6434796 0.52563229,2.1876386 v 0 a 0.41804839,0.41804158 0 0 0 -0.0123367,0.5892305 v 0 a 0.41804839,0.41804158 0 0 0 0.58971621,0.011904 v 0 L 1.6679952,2.2446138 Z m -0.098948,-4.6113101 a 0.11033976,0.11033797 0 1 1 0,0.2206503 H 1.1242602 a 0.11033976,0.11033797 0 1 1 0,-0.2206503 z M 0.20900097,0.88997885 a 0.11035403,0.11035223 0 1 1 0,0.22070445 H -1.9984904 a 0.11035413,0.11035222 0 1 1 0,-0.22070445 z M -1.9984904,-1.1111864 v -1.1773788 h 0.6055537 a 0.87715955,0.87714526 0 0 1 0.2572583,0.029218 0.27556563,0.27556114 0 0 1 0.14347368,0.1093512 0.32602828,0.32602297 0 0 1 0.0544222,0.1914323 0.3294914,0.32948603 0 0 1 -0.0415551,0.1687612 0.31118632,0.31118125 0 0 1 -0.22757438,0.1567494 l 0.23450565,0.3894115 0.20333381,-0.3621414 h 0.39578647 l -0.36660041,0.5673711 0.40024499,0.60654486 H -0.74878744 L -0.97933775,-0.8098077 -1.2118576,-0.43186694 h -0.4056775 l 0.4032047,-0.61292956 c -0.049509,-0.08062 -0.2562734,-0.4858311 -0.3003068,-0.516997 a 0.15287213,0.15286964 0 0 0 -0.089544,-0.027054 h -0.031599 v 0.4773903 z m 0.3646146,-0.6980406 h 0.1533756 a 0.58328883,0.58327931 0 0 0 0.09647,-0.015691 0.09894636,0.09894475 0 0 0 0.05887,-0.037334 0.1197251,0.11972315 0 0 0 -0.013365,-0.1558296 0.21570307,0.21569955 0 0 0 -0.1355577,-0.033006 h -0.1597928 v 0.2394797 z m 3.2009155,0.4769033 a 0.11081993,0.11081812 0 0 1 0,0.2211373 H 0.47517083 a 0.11081993,0.11081812 0 1 1 0,-0.2211373 z m 0,1.48422239 a 0.11081993,0.11081812 0 0 1 0,0.22108317 h -3.5655301 a 0.11081993,0.11081812 0 1 1 0,-0.22108317 z m 0,-0.74208412 a 0.11081993,0.11081812 0 0 1 0,0.22108317 H 0.15211143 a 0.11081993,0.11081812 0 1 1 0,-0.22108317 z"
            id="path202253"
            style="fill:#3bc1c1;fill-opacity:1;stroke-width:0.264583"/>
  </g>
  <g
          id="g1327"
          class="migration-item" style="opacity: 0;">
    <ellipse
            style="fill:#e8f7f7;fill-opacity:1;stroke:none;stroke-width:0.499999;stroke-linecap:round;stroke-miterlimit:4;stroke-dasharray:none;stroke-dashoffset:0;stroke-opacity:1;stop-color:#000000"
            id="circle206836"
            cx="-0.00050004845"
            cy="-0.00063512183"
            rx="4.5009308"
            ry="4.5008574"/>
    <path
            class="cls-1"
            d="m -2.1708797,-2.4680624 h 0.7449802 v 0.3914135 h -0.4317306 a 0.26527546,0.26527113 0 0 0 -0.2623986,0.2619343 v 3.9689461 a 0.26431606,0.26431175 0 0 0 0.2623986,0.2619344 H 1.5636093 A 0.26287696,0.26287267 0 0 0 1.8255262,2.1542315 V -1.8166624 A 0.26431606,0.26431175 0 0 0 1.5636093,-2.0785427 H 1.1318786 v -0.3895197 h 0.7420963 a 0.31180661,0.31180153 0 0 1 0.3103655,0.3103605 v 4.653027 A 0.31228631,0.31228122 0 0 1 1.8739749,2.8056856 H -2.1708797 A 0.31180661,0.31180153 0 0 1 -2.4812452,2.4924574 v -4.653027 a 0.31132689,0.31132182 0 0 1 0.3103655,-0.3074928 z m 0.6010682,1.0404869 h 1.08125285 v 0.2158347 H -1.5698115 Z m 0,0.58089788 h 0.70996667 v 0.21583475 H -1.5698115 Z M 0.76010547,-1.5811326 H 0.9697375 a 0.07147566,0.0714745 0 0 1 0.0714718,0.07245 v 0.2662089 h 0.2671979 a 0.07147566,0.0714745 0 0 1 0.070514,0.069582 v 0.21009933 a 0.07195537,0.0719542 0 0 1 -0.070514,0.071476 H 1.0412093 v 0.26047342 a 0.07147566,0.0714745 0 0 1 -0.0714718,0.070989 H 0.76010547 a 0.07147566,0.0714745 0 0 1 -0.0714772,-0.070989 V -0.89131629 H 0.42239894 a 0.07099596,0.07099481 0 0 1 -0.071001,-0.070989 V -1.1728916 a 0.07099596,0.07099481 0 0 1 0.071001,-0.070989 H 0.6886283 v -0.2648021 a 0.07147566,0.0714745 0 0 1 0.0714772,-0.071476 z M -1.5698115,1.6808452 H 0.69438544 V 1.8971669 H -1.5698115 V 1.681278 Z m 0,-0.6509671 h 2.950172 v 0.2158347 h -2.950172 z m 0,-0.74500595 h 0.77904141 l 0.20435103,-0.2839560628 0.25040271,0.3612215528 0.27438892,-0.5358264 0.29597816,0.57900417 0.13431861,-0.0988003 0.0637992,-0.021643 H 1.378445 V 0.5007069 H 0.46700588 L 0.15712187,0.72952744 -0.06258514,0.29780384 -0.30915155,0.77752078 -0.59025533,0.37263449 -0.6818824,0.49978707 H -1.5698115 V 0.28389822 Z m 0.57564268,-2.94479975 h 0.35162856 a 0.47970247,0.47969465 0 0 1 0.46386562,-0.4317777 0.47970247,0.47969465 0 0 1 0.46579185,0.4284231 l 0.41206768,0.00541 a 0.05180787,0.05180702 0 0 1 0.0517819,0.051943 v 0.498384 a 0.05180787,0.05180702 0 0 1 -0.0517819,0.051943 h -1.69335371 a 0.05180787,0.05180702 0 0 1 -0.0518361,-0.051943 v -0.4964902 a 0.05084846,0.05084764 0 0 1 0.0518361,-0.053566 z m 0.6236151,0.2124801 a 0.34250756,0.34250198 0 0 0 0.12568291,0.1088643 0.23025719,0.23025343 0 0 0 0.12232277,0 0.34154815,0.34154258 0 0 0 0.14679058,-0.1558296 0.2926185,0.29261373 0 0 0 0.0048698,-0.051943 0.21010968,0.21010626 0 1 0 -0.41925866,0 0.23985124,0.23984733 0 0 0 0.0196955,0.095987 z"
            id="path202903"
            style="fill:#3bc1c1;fill-opacity:1;fill-rule:evenodd;stroke-width:0.264583"/>
  </g>
</svg>
