<?xml version="1.0" standalone="no"?>
<!DOCTYPE svg PUBLIC "-//W3C//DTD SVG 20010904//EN"
 "http://www.w3.org/TR/2001/REC-SVG-20010904/DTD/svg10.dtd">
<svg version="1.0" xmlns="http://www.w3.org/2000/svg"
 width="500.000000pt" height="500.000000pt" viewBox="0 0 500.000000 500.000000"
 preserveAspectRatio="xMidYMid meet">
<metadata>
Created by potrace 1.11, written by Peter Selinger 2001-2013
</metadata>
<g transform="translate(0.000000,500.000000) scale(0.100000,-0.100000)"
fill="#000000" stroke="none">
<path d="M2295 4994 c-579 -60 -1054 -268 -1472 -642 -348 -313 -632 -784
-751 -1247 -27 -105 -62 -280 -62 -311 0 -5 46 -38 103 -72 329 -198 851 -352
1387 -408 173 -18 592 -15 710 5 100 17 204 43 217 53 7 6 48 83 92 172 84
170 92 182 131 209 66 46 114 3 164 -148 67 -200 158 -355 207 -355 42 0 78
106 98 286 6 49 17 215 26 369 30 535 53 657 141 735 29 25 43 30 84 30 87 0
142 -68 193 -240 63 -207 99 -484 178 -1352 12 -136 25 -246 27 -243 2 2 15
107 28 232 49 475 94 656 185 738 34 30 46 35 90 35 71 0 104 -35 153 -162 64
-166 129 -199 272 -137 147 63 322 230 417 401 l36 65 -19 79 c-82 345 -249
685 -475 969 -396 498 -949 816 -1600 920 -96 16 -472 28 -560 19z"/>
<path d="M3362 3518 c-35 -43 -56 -205 -77 -588 -28 -515 -51 -653 -132 -758
-73 -96 -207 -79 -299 37 -46 57 -116 193 -150 289 -10 28 -21 52 -24 52 -3 0
-32 -55 -65 -121 -88 -182 -95 -188 -300 -230 -283 -58 -736 -50 -1150 21
-395 68 -851 220 -1088 362 l-77 46 0 -72 c0 -121 26 -240 79 -363 138 -322
355 -604 611 -793 185 -137 466 -257 737 -314 239 -50 420 -64 1118 -86 353
-10 481 -25 618 -71 109 -36 165 -68 227 -130 101 -101 144 -238 138 -448 -2
-72 0 -131 3 -131 3 0 55 25 115 56 371 191 708 493 940 845 247 374 392 822
411 1269 6 144 -4 390 -16 390 -4 0 -22 -20 -39 -44 -56 -78 -181 -195 -274
-256 -269 -177 -471 -129 -569 135 -12 33 -26 64 -30 69 -11 12 -44 -62 -64
-140 -27 -111 -45 -239 -80 -576 -36 -347 -48 -424 -71 -470 -42 -81 -134 -76
-170 10 -24 58 -51 244 -79 537 -53 574 -67 706 -91 895 -37 288 -78 475 -122
558 -15 28 -20 31 -30 20z"/>
</g>
</svg>
