<?xml version="1.0" encoding="UTF-8"?>
<!-- Created with Inkscape (http://www.inkscape.org/) -->
<svg width="23.126mm" height="21.899mm" version="1.1" viewBox="0 0 23.126 21.899" xmlns="http://www.w3.org/2000/svg">
 <g transform="translate(126.45 -145.2)" stroke-width="2.7401">
  <g transform="matrix(.36495 0 0 .36495 -129.12 110.25)">
   <circle cx="12.813" cy="101.26" r="5.5086" fill="#323232"/>
   <circle cx="30.264" cy="101.26" r="5.5086" fill="#323232"/>
   <circle cx="47.714" cy="101.26" r="5.5086" fill="#3cc"/>
   <circle cx="65.165" cy="101.26" r="5.5086" fill="#323232"/>
  </g>
  <g transform="matrix(.36495 0 0 .36495 -129.12 116.2)">
   <g fill="#323232">
    <circle cx="12.813" cy="101.26" r="5.5086"/>
    <circle cx="30.264" cy="101.26" r="5.5086"/>
    <circle cx="47.714" cy="101.26" r="5.5086"/>
   </g>
   <circle cx="65.165" cy="101.26" r="5.5086" fill="#3cc"/>
  </g>
  <g transform="matrix(.36495 0 0 .36495 -129.12 121.9)">
   <circle cx="12.813" cy="101.26" r="5.5086" fill="#323232"/>
   <g fill="#495f7c">
    <circle cx="30.264" cy="101.26" r="5.5086"/>
    <circle cx="47.714" cy="101.26" r="5.5086"/>
    <circle cx="65.165" cy="101.26" r="5.5086"/>
   </g>
  </g>
  <g transform="matrix(.36495 0 0 .36495 -129.12 128.13)" fill="#b72e45">
   <circle cx="12.813" cy="101.26" r="5.5086"/>
   <circle cx="30.264" cy="101.26" r="5.5086"/>
   <circle cx="47.714" cy="101.26" r="5.5086"/>
   <circle cx="65.165" cy="101.26" r="5.5086"/>
  </g>
 </g>
</svg>
