<?xml version="1.0" encoding="UTF-8" standalone="no"?>
<!-- Created with Inkscape (http://www.inkscape.org/) -->

<svg
        xmlns:inkscape="http://www.inkscape.org/namespaces/inkscape"
        xmlns:sodipodi="http://sodipodi.sourceforge.net/DTD/sodipodi-0.dtd"
        width="29.974817mm"
        height="29.763556mm"
        viewBox="0 0 29.974817 29.763556"
        version="1.1"
        id="svg1239"
        inkscape:version="1.1 (c68e22c387, 2021-05-23)"
        sodipodi:docname="logo.svg"
        xmlns="http://www.w3.org/2000/svg"
>
  <sodipodi:namedview
          id="namedview1241"
          pagecolor="#ffffff"
          bordercolor="#666666"
          borderopacity="1.0"
          inkscape:pageshadow="2"
          inkscape:pageopacity="0.0"
          inkscape:pagecheckerboard="0"
          inkscape:document-units="mm"
          showgrid="false"
          inkscape:zoom="1.8018961"
          inkscape:cx="-28.303519"
          inkscape:cy="29.968431"
          inkscape:window-width="1920"
          inkscape:window-height="1026"
          inkscape:window-x="0"
          inkscape:window-y="0"
          inkscape:window-maximized="1"
          inkscape:current-layer="layer1"/>
  <defs
          id="defs1236"/>
  <g
          inkscape:label="Layer 1"
          inkscape:groupmode="layer"
          id="layer1"
          transform="translate(-84.605404,-136.64158)">
    <g
            id="g26526"
            transform="matrix(0.46696306,0,0,0.46696306,228.79997,-210.63698)"
            style="stroke-width:1.3353"
            inkscape:export-filename="/mnt/Narbase/Projects/BalsamSites/Docs/logo.svg"
            inkscape:export-xdpi="101.037"
            inkscape:export-ydpi="101.037">
      <path
              style="fill:#279c9c;fill-opacity:1;stroke:none;stroke-width:0.970392;stroke-miterlimit:4;stroke-dasharray:none;stroke-dashoffset:0;stroke-opacity:1"
              inkscape:transform-center-x="6.1198507"
              inkscape:transform-center-y="-2.5411125"
              d="m -255.61765,790.00282 c -4.75737,4.48818 -12.87512,10.47891 -18.36398,13.84498 6.35011,3.35251 15.69057,3.58676 15.69057,3.58676 z"
              id="path26514"
              inkscape:connector-curvature="0"
              sodipodi:nodetypes="cccc"/>
      <path
              style="fill:#33cccc;fill-opacity:1;fill-rule:evenodd;stroke:none;stroke-width:0.376851px;stroke-linecap:butt;stroke-linejoin:miter;stroke-opacity:1"
              d="m -261.71027,743.69721 c -4.85478,-0.0635 -9.68118,2.3543 -12.88962,7.99535 -2.88668,13.78769 -13.89236,26.41572 -23.55122,34.60158 1.51652,1.62701 3.21829,3.26954 5.11528,4.92111 17.52456,-11.72662 33.581,-31.4342 31.32666,-47.51804 v 0 z"
              id="path26516"/>
      <path
              style="fill:#30c0c0;fill-opacity:1;fill-rule:evenodd;stroke:none;stroke-width:0.376851px;stroke-linecap:butt;stroke-linejoin:miter;stroke-opacity:1"
              d="m -257.91903,744.24782 c 0.13498,21.33516 -21.99655,41.25638 -33.46151,48.3664 2.10568,1.73567 4.43851,3.47867 7.00097,5.22281 18.62131,-11.6507 36.40689,-32.76883 33.47201,-49.65616 -2.06395,-1.88214 -4.47966,-3.23342 -7.01147,-3.93305 z"
              id="path26518"/>
      <path
              style="fill:#57d5d5;fill-opacity:1;fill-rule:evenodd;stroke:none;stroke-width:0.376851px;stroke-linecap:butt;stroke-linejoin:miter;stroke-opacity:1"
              d="m -291.30889,744.63701 c -1.29438,10.88108 -7.79475,21.33543 -15.06637,29.64067 1.46315,3.30172 3.63965,6.75527 6.6813,10.2949 10.16606,-8.80815 18.60143,-19.86336 21.32098,-30.42045 -2.99452,-6.47474 -7.91334,-9.36159 -12.93591,-9.51512 z"
              id="path26520"/>
      <path
              style="fill:#8de3e3;fill-opacity:1;fill-rule:evenodd;stroke:none;stroke-width:0.376851px;stroke-linecap:butt;stroke-linejoin:miter;stroke-opacity:1"
              d="m -294.6454,744.9308 c -9.30783,1.90303 -17.52538,12.70367 -12.74078,26.76709 7.07294,-8.55049 12.07806,-18.0388 12.74078,-26.76709 z"
              id="path26522"/>
      <path
              style="fill:#2cafaf;fill-opacity:1;fill-rule:evenodd;stroke:none;stroke-width:0.376851px;stroke-linecap:butt;stroke-linejoin:miter;stroke-opacity:1"
              d="m -247.18355,752.86068 c -2.2043,21.39809 -25.38107,40.72975 -35.41393,46.16535 1.76536,1.15259 3.62952,2.30491 5.61081,3.4544 0.0217,-0.006 0.0439,-0.0198 0.0651,-0.0141 32.55803,-18.89026 36.01553,-38.49173 29.73807,-49.60592 z"
              id="path26524"/>
    </g>
  </g>
</svg>
