<?xml version="1.0" encoding="UTF-8" standalone="no"?>
<!DOCTYPE svg PUBLIC "-//W3C//DTD SVG 1.1//EN" "http://www.w3.org/Graphics/SVG/1.1/DTD/svg11.dtd">
<!-- Created with Vectornator (http://vectornator.io/) -->
<svg height="100%" stroke-miterlimit="10" style="fill-rule:nonzero;clip-rule:evenodd;stroke-linecap:round;stroke-linejoin:round;" version="1.1" viewBox="0 0 737.352 170.1" width="100%" xml:space="preserve" xmlns="http://www.w3.org/2000/svg" xmlns:vectornator="http://vectornator.io" xmlns:xlink="http://www.w3.org/1999/xlink">
<defs>
<clipPath id="TextBounds">
<rect height="135.558" width="549.39" x="200.984" y="-25.2103"/>
</clipPath>
<clipPath id="TextBounds_2">
<rect height="96.39" width="555.094" x="211.532" y="94.1516"/>
</clipPath>
</defs>
<clipPath id="ArtboardFrame">
<rect height="170.1" width="737.352" x="0" y="0"/>
</clipPath>
<g clip-path="url(#ArtboardFrame)" id="layer1" vectornator:layerName="layer1">
<path d="M0 96.0516L0 147.128C0 159.854 10.2458 170.1 22.9716 170.1L74.0483 170.1L0 96.0516Z" fill="#b62d45" fill-rule="evenodd" opacity="1" stroke="none"/>
<path d="M22.9716 2.16293e-05C10.2458 2.16293e-05-2.70367e-06 10.2444-2.70367e-06 22.9702L-2.70367e-06 44.0636L126.036 170.1L147.13 170.1C159.856 170.1 170.1 159.854 170.1 147.128L170.1 125.915L44.1867 2.16293e-05L22.9716 2.16293e-05ZM107.902 2.16293e-05L107.902 11.7276L107.902 27.5059L107.902 46.3198L170.1 125.61L170.1 22.9702C170.1 10.2444 159.856 1.6222e-05 147.13 1.6222e-05L107.902 2.16293e-05Z" fill="#ffffff" fill-rule="evenodd" opacity="1" stroke="none"/>
<g fill="#ffffff" opacity="1" stroke="none">
<path clip-path="url(#TextBounds)" d="M288.331 96.6947L266.224 96.6947L230.54 34.6404L230.035 34.6404C230.185 37.2213 230.316 39.8209 230.428 42.4393C230.54 45.0576 230.653 47.6666 230.765 50.2662C230.877 52.8658 230.989 55.4748 231.101 58.0931L231.101 96.6947L215.56 96.6947L215.56 14.6663L237.498 14.6663L273.126 76.1035L273.518 76.1035C273.443 73.5599 273.35 71.0351 273.238 68.529C273.126 66.0229 273.023 63.5168 272.929 61.0107C272.836 58.5046 272.752 55.9985 272.677 53.4924L272.677 14.6663L288.331 14.6663L288.331 96.6947Z" fill-rule="evenodd"/>
<path clip-path="url(#TextBounds)" d="M359.194 96.6947L353.246 77.1695L323.341 77.1695L317.394 96.6947L298.654 96.6947L327.605 14.3297L348.87 14.3297L377.933 96.6947L359.194 96.6947ZM349.094 62.5817L343.147 43.5053C342.773 42.2335 342.277 40.5971 341.66 38.5959C341.043 36.5948 340.426 34.5562 339.809 32.4803C339.192 30.4043 338.696 28.5996 338.322 27.066C337.948 28.5996 337.433 30.4978 336.779 32.7608C336.124 35.0238 335.498 37.1652 334.899 39.1851C334.301 41.2049 333.871 42.645 333.609 43.5053L327.718 62.5817L349.094 62.5817Z" fill-rule="evenodd"/>
<path clip-path="url(#TextBounds)" d="M412.159 14.6663C419.602 14.6663 425.746 15.564 430.59 17.3595C435.434 19.1549 439.034 21.8667 441.39 25.495C443.747 29.1232 444.925 33.7053 444.925 39.2412C444.925 42.9816 444.214 46.2545 442.793 49.0599C441.372 51.8652 439.501 54.2404 437.182 56.1855C434.863 58.1305 432.357 59.7202 429.664 60.9546L453.79 96.6947L434.489 96.6947L414.908 65.2187L405.65 65.2187L405.65 96.6947L388.257 96.6947L388.257 14.6663L412.159 14.6663ZM410.924 28.9175L405.65 28.9175L405.65 51.0798L411.261 51.0798C417.021 51.0798 421.145 50.1166 423.633 48.1902C426.12 46.2639 427.364 43.4305 427.364 39.69C427.364 35.7999 426.026 33.032 423.352 31.3862C420.678 29.7404 416.535 28.9175 410.924 28.9175Z" fill-rule="evenodd"/>
<path clip-path="url(#TextBounds)" d="M464.114 14.6663L489.642 14.6663C500.565 14.6663 508.831 16.1999 514.442 19.2671C520.052 22.3343 522.858 27.7205 522.858 35.4259C522.858 38.5305 522.362 41.3358 521.371 43.8419C520.38 46.3481 518.949 48.4053 517.079 50.0137C515.208 51.6221 512.927 52.6694 510.234 53.1557L510.234 53.7168C512.964 54.2778 515.433 55.241 517.64 56.6063C519.847 57.9716 521.614 59.954 522.942 62.5536C524.27 65.1533 524.934 68.6038 524.934 72.9054C524.934 77.8802 523.718 82.1443 521.287 85.6978C518.855 89.2512 515.386 91.9724 510.879 93.8613C506.372 95.7503 501.013 96.6947 494.804 96.6947L464.114 96.6947L464.114 14.6663ZM481.507 47.1523L491.606 47.1523C496.656 47.1523 500.153 46.3574 502.098 44.7677C504.043 43.178 505.016 40.8309 505.016 37.7263C505.016 34.5843 503.866 32.3307 501.565 30.9654C499.265 29.6001 495.627 28.9175 490.652 28.9175L481.507 28.9175L481.507 47.1523ZM481.507 60.9546L481.507 82.3313L492.84 82.3313C498.077 82.3313 501.724 81.3214 503.781 79.3016C505.839 77.2817 506.867 74.5699 506.867 71.166C506.867 69.1462 506.418 67.3695 505.521 65.8359C504.623 64.3023 503.117 63.1053 501.004 62.245C498.891 61.3847 495.982 60.9546 492.279 60.9546L481.507 60.9546Z" fill-rule="evenodd"/>
<path clip-path="url(#TextBounds)" d="M591.533 96.6947L585.585 77.1695L555.68 77.1695L549.733 96.6947L530.993 96.6947L559.944 14.3297L581.209 14.3297L610.272 96.6947L591.533 96.6947ZM581.433 62.5817L575.486 43.5053C575.112 42.2335 574.616 40.5971 573.999 38.5959C573.382 36.5948 572.765 34.5562 572.148 32.4803C571.531 30.4043 571.035 28.5996 570.661 27.066C570.287 28.5996 569.772 30.4978 569.118 32.7608C568.463 35.0238 567.837 37.1652 567.238 39.1851C566.64 41.2049 566.21 42.645 565.948 43.5053L560.057 62.5817L581.433 62.5817Z" fill-rule="evenodd"/>
<path clip-path="url(#TextBounds)" d="M669.016 73.9153C669.016 78.7779 667.838 83.0046 665.482 86.5955C663.125 90.1863 659.693 92.9543 655.186 94.8993C650.679 96.8443 645.208 97.8169 638.775 97.8169C635.932 97.8169 633.155 97.6298 630.443 97.2558C627.731 96.8817 625.131 96.33 622.644 95.6006C620.157 94.8712 617.791 93.9642 615.546 92.8794L615.546 76.7206C619.437 78.4413 623.476 79.9935 627.666 81.3775C631.855 82.7615 636.007 83.4535 640.121 83.4535C642.964 83.4535 645.255 83.0794 646.994 82.3313C648.734 81.5832 649.996 80.5546 650.782 79.2455C651.567 77.9363 651.96 76.4401 651.96 74.7569C651.96 72.6996 651.268 70.9416 649.884 69.4828C648.5 68.0241 646.602 66.6588 644.189 65.387C641.776 64.1153 639.055 62.75 636.025 61.2912C634.118 60.3935 632.042 59.2994 629.798 58.009C627.553 56.7185 625.421 55.1382 623.401 53.2679C621.382 51.3977 619.726 49.1254 618.436 46.4509C617.145 43.7765 616.5 40.569 616.5 36.8286C616.5 31.9286 617.622 27.7392 619.867 24.2606C622.111 20.782 625.318 18.1169 629.489 16.2654C633.66 14.4138 638.588 13.4881 644.273 13.4881C648.537 13.4881 652.605 13.9837 656.476 14.9749C660.348 15.9661 664.397 17.3969 668.624 19.2671L663.013 32.7889C659.235 31.2553 655.85 30.0677 652.858 29.2261C649.865 28.3845 646.817 27.9637 643.712 27.9637C641.543 27.9637 639.691 28.3097 638.158 29.0017C636.624 29.6936 635.464 30.6662 634.679 31.9192C633.893 33.1723 633.501 34.6217 633.501 36.2675C633.501 38.2125 634.071 39.849 635.212 41.1769C636.353 42.5047 638.073 43.7858 640.374 45.0202C642.674 46.2545 645.545 47.6946 648.986 49.3404C653.176 51.3229 656.757 53.3895 659.731 55.5403C662.704 57.691 664.995 60.2158 666.604 63.1147C668.212 66.0136 669.016 69.6138 669.016 73.9153Z" fill-rule="evenodd"/>
<path clip-path="url(#TextBounds)" d="M731.127 96.6947L683.885 96.6947L683.885 14.6663L731.127 14.6663L731.127 28.9175L701.278 28.9175L701.278 46.9278L729.051 46.9278L729.051 61.179L701.278 61.179L701.278 82.3313L731.127 82.3313L731.127 96.6947Z" fill-rule="evenodd"/>
</g>
<g fill="#ffffff" opacity="1" stroke="none">
<path clip-path="url(#TextBounds_2)" d="M237.767 167.862L231.975 167.862L231.975 123.423L216.395 123.423L216.395 118.342L253.28 118.342L253.28 123.423L237.767 123.423L237.767 167.862Z" fill-rule="evenodd"/>
<path clip-path="url(#TextBounds_2)" d="M288.336 167.862L260.765 167.862L260.765 118.342L288.336 118.342L288.336 123.423L266.523 123.423L266.523 139.444L287.083 139.444L287.083 144.457L266.523 144.457L266.523 162.781L288.336 162.781L288.336 167.862Z" fill-rule="evenodd"/>
<path clip-path="url(#TextBounds_2)" d="M320.48 122.712C317.747 122.712 315.292 123.18 313.113 124.117C310.934 125.054 309.082 126.409 307.558 128.182C306.034 129.954 304.865 132.094 304.052 134.6C303.239 137.107 302.833 139.929 302.833 143.068C302.833 147.223 303.482 150.83 304.78 153.89C306.079 156.95 308.021 159.315 310.606 160.986C313.192 162.657 316.426 163.492 320.31 163.492C322.523 163.492 324.606 163.306 326.559 162.933C328.513 162.561 330.415 162.092 332.267 161.528L332.267 166.541C330.46 167.218 328.563 167.72 326.576 168.048C324.589 168.375 322.23 168.539 319.497 168.539C314.462 168.539 310.256 167.495 306.88 165.406C303.505 163.317 300.976 160.365 299.293 156.549C297.611 152.733 296.77 148.228 296.77 143.034C296.77 139.286 297.295 135.859 298.345 132.754C299.395 129.65 300.93 126.968 302.951 124.71C304.972 122.452 307.456 120.708 310.403 119.477C313.35 118.246 316.731 117.631 320.547 117.631C323.054 117.631 325.47 117.88 327.796 118.376C330.121 118.873 332.221 119.584 334.096 120.51L331.792 125.388C330.212 124.665 328.479 124.038 326.593 123.508C324.708 122.977 322.67 122.712 320.48 122.712Z" fill-rule="evenodd"/>
<path clip-path="url(#TextBounds_2)" d="M380.533 167.862L374.775 167.862L374.775 144.525L348.762 144.525L348.762 167.862L343.004 167.862L343.004 118.342L348.762 118.342L348.762 139.444L374.775 139.444L374.775 118.342L380.533 118.342L380.533 167.862Z" fill-rule="evenodd"/>
<path clip-path="url(#TextBounds_2)" d="M432.863 167.862L426.224 167.862L399.229 126.268L398.958 126.268C399.026 127.375 399.105 128.634 399.195 130.045C399.286 131.456 399.359 132.958 399.416 134.55C399.472 136.142 399.5 137.762 399.5 139.41L399.5 167.862L394.149 167.862L394.149 118.342L400.753 118.342L427.647 159.8L427.884 159.8C427.839 159.01 427.782 157.887 427.715 156.43C427.647 154.974 427.585 153.404 427.528 151.722C427.472 150.04 427.444 148.476 427.444 147.031L427.444 118.342L432.863 118.342L432.863 167.862Z" fill-rule="evenodd"/>
<path clip-path="url(#TextBounds_2)" d="M489.326 143.034C489.326 146.85 488.84 150.322 487.869 153.45C486.898 156.577 485.459 159.264 483.551 161.511C481.643 163.758 479.277 165.491 476.455 166.71C473.632 167.929 470.358 168.539 466.632 168.539C462.794 168.539 459.446 167.929 456.59 166.71C453.733 165.491 451.362 163.752 449.477 161.494C447.591 159.236 446.18 156.537 445.243 153.399C444.306 150.26 443.837 146.783 443.837 142.967C443.837 137.908 444.673 133.471 446.344 129.655C448.015 125.839 450.549 122.87 453.948 120.747C457.346 118.625 461.608 117.563 466.734 117.563C471.634 117.563 475.76 118.613 479.114 120.713C482.467 122.813 485.007 125.766 486.735 129.571C488.462 133.375 489.326 137.863 489.326 143.034ZM449.9 143.034C449.9 147.234 450.498 150.87 451.695 153.941C452.892 157.012 454.727 159.383 457.199 161.054C459.672 162.725 462.816 163.56 466.632 163.56C470.471 163.56 473.615 162.725 476.065 161.054C478.515 159.383 480.327 157.012 481.502 153.941C482.676 150.87 483.263 147.234 483.263 143.034C483.263 136.644 481.925 131.648 479.249 128.046C476.573 124.445 472.402 122.644 466.734 122.644C462.895 122.644 459.734 123.468 457.25 125.117C454.766 126.765 452.92 129.108 451.712 132.145C450.504 135.182 449.9 138.812 449.9 143.034Z" fill-rule="evenodd"/>
<path clip-path="url(#TextBounds_2)" d="M500.334 167.862L500.334 118.342L506.092 118.342L506.092 162.713L528.074 162.713L528.074 167.862L500.334 167.862Z" fill-rule="evenodd"/>
<path clip-path="url(#TextBounds_2)" d="M579.49 143.034C579.49 146.85 579.004 150.322 578.033 153.45C577.062 156.577 575.623 159.264 573.715 161.511C571.807 163.758 569.442 165.491 566.619 166.71C563.796 167.929 560.522 168.539 556.796 168.539C552.958 168.539 549.61 167.929 546.754 166.71C543.897 165.491 541.526 163.752 539.641 161.494C537.755 159.236 536.344 156.537 535.407 153.399C534.47 150.26 534.001 146.783 534.001 142.967C534.001 137.908 534.837 133.471 536.508 129.655C538.179 125.839 540.713 122.87 544.112 120.747C547.51 118.625 551.772 117.563 556.898 117.563C561.798 117.563 565.925 118.613 569.278 120.713C572.631 122.813 575.171 125.766 576.899 129.571C578.626 133.375 579.49 137.863 579.49 143.034ZM540.064 143.034C540.064 147.234 540.663 150.87 541.859 153.941C543.056 157.012 544.891 159.383 547.363 161.054C549.836 162.725 552.98 163.56 556.796 163.56C560.635 163.56 563.779 162.725 566.229 161.054C568.679 159.383 570.491 157.012 571.666 153.941C572.84 150.87 573.427 147.234 573.427 143.034C573.427 136.644 572.089 131.648 569.413 128.046C566.737 124.445 562.566 122.644 556.898 122.644C553.059 122.644 549.898 123.468 547.414 125.117C544.93 126.765 543.084 129.108 541.876 132.145C540.668 135.182 540.064 138.812 540.064 143.034Z" fill-rule="evenodd"/>
<path clip-path="url(#TextBounds_2)" d="M611.667 141.917L628.975 141.917L628.975 165.931C626.378 166.812 623.708 167.466 620.965 167.895C618.221 168.324 615.156 168.539 611.769 168.539C606.62 168.539 602.279 167.512 598.745 165.457C595.212 163.402 592.53 160.472 590.701 156.667C588.872 152.862 587.958 148.341 587.958 143.102C587.958 137.976 588.968 133.505 590.989 129.689C593.01 125.873 595.934 122.909 599.762 120.798C603.589 118.687 608.19 117.631 613.564 117.631C616.319 117.631 618.932 117.885 621.405 118.393C623.878 118.901 626.175 119.618 628.298 120.544L626.096 125.557C624.267 124.767 622.252 124.089 620.05 123.525C617.849 122.96 615.574 122.678 613.225 122.678C609.183 122.678 605.723 123.513 602.844 125.184C599.965 126.855 597.763 129.215 596.239 132.263C594.715 135.312 593.953 138.925 593.953 143.102C593.953 147.234 594.619 150.83 595.951 153.89C597.283 156.95 599.361 159.326 602.183 161.02C605.006 162.713 608.641 163.56 613.09 163.56C615.325 163.56 617.245 163.43 618.848 163.17C620.451 162.911 621.907 162.6 623.217 162.239L623.217 147.065L611.667 147.065L611.667 141.917Z" fill-rule="evenodd"/>
<path clip-path="url(#TextBounds_2)" d="M640.932 167.862L640.932 118.342L646.69 118.342L646.69 167.862L640.932 167.862Z" fill-rule="evenodd"/>
<path clip-path="url(#TextBounds_2)" d="M687.877 167.862L660.306 167.862L660.306 118.342L687.877 118.342L687.877 123.423L666.064 123.423L666.064 139.444L686.623 139.444L686.623 144.457L666.064 144.457L666.064 162.781L687.877 162.781L687.877 167.862Z" fill-rule="evenodd"/>
<path clip-path="url(#TextBounds_2)" d="M726.794 154.686C726.794 157.621 726.066 160.122 724.609 162.188C723.153 164.254 721.115 165.829 718.496 166.913C715.876 167.997 712.794 168.539 709.249 168.539C707.375 168.539 705.602 168.449 703.931 168.268C702.26 168.087 700.725 167.828 699.325 167.489C697.925 167.15 696.694 166.733 695.633 166.236L695.633 160.715C697.326 161.415 699.393 162.064 701.831 162.662C704.27 163.261 706.822 163.56 709.486 163.56C711.97 163.56 714.07 163.227 715.786 162.561C717.502 161.895 718.806 160.935 719.698 159.682C720.59 158.429 721.036 156.921 721.036 155.16C721.036 153.466 720.663 152.05 719.918 150.909C719.173 149.769 717.937 148.73 716.209 147.793C714.482 146.856 712.128 145.857 709.147 144.796C707.047 144.05 705.196 143.232 703.593 142.34C701.989 141.448 700.646 140.437 699.562 139.308C698.478 138.179 697.66 136.87 697.106 135.379C696.553 133.889 696.276 132.184 696.276 130.265C696.276 127.623 696.948 125.359 698.292 123.474C699.635 121.588 701.498 120.143 703.88 119.138C706.263 118.134 709.001 117.631 712.094 117.631C714.736 117.631 717.18 117.88 719.427 118.376C721.674 118.873 723.734 119.539 725.609 120.375L723.813 125.32C722.03 124.575 720.138 123.954 718.14 123.457C716.142 122.96 714.081 122.712 711.959 122.712C709.836 122.712 708.047 123.022 706.59 123.643C705.134 124.264 704.022 125.139 703.254 126.268C702.486 127.397 702.102 128.741 702.102 130.299C702.102 132.038 702.469 133.483 703.203 134.634C703.937 135.786 705.111 136.808 706.726 137.7C708.34 138.592 710.48 139.523 713.144 140.494C716.057 141.555 718.53 142.679 720.562 143.864C722.594 145.05 724.141 146.495 725.202 148.2C726.263 149.904 726.794 152.066 726.794 154.686Z" fill-rule="evenodd"/>
</g>
</g>
</svg>
